<svg width="9" height="8" viewBox="0 0 9 8" fill="none" xmlns="http://www.w3.org/2000/svg">
<path d="M8.13421 7.7419C7.96136 7.7419 7.81012 7.67708 7.68048 7.54744C7.55085 7.41781 7.4821 7.26263 7.47424 7.08193L7.48603 2.33253L2.05309 7.76547C1.91953 7.89903 1.76436 7.96385 1.58758 7.95992C1.4108 7.95599 1.25563 7.88725 1.12207 7.75368C0.988504 7.62012 0.919758 7.46495 0.915829 7.28817C0.911901 7.11139 0.976719 6.95622 1.11028 6.82266L6.54322 1.38972L1.78203 1.38972C1.60919 1.38972 1.45598 1.32294 1.32242 1.18937C1.18885 1.05581 1.12207 0.902603 1.12207 0.729754C1.12993 0.549049 1.19867 0.393879 1.32831 0.264242C1.45794 0.134606 1.60919 0.0697879 1.78204 0.0697878L8.15778 0.0580029C8.25206 0.0580032 8.33849 0.0737162 8.41705 0.105143C8.49562 0.13657 8.56633 0.183711 8.62918 0.246565C8.68418 0.301562 8.72936 0.370308 8.76471 0.452804C8.80007 0.5353 8.81775 0.623688 8.81775 0.717969L8.80596 7.09372C8.81382 7.27442 8.749 7.42566 8.61151 7.54744C8.47401 7.66922 8.31492 7.73404 8.13421 7.7419Z" fill="#282828"/>
</svg>
