<svg width="644" height="624" viewBox="0 0 644 624" fill="none" xmlns="http://www.w3.org/2000/svg">
<g clip-path="url(#clip0_228_129144)">
<path d="M-210.315 928.411C-146.181 991.326 -134.271 1052.71 38.3287 969.977C50.1241 964.323 93.7085 957.714 106.562 965.556C210.983 1029.27 252.399 996.722 405.622 808.307L918.738 405.738C1067 266.851 913.445 175.259 847.257 213.567C829.484 225.408 820.233 228.781 814.87 217.323C803.249 192.498 782.4 169.914 763.869 163.633C734.902 153.815 713.136 168.097 703.381 156.822C674.093 117.71 692.817 25.6849 662.486 -9.37334C641.379 -33.7696 626.929 -30.7481 613.327 -46.4701C595.034 -67.6135 588.488 -141.316 541.003 -149.787C488.317 -159.186 448.869 -147.807 405.26 -128.089C367.761 -115.552 329.461 -139.945 296.345 -140.027C252.644 -140.137 225.069 -103.076 204.083 -115.186C156.759 -142.494 114.852 -145.859 80.6393 -158.161C68.2554 -162.613 59.8783 -189.492 44.3868 -207.398C-16.1303 -277.345 -96.3939 -231.485 -166.253 -171.045C-191.977 -148.788 -235.471 -153.606 -280.315 -114.808L-571.325 202.997C-615.434 254.853 -552.29 315.746 -544.502 356.655C-536.714 397.565 -535.254 437.372 -543.35 480.643C-563.956 590.778 -562.314 647.979 -547.741 719.202C-508.682 910.091 -260.55 960.628 -226.591 931.247C-221.859 927.153 -217.436 925.916 -210.315 928.411Z" fill="#C1D3EB"/>
<path d="M812.491 214.334C797.047 185.62 773.274 158.806 736.498 161.721L655.945 215.032L576.632 282.58L370.572 654.096L458.352 683.811C481.848 670.892 515.215 642.008 555.078 673.069C614.299 753.487 641.068 810.893 687.677 875.027C696.212 892.122 700.45 885.48 712.969 875.027C814.973 709.003 965.564 625.037 987.092 496.115C986.925 485.181 989.41 472.937 983.924 466.733C982.818 465.481 982.54 464.841 982.472 463.65C981.916 453.847 979.35 446.473 976.1 441.735C970.408 433.437 957.51 423.095 957.51 423.095C950.608 417.39 934.665 413.765 923.107 413.682C916.632 413.682 916.82 409.274 920.914 405.204C954.002 372.314 960.833 357.349 966.684 346.937C977.14 327.556 982.807 307.302 980.047 285.23C975.461 248.554 948.497 225.107 921.85 214.334C890.854 201.977 862.625 205.7 848.629 214.334C820.668 233.193 817.272 225.36 812.547 214.462L812.491 214.334Z" fill="#688623"/>
<path d="M-343.711 496.182L-331.74 399.613L-322.708 399.896L-321.717 389.779L-155.629 392.076L-156.509 401.055L-137.702 401.821L-136.818 392.805L54.8534 393.252L57.5157 396.15L34.255 531.167L29.4087 530.98L27.0831 540.612L-62.3673 532.998L-62.1415 525.18L-232.972 509.552L-233.269 517.22L-328.446 509.156L-327.895 503.535L-337.098 502.632L-343.711 496.182Z" fill="#A9C0DE"/>
<path d="M132.515 480.268L139.965 449.904L222.48 474.704L206.725 503.851L132.515 480.268Z" fill="#A9C0DE"/>
<path d="M257.441 490.434L239.768 512.102L338.063 547.147L352.166 526.602L257.441 490.434Z" fill="#A9C0DE"/>
<path d="M335.052 561.141L231.564 526.54L212.727 547.005L320.034 582.731L335.052 561.141Z" fill="#A9C0DE"/>
<path d="M125.291 490.056L197.587 514.906L178.905 540.682L115.961 523.091L125.291 490.056Z" fill="#A9C0DE"/>
<path d="M138.198 577.478L146.978 548.026L102.549 536.3L124.411 427.944L402.648 537.533L414.318 515.968L98.6707 397.492L69.8609 558.721L138.198 577.478Z" fill="#A9C0DE"/>
<path d="M153.64 581.576L162.912 554.61L190.645 558.721C187.627 566.672 181.524 583.072 181.262 585.06C181.001 587.048 162.738 583.566 153.64 581.576Z" fill="#A9C0DE"/>
<path d="M196.403 587.938L206.261 562.412L328.152 602.587L341.271 589.498L362.183 606.138L340.271 632.226L196.403 587.938Z" fill="#A9C0DE"/>
<path d="M372.696 539.032L347.132 578.369L370.044 592.512L396.001 551.671L372.696 539.032Z" fill="#A9C0DE"/>
<path d="M76.5834 121.183L79.6219 58.713L110.9 71.1509L116.859 55.3513L74.883 38.2388L82.6725 18.8976L137.378 41.0051L141.778 27.2613L93.9582 9.48321L101.104 -10.3281L113.026 -32.8654L178.801 -7.14848L143.594 93.74L142.046 116.941L76.5834 121.183Z" fill="#A9C0DE"/>
<path d="M87.4148 -18.2937L57.8208 -29.6182L54.1501 -20.879L83.8489 -11.8491L74.5602 12.1699L79.2246 13.9065L77.7803 16.4895L83.0586 18.1353L84.3367 15.5378L88.079 16.6271L97.5988 -12.0255C96.7017 -12.5642 94.9087 -13.6417 94.9141 -13.6424C94.9196 -13.6431 94.5241 -13.032 94.3257 -12.7264L85.7815 -16.9312L87.4148 -18.2937Z" fill="#A9C0DE"/>
<path d="M95.8683 -47.1376L86.6565 -24.9826L59.6072 -35.7256L89.1997 -89.9762L116.018 -76.6699L121.765 -86.0801L194.315 -57.2817L178.428 -16.2106L158.886 -24.2343L158.273 -21.9773L95.8683 -47.1376Z" fill="#A9C0DE"/>
<path d="M66.3578 127.949L40.7068 127.689L46.4867 1.48633L72.2401 8.20796L66.3578 127.949Z" fill="#A9C0DE"/>
<path d="M295.992 -223.618L234.714 -68.2835M149.241 148.382L-328.086 118.793M149.241 148.382L144.243 165.296M149.241 148.382L234.714 -68.2835M83.8293 369.751L49.6218 567.9M83.8293 369.751L-353.742 366.141M83.8293 369.751L144.243 165.296M83.8293 369.751L451.279 505.134M49.6218 567.9L358.552 660.308M49.6218 567.9L-371.433 527.332M-353.742 366.141L-371.433 527.332M-353.742 366.141L-328.086 118.793M-371.433 527.332L-379.785 584.632C-383.489 608.973 -396.189 619.81 -429.877 619.81L-562.869 612.148M-328.086 118.793L-291.166 -124.431M144.243 165.296L571.931 278.856M571.931 278.856L451.279 505.134M571.931 278.856L358.552 660.308M571.931 278.856L679.592 186.072M451.279 505.134L358.552 660.308M358.552 660.308L447.097 696.26L475.431 708.425L485.628 717.193L510.242 765.775M787.253 93.2876L679.592 186.072M679.592 186.072L234.714 -68.2835M510.242 765.775C540.056 748.94 558.061 735.759 575.031 756.175L649.594 868.652L677.362 916.053M510.242 765.775L609.578 916.053M636.553 956.862L609.578 916.053M609.578 916.053L451.279 1076.39" stroke="white" stroke-width="14"/>
<path d="M235.268 -68.491L76.5015 -123.613L32.0435 -42.073L20.7839 139.595" stroke="white" stroke-width="8"/>
<path d="M646.426 627.009L630.973 620.735C630.861 618.413 632.007 615.645 634.91 615.598C636.855 615.173 636.801 614.382 637.971 613.375C639.375 611.432 641.708 610.365 646.189 612.254C650.669 614.143 651.158 618.104 649.825 625.307L646.426 627.009Z" fill="#74A600"/>
<path d="M654.573 627.201L623.02 627.71C621.958 621.34 635.438 615.163 643.483 624.502C646.512 622.279 652.286 623.525 654.573 627.201Z" fill="#C1D3EB"/>
<path opacity="0.3" d="M611.041 647.038L610.851 646.703L610.539 646.155L612.321 645.253L612.321 645.253L612.321 645.252L609.546 640.369L609.065 639.523L608.661 638.811L610.372 637.945L609.627 636.636L606.99 631.993L606.489 631.11L608.106 630.291L599.86 615.777L596.14 623.249L592.42 630.721L594.08 631.45L593.627 632.359L591.198 637.24L590.577 638.487L592.332 639.259L591.969 639.988L591.519 640.892L589.03 645.89L589.031 645.89L590.859 646.694L590.405 647.603L587.808 652.823L598.807 657.655L598.837 658.744L599.007 664.954L601.233 665.916L602.801 665.135L602.801 665.135L603.404 664.834L603.234 658.622L603.204 657.534L613.922 652.107L611.041 647.038Z" fill="#616F89"/>
<path d="M614.484 644.163L602.989 649.983L591.193 644.801L594.003 639.158L594.783 637.59L602.239 622.613L610.504 637.16L611.369 638.682L614.484 644.163Z" fill="#008D00"/>
<path opacity="0.4" d="M602.239 622.613L602.989 649.983L591.193 644.801L602.239 622.613Z" fill="#231F20"/>
<g opacity="0.7">
<path d="M602.244 622.612L611.531 644.166L608.368 647.261L614.488 644.163L602.244 622.612Z" fill="#07A307"/>
</g>
<g opacity="0.1">
<path d="M602.239 622.615L594.145 644.645L597.473 647.562L591.193 644.803L602.239 622.615Z" fill="#231F20"/>
</g>
<path opacity="0.2" d="M611.371 638.682L602.801 643.021L594.005 639.158L594.785 637.59L602.242 622.613L610.507 637.16L611.371 638.682Z" fill="#231F20"/>
<path d="M612.536 636.857L602.767 641.802L592.741 637.399L595.792 631.27L602.13 618.54L609.155 630.904L612.536 636.857Z" fill="#008D00"/>
<path opacity="0.4" d="M602.13 618.541L602.767 641.803L592.741 637.399L602.13 618.541Z" fill="#231F20"/>
<g opacity="0.7">
<path d="M602.129 618.54L610.022 636.859L607.334 639.489L612.535 636.855L602.129 618.54Z" fill="#07A307"/>
</g>
<g opacity="0.1">
<path d="M602.126 618.542L595.247 637.265L598.075 639.745L592.738 637.4L602.126 618.542Z" fill="#231F20"/>
</g>
<path opacity="0.2" d="M609.154 630.903L602.559 634.244L595.791 631.269L602.129 618.54L609.154 630.903Z" fill="#231F20"/>
<path d="M610.264 629.203L602.522 633.123L594.577 629.633L602.017 614.689L610.264 629.203Z" fill="#008D00"/>
<path opacity="0.4" d="M602.017 614.689L602.522 633.123L594.577 629.633L602.017 614.689Z" fill="#231F20"/>
<g opacity="0.7">
<path d="M602.021 614.688L608.276 629.205L606.146 631.289L610.268 629.203L602.021 614.688Z" fill="#07A307"/>
</g>
<g opacity="0.1">
<path d="M602.017 614.689L596.566 629.527L598.807 631.492L594.577 629.634L602.017 614.689Z" fill="#231F20"/>
</g>
<path d="M367.942 12.7448L372.215 5.13531L373.137 5.65278L371.234 9.04137L375.291 11.3199L377.194 7.93132L378.116 8.44879L373.842 16.0583L372.921 15.5408L374.832 12.1373L370.775 9.8588L368.864 13.2623L367.942 12.7448ZM377.171 16.2269L382.4 13.3569L383.41 13.9244L380.205 19.6315L379.329 19.1391L381.807 14.725L376.594 17.6034L375.568 17.0275L378.773 11.3204L379.65 11.8128L377.171 16.2269ZM381.811 20.5334L385.016 14.8263L385.893 15.3188L384.499 17.8008L385.079 18.1263L388.524 16.7961L389.653 17.4304L385.806 18.8862L386.478 23.1542L385.349 22.5199L384.828 19.0605L384.04 18.6182L382.688 21.0259L381.811 20.5334ZM389.448 24.9783C388.933 24.689 388.55 24.3125 388.298 23.8489C388.05 23.3867 387.94 22.8739 387.97 22.3106C388.002 21.7486 388.183 21.1729 388.514 20.5833C388.848 19.9889 389.248 19.5304 389.712 19.2081C390.179 18.8871 390.675 18.7125 391.199 18.6843C391.725 18.6574 392.246 18.7887 392.761 19.078C393.277 19.3673 393.659 19.7431 393.907 20.2054C394.159 20.669 394.267 21.183 394.234 21.7474C394.203 22.3132 394.02 22.8934 393.687 23.4879C393.355 24.0774 392.957 24.5314 392.492 24.8499C392.028 25.1698 391.534 25.3432 391.007 25.37C390.483 25.3982 389.963 25.2677 389.448 24.9783ZM389.89 24.1906C390.282 24.4104 390.66 24.4909 391.025 24.4322C391.391 24.3734 391.726 24.2146 392.031 23.9558C392.336 23.697 392.595 23.3769 392.81 22.9954C393.024 22.614 393.163 22.2244 393.226 21.8268C393.29 21.4292 393.253 21.0579 393.114 20.7129C392.975 20.3679 392.71 20.0855 392.319 19.8657C391.928 19.6459 391.549 19.5666 391.182 19.6279C390.815 19.6891 390.479 19.8504 390.172 20.1117C389.866 20.3729 389.606 20.6943 389.391 21.0758C389.177 21.4572 389.039 21.8455 388.977 22.2407C388.914 22.6358 388.953 23.0046 389.093 23.3472C389.233 23.6897 389.499 23.9708 389.89 24.1906ZM392.934 26.7796L393.393 25.9622L393.601 26.079C393.772 26.175 393.933 26.2216 394.085 26.2187C394.238 26.2133 394.397 26.1446 394.562 26.0127C394.731 25.8796 394.921 25.6699 395.13 25.3836C395.344 25.0963 395.594 24.7184 395.879 24.2501L397.402 21.7819L401.207 23.9186L398.002 29.6257L397.125 29.1333L399.871 24.2436L397.775 23.0667L396.543 25.0528C396.26 25.5098 395.986 25.8986 395.722 26.2191C395.461 26.5386 395.199 26.7823 394.935 26.9502C394.674 27.1195 394.404 27.2058 394.125 27.2089C393.846 27.212 393.548 27.1246 393.231 26.9465L392.934 26.7796ZM402.414 27.3136L404.049 28.2317C404.717 28.6073 405.134 29.0642 405.297 29.6025C405.461 30.1407 405.397 30.67 405.104 31.1901C404.913 31.532 404.659 31.7983 404.343 31.9892C404.029 32.1776 403.671 32.2685 403.271 32.262C402.872 32.253 402.45 32.1233 402.004 31.8729L399.611 30.5292L402.816 24.8221L403.693 25.3145L400.947 30.2042L402.463 31.0555C402.81 31.2502 403.146 31.3186 403.472 31.2605C403.798 31.2024 404.041 31.0296 404.203 30.7423C404.372 30.4401 404.399 30.131 404.283 29.8151C404.168 29.4992 403.936 29.2438 403.589 29.0491L401.955 28.131L402.414 27.3136ZM407.656 35.2036C407.121 34.9031 406.731 34.518 406.487 34.0484C406.242 33.5787 406.14 33.0638 406.181 32.5035C406.222 31.9433 406.403 31.3783 406.723 30.8086C407.048 30.229 407.442 29.7773 407.904 29.4535C408.37 29.1287 408.865 28.949 409.389 28.9144C409.918 28.8787 410.439 29.0056 410.955 29.2949C411.356 29.5203 411.676 29.7977 411.914 30.1271C412.153 30.4566 412.3 30.8128 412.355 31.1958C412.411 31.5788 412.363 31.9625 412.212 32.347L411.335 31.8546C411.415 31.5569 411.395 31.2431 411.278 30.9131C411.164 30.582 410.914 30.308 410.527 30.091C410.185 29.899 409.836 29.8199 409.478 29.8535C409.124 29.8861 408.785 30.0231 408.46 30.2644C408.14 30.5047 407.858 30.8403 407.616 31.2713C407.369 31.7122 407.222 32.1351 407.177 32.54C407.135 32.9462 407.191 33.3114 407.344 33.6355C407.5 33.961 407.752 34.2211 408.098 34.4159C408.326 34.5439 408.555 34.6204 408.786 34.6454C409.016 34.6705 409.237 34.6449 409.45 34.5686C409.662 34.4923 409.854 34.3654 410.025 34.188L410.902 34.6804C410.663 34.9895 410.37 35.224 410.023 35.3841C409.679 35.5432 409.303 35.6122 408.895 35.5913C408.49 35.5693 408.077 35.4401 407.656 35.2036ZM411.249 37.0648L414.454 31.3577L415.331 31.8502L413.937 34.3322L414.517 34.6577L417.961 33.3275L419.091 33.9618L415.243 35.4176L415.916 39.6856L414.786 39.0513L414.266 35.5919L413.478 35.1496L412.126 37.5573L411.249 37.0648ZM418.472 39.4202L423.7 36.5502L424.711 37.1177L421.506 42.8248L420.629 42.3324L423.108 37.9183L417.894 40.7967L416.869 40.2208L420.074 34.5137L420.951 35.0061L418.472 39.4202ZM424.715 42.9262L429.943 40.0561L430.954 40.6237L427.749 46.3308L426.872 45.8384L429.351 41.4243L424.137 44.3026L423.112 43.7267L426.317 38.0196L427.194 38.5121L424.715 42.9262ZM430.432 37.8283L431.249 38.2873C431.024 38.6886 430.701 38.9389 430.28 39.0382C429.86 39.1376 429.411 39.0537 428.936 38.7866C428.468 38.5237 428.166 38.1868 428.032 37.7759C427.901 37.3663 427.947 36.9609 428.173 36.5596L428.99 37.0187C428.882 37.2119 428.84 37.4115 428.864 37.6174C428.891 37.8248 429.035 38.0015 429.295 38.1475C429.555 38.2936 429.782 38.3249 429.975 38.2413C430.171 38.1591 430.323 38.0215 430.432 37.8283ZM432.298 48.8853L435.503 43.1782L439.991 45.6987L436.786 51.4059L435.909 50.9134L438.655 46.0237L435.92 44.488L433.174 49.3777L432.298 48.8853ZM440.713 53.7678C440.164 53.459 439.757 53.0712 439.495 52.6045C439.236 52.1367 439.122 51.6231 439.153 51.0637C439.188 50.5031 439.369 49.9306 439.697 49.346C440.026 48.7614 440.422 48.306 440.885 47.9797C441.352 47.6524 441.848 47.4715 442.372 47.4369C442.901 47.4012 443.423 47.5281 443.938 47.8174C444.235 47.9843 444.501 48.1987 444.735 48.4606C444.969 48.7224 445.142 49.0316 445.255 49.388C445.369 49.742 445.394 50.1407 445.331 50.5841C445.268 51.0276 445.087 51.5156 444.788 52.0481L444.579 52.4197L440.18 49.9492L440.605 49.1912L444.113 51.1609C444.294 50.8389 444.391 50.5154 444.404 50.1904C444.419 49.8668 444.35 49.5659 444.197 49.2876C444.046 49.0107 443.813 48.7832 443.495 48.6051C443.146 48.409 442.795 48.326 442.443 48.3561C442.094 48.3851 441.774 48.4989 441.484 48.6973C441.193 48.8957 440.96 49.1523 440.783 49.4668L440.499 49.9722C440.257 50.4032 440.126 50.8103 440.107 51.1934C440.091 51.5755 440.173 51.9197 440.353 52.226C440.534 52.5298 440.802 52.7812 441.156 52.9801C441.386 53.1095 441.612 53.1941 441.834 53.2341C442.06 53.2729 442.278 53.2649 442.488 53.2102C442.699 53.1529 442.898 53.0461 443.083 52.8896L443.797 53.6032C443.546 53.8404 443.255 54.0089 442.922 54.1087C442.59 54.2059 442.236 54.2283 441.858 54.1758C441.481 54.1208 441.1 53.9848 440.713 53.7678ZM443.275 57.8652L447.682 50.018L448.529 50.4937L448.02 51.4003L448.124 51.4587C448.244 51.3958 448.404 51.3195 448.605 51.23C448.809 51.1393 449.053 51.0938 449.336 51.0934C449.624 51.092 449.953 51.1956 450.325 51.4042C450.805 51.6741 451.162 52.0321 451.393 52.4783C451.625 52.9244 451.72 53.4257 451.678 53.982C451.636 54.5384 451.446 55.1163 451.11 55.7158C450.77 56.3202 450.373 56.7863 449.919 57.1143C449.465 57.4397 448.989 57.6216 448.488 57.6598C447.989 57.6956 447.502 57.58 447.026 57.3129C446.66 57.107 446.4 56.8815 446.248 56.6363C446.097 56.3887 446.006 56.1534 445.975 55.9306C445.945 55.7053 445.927 55.5226 445.921 55.3824L445.847 55.3406L444.152 58.3577L443.275 57.8652ZM446.942 53.3556C446.7 53.7866 446.549 54.2023 446.491 54.6027C446.433 55.0006 446.474 55.3606 446.612 55.6827C446.752 56.0023 446.998 56.2609 447.35 56.4584C447.716 56.6643 448.076 56.7395 448.43 56.684C448.788 56.6274 449.121 56.4692 449.43 56.2093C449.743 55.9483 450.013 55.6147 450.241 55.2085C450.467 54.8072 450.608 54.4108 450.665 54.0192C450.726 53.6265 450.685 53.2665 450.543 52.9392C450.405 52.6107 450.15 52.3422 449.778 52.1335C449.422 51.9332 449.071 51.8553 448.727 51.8998C448.384 51.9418 448.06 52.0891 447.756 52.3415C447.452 52.5915 447.181 52.9295 446.942 53.3556ZM451.459 59.724C451.276 59.621 451.155 59.4671 451.098 59.262C451.04 59.057 451.063 58.8629 451.166 58.6796C451.269 58.4963 451.423 58.3758 451.628 58.3183C451.833 58.2607 452.027 58.2834 452.21 58.3864C452.393 58.4893 452.514 58.6433 452.571 58.8483C452.629 59.0533 452.606 59.2474 452.503 59.4307C452.435 59.5521 452.342 59.6462 452.223 59.713C452.106 59.7812 451.98 59.8177 451.843 59.8226C451.711 59.8264 451.583 59.7935 451.459 59.724Z" fill="#282828"/>
<path d="M232.769 191.962L235.023 183.53L237.872 184.292C238.534 184.469 239.042 184.733 239.399 185.084C239.758 185.433 239.985 185.836 240.081 186.294C240.176 186.752 240.157 187.229 240.024 187.726C239.892 188.222 239.669 188.647 239.358 188.999C239.049 189.351 238.652 189.592 238.168 189.721C237.684 189.848 237.114 189.824 236.458 189.648L234.416 189.102L234.658 188.197L236.667 188.734C237.12 188.855 237.505 188.874 237.821 188.791C238.137 188.708 238.393 188.549 238.587 188.316C238.785 188.081 238.93 187.795 239.02 187.457C239.11 187.119 239.128 186.801 239.073 186.501C239.02 186.201 238.876 185.939 238.639 185.714C238.403 185.486 238.056 185.311 237.597 185.189L235.802 184.709L233.79 192.234L232.769 191.962ZM241.915 190.084L243.726 190.568C244.467 190.766 244.984 191.105 245.276 191.586C245.568 192.067 245.637 192.596 245.483 193.172C245.381 193.551 245.201 193.872 244.943 194.135C244.685 194.396 244.361 194.572 243.972 194.665C243.583 194.755 243.142 194.734 242.648 194.602L239.997 193.894L241.687 187.57L242.659 187.83L241.21 193.248L242.89 193.697C243.274 193.799 243.617 193.782 243.918 193.645C244.219 193.508 244.413 193.28 244.498 192.962C244.587 192.627 244.537 192.321 244.346 192.044C244.156 191.766 243.868 191.576 243.484 191.474L241.673 190.989L241.915 190.084ZM245.941 195.483L247.632 189.159L248.603 189.419L246.913 195.742L245.941 195.483ZM255.709 188.778L256.044 189.503C255.802 189.638 255.545 189.709 255.273 189.716C255 189.722 254.703 189.691 254.38 189.622C254.057 189.554 253.699 189.476 253.305 189.388C252.861 189.287 252.469 189.297 252.128 189.417C251.787 189.538 251.488 189.764 251.232 190.095C250.976 190.427 250.753 190.858 250.564 191.39L250.646 191.412C250.966 191.074 251.34 190.862 251.769 190.777C252.198 190.692 252.629 190.707 253.062 190.823C253.556 190.955 253.97 191.189 254.304 191.525C254.637 191.861 254.859 192.287 254.968 192.801C255.078 193.316 255.044 193.905 254.866 194.569C254.689 195.231 254.419 195.77 254.054 196.187C253.693 196.605 253.266 196.888 252.773 197.036C252.284 197.181 251.757 197.179 251.192 197.028C250.627 196.876 250.167 196.611 249.813 196.231C249.459 195.848 249.235 195.362 249.14 194.772C249.045 194.179 249.102 193.493 249.31 192.713L249.491 192.038C249.867 190.63 250.392 189.627 251.063 189.027C251.738 188.428 252.561 188.245 253.53 188.478C253.874 188.558 254.178 188.636 254.442 188.713C254.707 188.789 254.942 188.839 255.148 188.862C255.354 188.884 255.541 188.856 255.709 188.778ZM251.425 196.155C251.807 196.257 252.16 196.248 252.486 196.13C252.815 196.012 253.1 195.798 253.341 195.489C253.583 195.178 253.768 194.784 253.895 194.309C254.018 193.848 254.047 193.436 253.983 193.072C253.921 192.708 253.775 192.404 253.543 192.16C253.311 191.916 253.002 191.742 252.615 191.638C252.332 191.563 252.066 191.543 251.815 191.579C251.564 191.615 251.334 191.705 251.125 191.849C250.916 191.993 250.732 192.188 250.572 192.433C250.415 192.679 250.288 192.975 250.19 193.319C250 194.027 250.015 194.638 250.233 195.152C250.452 195.667 250.849 196.001 251.425 196.155ZM260.725 195.571L260.483 196.477L256.992 195.543L257.234 194.638L260.725 195.571ZM258.191 191.982L256.501 198.306L255.529 198.046L257.22 191.722L258.191 191.982ZM262.193 193.052L260.502 199.375L259.531 199.116L261.221 192.792L262.193 193.052ZM264.195 196.04L266.006 196.524C266.747 196.722 267.264 197.062 267.556 197.542C267.848 198.023 267.917 198.552 267.763 199.128C267.661 199.507 267.482 199.828 267.223 200.091C266.965 200.352 266.641 200.528 266.252 200.621C265.863 200.711 265.422 200.69 264.928 200.558L262.277 199.85L263.967 193.526L264.939 193.786L263.49 199.204L265.17 199.653C265.554 199.755 265.897 199.738 266.198 199.601C266.5 199.464 266.693 199.236 266.778 198.918C266.867 198.583 266.817 198.277 266.626 198C266.436 197.722 266.149 197.532 265.764 197.43L263.953 196.945L264.195 196.04ZM268.221 201.439L269.912 195.115L270.883 195.375L269.193 201.699L268.221 201.439ZM272.326 201.001L276.68 196.925L277.8 197.224L276.109 203.547L275.138 203.288L276.445 198.397L272.108 202.478L270.971 202.174L272.662 195.851L273.633 196.11L272.326 201.001ZM276.601 194.645L277.507 194.887C277.388 195.332 277.137 195.655 276.754 195.855C276.371 196.056 275.916 196.085 275.389 195.945C274.87 195.806 274.495 195.554 274.263 195.189C274.034 194.825 273.979 194.421 274.098 193.976L275.004 194.218C274.946 194.432 274.955 194.636 275.03 194.83C275.107 195.024 275.29 195.159 275.578 195.236C275.867 195.313 276.094 195.288 276.261 195.159C276.43 195.03 276.544 194.859 276.601 194.645ZM281.149 204.895L282.84 198.571L287.813 199.901L286.122 206.224L285.151 205.965L286.599 200.547L283.569 199.737L282.121 205.155L281.149 204.895ZM290.513 207.539C289.903 207.376 289.414 207.101 289.044 206.714C288.677 206.325 288.439 205.856 288.331 205.306C288.225 204.754 288.259 204.155 288.432 203.507C288.605 202.859 288.876 202.32 289.244 201.889C289.616 201.456 290.051 201.158 290.551 200.995C291.054 200.829 291.591 200.823 292.161 200.975C292.491 201.063 292.801 201.205 293.093 201.401C293.385 201.596 293.629 201.853 293.827 202.17C294.025 202.485 294.148 202.865 294.197 203.31C294.246 203.756 294.191 204.273 294.033 204.863L293.923 205.275L289.049 203.972L289.273 203.132L293.16 204.171C293.255 203.814 293.269 203.477 293.201 203.159C293.136 202.841 292.994 202.567 292.777 202.335C292.562 202.104 292.279 201.942 291.928 201.848C291.541 201.745 291.181 201.751 290.847 201.868C290.516 201.982 290.234 202.172 290.002 202.436C289.77 202.7 289.607 203.007 289.514 203.355L289.364 203.915C289.236 204.393 289.211 204.819 289.286 205.195C289.366 205.57 289.531 205.883 289.781 206.135C290.032 206.384 290.353 206.561 290.746 206.666C291.001 206.735 291.241 206.761 291.466 206.744C291.694 206.726 291.904 206.664 292.093 206.559C292.284 206.451 292.45 206.298 292.591 206.101L293.459 206.615C293.275 206.907 293.034 207.143 292.736 207.322C292.439 207.498 292.101 207.608 291.722 207.651C291.344 207.691 290.941 207.654 290.513 207.539ZM294.01 210.874L296.334 202.179L297.273 202.43L297.004 203.434L297.12 203.465C297.22 203.375 297.357 203.261 297.528 203.125C297.704 202.986 297.929 202.882 298.203 202.811C298.482 202.738 298.826 202.757 299.238 202.867C299.771 203.009 300.204 203.268 300.539 203.643C300.874 204.018 301.09 204.48 301.188 205.029C301.285 205.579 301.245 206.185 301.067 206.85C300.888 207.519 300.619 208.069 300.26 208.5C299.902 208.927 299.485 209.222 299.009 209.383C298.535 209.541 298.034 209.55 297.507 209.409C297.101 209.3 296.794 209.146 296.585 208.946C296.378 208.744 296.231 208.539 296.146 208.33C296.061 208.12 295.998 207.947 295.958 207.813L295.875 207.791L294.982 211.133L294.01 210.874ZM296.444 205.596C296.317 206.074 296.274 206.514 296.316 206.916C296.359 207.316 296.488 207.654 296.702 207.932C296.917 208.207 297.219 208.397 297.609 208.501C298.015 208.61 298.382 208.593 298.711 208.452C299.044 208.308 299.327 208.072 299.562 207.744C299.8 207.414 299.98 207.023 300.1 206.573C300.219 206.129 300.257 205.71 300.215 205.316C300.177 204.921 300.049 204.582 299.83 204.3C299.615 204.016 299.301 203.819 298.89 203.709C298.494 203.603 298.135 203.615 297.813 203.743C297.491 203.869 297.214 204.092 296.981 204.412C296.749 204.729 296.57 205.124 296.444 205.596ZM302.399 210.646C302.196 210.592 302.041 210.472 301.934 210.288C301.828 210.104 301.802 209.91 301.856 209.707C301.91 209.504 302.03 209.349 302.214 209.242C302.398 209.136 302.592 209.11 302.795 209.164C302.998 209.218 303.153 209.338 303.26 209.522C303.366 209.706 303.392 209.9 303.338 210.103C303.302 210.238 303.235 210.352 303.136 210.446C303.04 210.541 302.927 210.608 302.796 210.646C302.668 210.683 302.536 210.683 302.399 210.646Z" fill="#282828"/>
<path d="M207.774 410.513L208.655 414.692L208.719 414.716L212.07 412.066L213.24 412.49L209.176 415.66L210.272 420.697L209.102 420.274L208.198 416.158L208.134 416.135L204.806 418.72L203.636 418.297L207.765 415.15L206.604 410.09L207.774 410.513ZM210.603 423.426L213.663 414.963L214.577 415.293L214.223 416.271L214.336 416.311C214.444 416.23 214.589 416.128 214.772 416.007C214.958 415.884 215.192 415.799 215.471 415.752C215.755 415.704 216.097 415.752 216.498 415.897C217.016 416.084 217.426 416.379 217.728 416.781C218.029 417.183 218.205 417.662 218.255 418.218C218.305 418.774 218.213 419.375 217.979 420.021C217.743 420.673 217.428 421.198 217.033 421.596C216.64 421.992 216.199 422.249 215.712 422.369C215.225 422.486 214.725 422.452 214.213 422.266C213.817 422.123 213.524 421.944 213.334 421.727C213.144 421.507 213.016 421.29 212.948 421.075C212.882 420.858 212.834 420.681 212.806 420.543L212.725 420.514L211.549 423.768L210.603 423.426ZM213.48 418.377C213.312 418.841 213.232 419.276 213.24 419.681C213.248 420.083 213.348 420.431 213.537 420.726C213.727 421.019 214.012 421.233 214.391 421.37C214.787 421.513 215.154 421.529 215.494 421.416C215.838 421.301 216.141 421.091 216.403 420.784C216.668 420.475 216.88 420.101 217.039 419.663C217.195 419.23 217.27 418.816 217.262 418.421C217.257 418.023 217.158 417.675 216.964 417.375C216.774 417.074 216.479 416.851 216.078 416.706C215.693 416.567 215.335 416.547 215.003 416.648C214.671 416.745 214.376 416.944 214.117 417.243C213.859 417.539 213.646 417.917 213.48 418.377ZM217.868 426.053C217.708 425.996 217.57 425.93 217.454 425.858C217.337 425.789 217.259 425.733 217.22 425.692L217.762 424.945C217.97 425.087 218.165 425.182 218.348 425.23C218.53 425.278 218.714 425.255 218.902 425.163C219.091 425.074 219.3 424.894 219.528 424.623L219.878 424.206L219.839 417.196L220.865 417.567L220.79 423.086L220.854 423.109L224.327 418.819L225.353 419.19L220.19 425.298C219.957 425.573 219.717 425.784 219.468 425.929C219.218 426.078 218.959 426.161 218.693 426.179C218.429 426.199 218.154 426.157 217.868 426.053ZM226.609 426.749C226.032 426.54 225.585 426.224 225.267 425.801C224.948 425.378 224.763 424.887 224.712 424.327C224.66 423.768 224.746 423.181 224.968 422.567C225.194 421.941 225.508 421.431 225.911 421.036C226.317 420.639 226.776 420.381 227.288 420.261C227.803 420.139 228.339 420.179 228.895 420.379C229.327 420.536 229.688 420.757 229.978 421.043C230.267 421.329 230.47 421.656 230.588 422.025C230.705 422.394 230.721 422.78 230.636 423.184L229.69 422.842C229.719 422.535 229.649 422.229 229.478 421.923C229.312 421.615 229.02 421.386 228.603 421.235C228.235 421.102 227.877 421.081 227.529 421.173C227.185 421.263 226.873 421.454 226.593 421.745C226.316 422.034 226.093 422.412 225.925 422.877C225.753 423.352 225.678 423.793 225.701 424.2C225.725 424.608 225.84 424.959 226.045 425.253C226.252 425.549 226.543 425.764 226.917 425.899C227.162 425.988 227.401 426.026 227.632 426.013C227.864 426 228.078 425.939 228.275 425.829C228.471 425.719 228.64 425.562 228.78 425.359L229.726 425.701C229.541 426.045 229.29 426.324 228.974 426.539C228.661 426.752 228.301 426.882 227.895 426.928C227.492 426.973 227.064 426.913 226.609 426.749ZM231.881 422.547L232.2 421.665L237.201 423.474L236.882 424.355L234.862 423.625L232.956 428.899L232.01 428.557L233.917 423.283L231.881 422.547ZM237.794 430.812C237.404 430.67 237.077 430.469 236.812 430.207C236.548 429.943 236.374 429.636 236.288 429.288C236.203 428.937 236.234 428.561 236.378 428.161C236.506 427.808 236.679 427.547 236.897 427.378C237.116 427.207 237.365 427.1 237.642 427.059C237.92 427.017 238.211 427.017 238.513 427.057C238.82 427.095 239.123 427.147 239.422 427.213C239.813 427.3 240.13 427.374 240.371 427.434C240.615 427.492 240.802 427.51 240.931 427.487C241.063 427.465 241.157 427.378 241.212 427.226L241.223 427.194C241.366 426.798 241.369 426.452 241.232 426.155C241.097 425.858 240.812 425.631 240.377 425.474C239.925 425.311 239.536 425.281 239.208 425.386C238.88 425.491 238.623 425.637 238.438 425.824L237.656 425.179C237.952 424.863 238.271 424.649 238.613 424.537C238.959 424.424 239.306 424.383 239.654 424.415C240.006 424.445 240.336 424.517 240.646 424.629C240.844 424.7 241.062 424.806 241.302 424.947C241.544 425.086 241.76 425.272 241.948 425.503C242.139 425.735 242.262 426.026 242.317 426.375C242.372 426.724 242.311 427.143 242.134 427.632L240.668 431.687L239.722 431.345L240.023 430.512L239.975 430.494C239.863 430.605 239.704 430.709 239.5 430.807C239.295 430.906 239.049 430.963 238.762 430.98C238.475 430.997 238.152 430.941 237.794 430.812ZM238.246 430.014C238.62 430.149 238.962 430.19 239.271 430.136C239.584 430.082 239.847 429.963 240.062 429.778C240.28 429.594 240.435 429.374 240.528 429.117L240.841 428.252C240.783 428.285 240.679 428.297 240.528 428.288C240.381 428.277 240.214 428.255 240.027 428.22C239.844 428.184 239.666 428.147 239.492 428.108C239.323 428.068 239.185 428.036 239.078 428.013C238.821 427.956 238.572 427.925 238.332 427.92C238.096 427.913 237.887 427.957 237.705 428.051C237.527 428.144 237.394 428.31 237.307 428.551C237.188 428.879 237.22 429.172 237.402 429.428C237.588 429.683 237.869 429.878 238.246 430.014ZM241.849 432.114L242.168 431.233L242.392 431.314C242.577 431.381 242.743 431.4 242.892 431.372C243.042 431.342 243.188 431.248 243.329 431.091C243.474 430.932 243.627 430.694 243.787 430.377C243.95 430.059 244.135 429.645 244.34 429.136L245.437 426.452L249.541 427.936L247.315 434.091L246.369 433.749L248.276 428.475L246.016 427.658L245.126 429.819C244.922 430.316 244.716 430.745 244.507 431.104C244.302 431.462 244.083 431.746 243.851 431.955C243.621 432.165 243.369 432.294 243.094 432.343C242.82 432.391 242.512 432.354 242.17 432.23L241.849 432.114ZM251.288 431.087L253.051 431.724C253.773 431.985 254.258 432.368 254.508 432.872C254.757 433.376 254.781 433.909 254.578 434.47C254.445 434.838 254.238 435.143 253.958 435.383C253.679 435.62 253.341 435.768 252.945 435.828C252.55 435.884 252.112 435.825 251.631 435.652L249.05 434.718L251.276 428.563L252.222 428.905L250.315 434.179L251.95 434.77C252.324 434.905 252.667 434.917 252.979 434.807C253.291 434.696 253.503 434.486 253.615 434.176C253.733 433.85 253.709 433.54 253.543 433.248C253.377 432.955 253.106 432.741 252.732 432.606L250.969 431.968L251.288 431.087ZM260.688 434.957L260.369 435.839L256.971 434.61L257.29 433.728L260.688 434.957ZM258.47 431.164L256.245 437.32L255.299 436.978L257.525 430.822L258.47 431.164ZM262.366 432.573L260.14 438.728L259.194 438.386L261.42 432.231L262.366 432.573ZM264.105 435.721L265.868 436.359C266.589 436.62 267.075 437.002 267.325 437.506C267.574 438.01 267.598 438.543 267.395 439.104C267.261 439.473 267.055 439.777 266.775 440.017C266.495 440.255 266.158 440.403 265.762 440.462C265.367 440.519 264.929 440.46 264.448 440.286L261.867 439.353L264.093 433.197L265.039 433.539L263.132 438.813L264.767 439.404C265.141 439.54 265.484 439.552 265.796 439.441C266.108 439.33 266.32 439.12 266.432 438.81C266.549 438.484 266.525 438.175 266.359 437.882C266.193 437.59 265.923 437.376 265.549 437.24L263.786 436.603L264.105 435.721ZM267.654 441.445L269.88 435.29L270.825 435.632L268.6 441.787L267.654 441.445ZM271.781 441.361L276.468 437.672L277.558 438.066L275.332 444.222L274.386 443.88L276.108 439.119L271.437 442.813L270.331 442.413L272.557 436.258L273.502 436.6L271.781 441.361ZM276.585 435.394L277.466 435.713C277.31 436.146 277.032 436.446 276.633 436.613C276.235 436.78 275.779 436.77 275.266 436.585C274.761 436.402 274.409 436.119 274.209 435.736C274.012 435.354 273.992 434.946 274.148 434.513L275.03 434.832C274.954 435.04 274.946 435.244 275.003 435.443C275.064 435.643 275.235 435.794 275.515 435.896C275.796 435.997 276.024 435.991 276.202 435.877C276.382 435.763 276.509 435.603 276.585 435.394ZM280.238 445.996L282.464 439.84L287.305 441.591L285.079 447.746L284.133 447.404L286.04 442.13L283.091 441.064L281.184 446.338L280.238 445.996ZM289.341 449.432C288.748 449.218 288.283 448.902 287.948 448.484C287.616 448.065 287.42 447.577 287.358 447.02C287.3 446.462 287.385 445.867 287.613 445.237C287.841 444.606 288.157 444.092 288.561 443.694C288.968 443.295 289.428 443.035 289.939 442.915C290.455 442.793 290.99 442.832 291.546 443.033C291.866 443.149 292.164 443.317 292.438 443.537C292.711 443.757 292.933 444.034 293.103 444.367C293.273 444.697 293.364 445.086 293.374 445.534C293.384 445.982 293.285 446.493 293.078 447.067L292.933 447.468L288.188 445.753L288.484 444.935L292.267 446.303C292.392 445.956 292.435 445.621 292.394 445.298C292.357 444.976 292.239 444.691 292.043 444.441C291.849 444.193 291.58 444.007 291.239 443.883C290.862 443.747 290.502 443.722 290.159 443.81C289.82 443.896 289.523 444.06 289.269 444.304C289.015 444.547 288.827 444.839 288.704 445.178L288.507 445.723C288.339 446.188 288.276 446.611 288.32 446.992C288.367 447.372 288.504 447.698 288.732 447.97C288.961 448.24 289.266 448.444 289.648 448.582C289.896 448.672 290.133 448.719 290.359 448.722C290.588 448.723 290.802 448.679 291 448.591C291.199 448.5 291.377 448.362 291.535 448.177L292.356 448.764C292.147 449.039 291.887 449.253 291.575 449.406C291.264 449.556 290.918 449.637 290.536 449.647C290.156 449.654 289.758 449.583 289.341 449.432ZM292.54 453.054L295.6 444.59L296.514 444.921L296.16 445.898L296.273 445.939C296.381 445.857 296.526 445.756 296.709 445.634C296.895 445.512 297.128 445.427 297.408 445.38C297.692 445.331 298.034 445.379 298.434 445.524C298.953 445.712 299.363 446.006 299.664 446.409C299.966 446.811 300.142 447.29 300.192 447.845C300.241 448.401 300.149 449.002 299.916 449.649C299.68 450.301 299.365 450.826 298.97 451.224C298.576 451.619 298.136 451.877 297.649 451.996C297.162 452.114 296.662 452.079 296.149 451.894C295.754 451.751 295.461 451.571 295.271 451.354C295.081 451.135 294.953 450.917 294.885 450.703C294.819 450.485 294.771 450.308 294.742 450.171L294.662 450.142L293.486 453.396L292.54 453.054ZM295.417 448.004C295.249 448.469 295.169 448.904 295.177 449.308C295.185 449.71 295.284 450.059 295.474 450.354C295.664 450.646 295.949 450.861 296.328 450.998C296.724 451.141 297.091 451.156 297.431 451.043C297.775 450.929 298.077 450.718 298.34 450.411C298.605 450.102 298.817 449.729 298.976 449.291C299.132 448.858 299.206 448.444 299.199 448.048C299.194 447.651 299.095 447.302 298.901 447.003C298.711 446.701 298.416 446.478 298.015 446.333C297.63 446.194 297.272 446.175 296.939 446.275C296.608 446.373 296.313 446.571 296.054 446.87C295.795 447.167 295.583 447.544 295.417 448.004ZM300.917 453.545C300.72 453.474 300.576 453.342 300.485 453.149C300.395 452.956 300.385 452.761 300.457 452.563C300.528 452.366 300.661 452.222 300.853 452.131C301.046 452.041 301.241 452.031 301.439 452.103C301.637 452.174 301.781 452.306 301.871 452.499C301.962 452.692 301.971 452.887 301.9 453.085C301.852 453.216 301.775 453.324 301.669 453.409C301.565 453.496 301.447 453.553 301.313 453.58C301.183 453.605 301.051 453.594 300.917 453.545Z" fill="#282828"/>
<path d="M470.033 473.399L462.331 469.296L463.765 466.603C464.051 466.066 464.379 465.673 464.751 465.424C465.119 465.173 465.504 465.045 465.906 465.04C466.305 465.034 466.693 465.131 467.069 465.331C467.4 465.507 467.642 465.712 467.795 465.944C467.949 466.175 468.038 466.418 468.062 466.676C468.087 466.931 468.071 467.184 468.014 467.437L468.089 467.477C468.23 467.249 468.439 467.057 468.716 466.898C468.993 466.74 469.315 466.656 469.681 466.645C470.048 466.634 470.434 466.737 470.84 466.953C471.226 467.159 471.527 467.432 471.742 467.771C471.957 468.111 472.054 468.519 472.032 468.993C472.011 469.468 471.839 470.009 471.516 470.616L470.033 473.399ZM469.703 472.025L470.688 470.175C471.013 469.566 471.125 469.07 471.026 468.689C470.925 468.304 470.706 468.021 470.367 467.841C470.107 467.702 469.83 467.64 469.539 467.656C469.245 467.67 468.966 467.764 468.702 467.939C468.436 468.113 468.214 468.367 468.035 468.703L467.025 470.599L469.703 472.025ZM466.212 470.166L467.134 468.436C467.284 468.155 467.363 467.873 467.373 467.588C467.384 467.301 467.325 467.038 467.195 466.798C467.067 466.556 466.867 466.363 466.596 466.219C466.258 466.038 465.908 466.003 465.547 466.113C465.183 466.222 464.865 466.532 464.592 467.044L463.655 468.804L466.212 470.166ZM474.679 465.003C474.484 465.369 474.238 465.664 473.942 465.889C473.642 466.113 473.314 466.242 472.957 466.278C472.598 466.312 472.23 466.228 471.854 466.028C471.523 465.852 471.29 465.644 471.154 465.404C471.015 465.163 470.945 464.901 470.943 464.621C470.941 464.34 470.982 464.052 471.065 463.758C471.146 463.46 471.241 463.168 471.348 462.881C471.49 462.506 471.608 462.203 471.702 461.973C471.794 461.739 471.838 461.557 471.834 461.426C471.831 461.292 471.758 461.187 471.615 461.111L471.585 461.095C471.214 460.897 470.871 460.845 470.558 460.939C470.245 461.03 469.98 461.28 469.762 461.689C469.537 462.112 469.453 462.494 469.51 462.834C469.567 463.173 469.675 463.448 469.834 463.658L469.084 464.34C468.813 464.003 468.647 463.656 468.585 463.302C468.521 462.943 468.53 462.594 468.612 462.254C468.692 461.91 468.809 461.593 468.964 461.302C469.063 461.116 469.199 460.915 469.372 460.699C469.545 460.478 469.758 460.291 470.014 460.138C470.271 459.982 470.576 459.901 470.93 459.896C471.283 459.891 471.689 460.011 472.148 460.256L475.954 462.283L475.481 463.171L474.699 462.754L474.675 462.799C474.768 462.926 474.849 463.098 474.917 463.314C474.985 463.531 475.008 463.782 474.984 464.069C474.96 464.356 474.858 464.667 474.679 465.003ZM473.954 464.443C474.141 464.092 474.23 463.759 474.22 463.445C474.212 463.128 474.131 462.85 473.978 462.611C473.827 462.37 473.631 462.185 473.39 462.057L472.578 461.624C472.603 461.686 472.6 461.79 472.57 461.938C472.538 462.082 472.492 462.245 472.431 462.425C472.37 462.601 472.307 462.772 472.245 462.938C472.181 463.101 472.13 463.233 472.092 463.335C471.999 463.582 471.933 463.823 471.894 464.06C471.853 464.293 471.867 464.506 471.934 464.7C472.001 464.889 472.147 465.044 472.372 465.165C472.681 465.329 472.975 465.339 473.254 465.195C473.532 465.047 473.766 464.796 473.954 464.443ZM478.984 461.817L471.04 457.586L471.497 456.728L472.415 457.217L472.471 457.112C472.405 456.993 472.325 456.835 472.231 456.637C472.136 456.435 472.085 456.192 472.079 455.908C472.071 455.621 472.167 455.289 472.367 454.913C472.626 454.426 472.976 454.062 473.417 453.821C473.858 453.579 474.357 453.473 474.914 453.503C475.472 453.533 476.053 453.709 476.66 454.032C477.272 454.358 477.747 454.745 478.085 455.192C478.42 455.638 478.613 456.11 478.662 456.61C478.709 457.108 478.604 457.598 478.348 458.079C478.15 458.45 477.931 458.715 477.689 458.872C477.445 459.029 477.211 459.125 476.989 459.161C476.765 459.196 476.582 459.218 476.442 459.227L476.402 459.302L479.456 460.929L478.984 461.817ZM474.393 458.252C474.83 458.484 475.249 458.625 475.65 458.675C476.049 458.723 476.408 458.675 476.727 458.529C477.044 458.382 477.297 458.131 477.486 457.775C477.684 457.404 477.751 457.042 477.688 456.69C477.623 456.333 477.458 456.004 477.191 455.701C476.923 455.394 476.584 455.131 476.172 454.912C475.766 454.695 475.367 454.563 474.974 454.515C474.58 454.463 474.221 454.511 473.897 454.661C473.572 454.806 473.309 455.067 473.109 455.443C472.916 455.804 472.846 456.156 472.898 456.499C472.948 456.841 473.102 457.162 473.362 457.461C473.618 457.758 473.962 458.022 474.393 458.252ZM480.255 454.209L474.478 451.132L475.736 448.77C476.067 448.148 476.471 447.729 476.947 447.512C477.422 447.296 477.891 447.31 478.352 447.556C478.703 447.743 478.92 447.992 479.002 448.303C479.082 448.613 479.069 448.948 478.963 449.31C479.107 449.113 479.292 448.947 479.519 448.81C479.748 448.671 480.003 448.591 480.284 448.571C480.563 448.548 480.854 448.618 481.157 448.78C481.453 448.937 481.678 449.154 481.831 449.428C481.984 449.703 482.053 450.017 482.039 450.37C482.025 450.723 481.914 451.095 481.705 451.486L480.255 454.209ZM479.891 452.934L480.893 451.053C481.056 450.747 481.111 450.469 481.057 450.218C481.004 449.968 480.852 449.776 480.601 449.642C480.303 449.484 480.023 449.445 479.76 449.527C479.495 449.608 479.281 449.802 479.118 450.107L478.116 451.988L479.891 452.934ZM477.349 451.579L478.158 450.06C478.285 449.822 478.361 449.6 478.387 449.395C478.41 449.188 478.384 449.007 478.309 448.851C478.233 448.692 478.11 448.567 477.94 448.476C477.697 448.346 477.452 448.346 477.206 448.476C476.957 448.604 476.738 448.846 476.548 449.202L475.739 450.722L477.349 451.579ZM484.464 446.634C484.269 447 484.023 447.295 483.726 447.52C483.427 447.744 483.099 447.873 482.742 447.908C482.382 447.942 482.015 447.859 481.639 447.659C481.308 447.483 481.074 447.275 480.938 447.035C480.799 446.793 480.729 446.532 480.727 446.251C480.726 445.97 480.766 445.683 480.849 445.389C480.93 445.091 481.025 444.799 481.133 444.512C481.274 444.137 481.392 443.834 481.486 443.604C481.578 443.37 481.622 443.187 481.618 443.056C481.615 442.923 481.542 442.818 481.399 442.742L481.369 442.726C480.998 442.528 480.656 442.476 480.342 442.57C480.03 442.661 479.764 442.911 479.547 443.319C479.321 443.743 479.237 444.125 479.294 444.464C479.352 444.804 479.459 445.079 479.618 445.289L478.868 445.971C478.597 445.633 478.431 445.287 478.369 444.932C478.306 444.574 478.315 444.224 478.396 443.885C478.476 443.541 478.594 443.224 478.748 442.933C478.847 442.747 478.983 442.546 479.157 442.33C479.329 442.109 479.543 441.922 479.798 441.768C480.055 441.612 480.36 441.532 480.714 441.527C481.067 441.522 481.474 441.642 481.932 441.886L485.739 443.914L485.266 444.801L484.484 444.385L484.459 444.43C484.553 444.557 484.634 444.729 484.702 444.945C484.77 445.162 484.792 445.413 484.768 445.7C484.744 445.986 484.643 446.298 484.464 446.634ZM483.738 446.074C483.925 445.723 484.014 445.39 484.004 445.076C483.996 444.759 483.915 444.481 483.763 444.242C483.611 444.001 483.415 443.816 483.175 443.688L482.362 443.255C482.387 443.316 482.385 443.421 482.354 443.569C482.322 443.713 482.276 443.875 482.216 444.056C482.154 444.232 482.092 444.403 482.029 444.569C481.965 444.732 481.914 444.864 481.876 444.966C481.783 445.212 481.717 445.454 481.678 445.691C481.638 445.923 481.651 446.137 481.719 446.33C481.785 446.52 481.931 446.675 482.157 446.795C482.465 446.96 482.759 446.97 483.038 446.826C483.317 446.678 483.55 446.427 483.738 446.074ZM488.768 443.448L480.825 439.217L481.281 438.359L482.199 438.848L482.255 438.743C482.189 438.624 482.11 438.466 482.016 438.267C481.92 438.065 481.87 437.823 481.863 437.539C481.855 437.252 481.951 436.92 482.152 436.544C482.411 436.057 482.761 435.693 483.202 435.452C483.642 435.21 484.142 435.104 484.699 435.134C485.256 435.163 485.838 435.34 486.445 435.663C487.056 435.989 487.531 436.375 487.869 436.823C488.205 437.268 488.397 437.741 488.447 438.241C488.493 438.739 488.389 439.229 488.132 439.71C487.935 440.081 487.715 440.345 487.473 440.503C487.229 440.66 486.996 440.756 486.774 440.792C486.549 440.827 486.367 440.849 486.227 440.858L486.187 440.933L489.241 442.56L488.768 443.448ZM484.178 439.883C484.614 440.115 485.033 440.256 485.435 440.306C485.834 440.354 486.193 440.306 486.512 440.16C486.828 440.013 487.081 439.762 487.271 439.406C487.468 439.035 487.536 438.673 487.472 438.32C487.408 437.964 487.242 437.634 486.975 437.331C486.708 437.025 486.368 436.762 485.957 436.543C485.551 436.326 485.151 436.194 484.758 436.146C484.364 436.094 484.005 436.142 483.681 436.291C483.356 436.437 483.093 436.698 482.893 437.074C482.701 437.435 482.63 437.787 482.683 438.13C482.732 438.472 482.887 438.792 483.146 439.091C483.403 439.389 483.747 439.653 484.178 439.883ZM490.039 435.84L484.262 432.762L484.735 431.875L487.247 433.213L487.56 432.626L486.153 429.212L486.762 428.069L488.304 431.883L492.555 431.116L491.946 432.259L488.5 432.856L488.075 433.654L490.512 434.952L490.039 435.84ZM494.11 428.523C493.915 428.889 493.669 429.185 493.373 429.41C493.073 429.633 492.745 429.763 492.388 429.798C492.029 429.832 491.661 429.749 491.285 429.548C490.954 429.372 490.721 429.164 490.585 428.924C490.446 428.683 490.376 428.422 490.374 428.141C490.372 427.86 490.413 427.572 490.495 427.278C490.577 426.981 490.671 426.688 490.779 426.401C490.921 426.026 491.039 425.723 491.132 425.493C491.225 425.259 491.269 425.077 491.265 424.946C491.262 424.812 491.189 424.707 491.046 424.631L491.016 424.615C490.645 424.418 490.302 424.366 489.989 424.459C489.676 424.55 489.411 424.8 489.193 425.209C488.968 425.633 488.883 426.014 488.941 426.354C488.998 426.693 489.106 426.968 489.265 427.178L488.515 427.86C488.244 427.523 488.078 427.177 488.016 426.822C487.952 426.463 487.961 426.114 488.043 425.774C488.123 425.43 488.24 425.113 488.395 424.822C488.494 424.637 488.63 424.436 488.803 424.219C488.975 423.998 489.189 423.811 489.445 423.658C489.702 423.502 490.007 423.421 490.361 423.416C490.714 423.412 491.12 423.531 491.579 423.776L495.385 425.803L494.912 426.691L494.13 426.274L494.106 426.319C494.199 426.446 494.28 426.618 494.348 426.834C494.416 427.051 494.438 427.303 494.415 427.589C494.391 427.876 494.289 428.187 494.11 428.523ZM493.385 427.963C493.572 427.612 493.661 427.279 493.651 426.965C493.643 426.648 493.562 426.371 493.409 426.132C493.258 425.89 493.062 425.705 492.821 425.577L492.009 425.144C492.034 425.206 492.031 425.311 492.001 425.459C491.969 425.603 491.923 425.765 491.862 425.945C491.801 426.121 491.738 426.292 491.676 426.459C491.612 426.621 491.561 426.753 491.522 426.855C491.43 427.102 491.364 427.343 491.325 427.58C491.284 427.813 491.298 428.026 491.365 428.22C491.432 428.41 491.578 428.565 491.803 428.685C492.112 428.849 492.406 428.859 492.685 428.715C492.963 428.567 493.197 428.317 493.385 427.963Z" fill="#282828"/>
<path d="M96.4426 310.262L96.7123 309.257L103.347 311.039L103.369 310.957L97.9723 304.566L98.2376 303.578L106.666 305.841L106.392 306.862L99.7743 305.085L99.7522 305.167L105.137 311.537L104.871 312.525L96.4426 310.262ZM107.029 304.491L106.124 304.247L106.185 304.017C106.236 303.828 106.242 303.66 106.201 303.514C106.159 303.367 106.053 303.23 105.884 303.102C105.713 302.971 105.463 302.839 105.134 302.707C104.803 302.571 104.375 302.422 103.851 302.26L101.083 301.394L102.215 297.179L108.537 298.877L108.276 299.848L102.86 298.394L102.236 300.715L104.465 301.419C104.978 301.581 105.422 301.75 105.798 301.927C106.172 302.101 106.473 302.295 106.701 302.509C106.929 302.721 107.079 302.961 107.151 303.231C107.223 303.5 107.212 303.81 107.117 304.161L107.029 304.491ZM105.207 295.172L105.694 293.361C105.893 292.621 106.233 292.105 106.714 291.813C107.195 291.522 107.724 291.453 108.3 291.608C108.679 291.71 109 291.89 109.262 292.149C109.523 292.407 109.699 292.731 109.791 293.12C109.881 293.509 109.86 293.951 109.727 294.445L109.015 297.095L102.694 295.397L102.955 294.426L108.371 295.881L108.822 294.201C108.925 293.817 108.908 293.474 108.771 293.173C108.634 292.872 108.407 292.678 108.089 292.593C107.754 292.503 107.448 292.553 107.17 292.743C106.893 292.933 106.702 293.22 106.599 293.605L106.113 295.415L105.207 295.172ZM109.567 289.322L105.496 284.963L105.796 283.844L112.118 285.542L111.857 286.513L106.968 285.2L111.044 289.542L110.739 290.678L104.417 288.98L104.678 288.009L109.567 289.322ZM110.127 278.564L111.032 278.807L110.095 282.297L109.189 282.054L110.127 278.564ZM106.535 281.094L112.857 282.791L112.596 283.763L106.274 282.065L106.535 281.094ZM107.609 277.093L113.931 278.791L113.67 279.762L107.349 278.065L107.609 277.093ZM114.407 277.017L108.086 275.32L108.347 274.348L111.096 275.087L111.268 274.445L109.129 271.435L109.465 270.183L111.825 273.553L115.795 271.848L115.459 273.099L112.235 274.457L112.001 275.33L114.668 276.046L114.407 277.017ZM116.727 268.972C116.619 269.373 116.446 269.716 116.207 270.002C115.966 270.287 115.676 270.487 115.336 270.602C114.993 270.716 114.617 270.718 114.205 270.607C113.843 270.51 113.568 270.36 113.382 270.156C113.192 269.953 113.065 269.714 113 269.441C112.935 269.167 112.91 268.878 112.924 268.573C112.937 268.265 112.963 267.958 113.003 267.655C113.057 267.257 113.104 266.936 113.143 266.691C113.181 266.442 113.183 266.254 113.149 266.127C113.116 265.998 113.021 265.912 112.865 265.87L112.832 265.861C112.426 265.752 112.081 265.779 111.796 265.94C111.512 266.099 111.31 266.403 111.19 266.85C111.065 267.314 111.069 267.704 111.202 268.022C111.334 268.34 111.501 268.584 111.703 268.752L111.126 269.586C110.786 269.318 110.546 269.018 110.405 268.686C110.263 268.351 110.193 268.009 110.196 267.659C110.197 267.307 110.24 266.971 110.325 266.653C110.38 266.45 110.467 266.223 110.587 265.973C110.705 265.72 110.871 265.489 111.086 265.282C111.301 265.072 111.58 264.925 111.924 264.841C112.267 264.756 112.69 264.782 113.192 264.917L117.357 266.035L117.096 267.006L116.24 266.776L116.226 266.826C116.346 266.928 116.463 267.078 116.578 267.273C116.694 267.469 116.772 267.709 116.813 267.994C116.854 268.278 116.825 268.605 116.727 268.972ZM115.894 268.59C115.997 268.206 116.009 267.862 115.928 267.558C115.849 267.251 115.708 266.998 115.505 266.8C115.304 266.599 115.071 266.463 114.808 266.392L113.919 266.153C113.957 266.207 113.978 266.31 113.981 266.461C113.983 266.609 113.975 266.777 113.956 266.966C113.936 267.152 113.914 267.333 113.89 267.509C113.864 267.681 113.844 267.821 113.83 267.929C113.795 268.191 113.785 268.441 113.8 268.68C113.813 268.916 113.875 269.121 113.984 269.295C114.091 269.465 114.268 269.583 114.515 269.649C114.853 269.74 115.141 269.683 115.381 269.48C115.619 269.273 115.79 268.977 115.894 268.59ZM121.247 261.014C121.202 261.178 121.149 261.322 121.087 261.443C121.028 261.565 120.979 261.648 120.941 261.691L120.152 261.214C120.275 260.994 120.353 260.792 120.385 260.606C120.418 260.421 120.38 260.238 120.272 260.059C120.168 259.878 119.971 259.686 119.681 259.482L119.236 259.168L112.254 259.799L112.537 258.745L118.043 258.353L118.061 258.287L113.492 255.19L113.775 254.136L120.298 258.765C120.592 258.973 120.822 259.195 120.988 259.431C121.157 259.667 121.262 259.918 121.302 260.182C121.344 260.443 121.325 260.72 121.247 261.014ZM120.147 255.643L119.242 255.4L119.304 255.17C119.355 254.98 119.36 254.813 119.32 254.667C119.277 254.52 119.171 254.382 119.002 254.255C118.832 254.124 118.582 253.992 118.253 253.859C117.921 253.723 117.494 253.575 116.969 253.413L114.202 252.546L115.334 248.332L121.655 250.03L121.394 251.001L115.978 249.546L115.355 251.868L117.583 252.572C118.096 252.733 118.54 252.903 118.916 253.08C119.29 253.254 119.591 253.448 119.819 253.662C120.048 253.874 120.198 254.114 120.27 254.383C120.341 254.653 120.33 254.963 120.236 255.314L120.147 255.643ZM122.389 247.558C122.335 247.761 122.215 247.915 122.031 248.022C121.847 248.128 121.653 248.154 121.45 248.099C121.247 248.045 121.092 247.925 120.986 247.741C120.879 247.556 120.853 247.363 120.908 247.16C120.962 246.957 121.082 246.802 121.266 246.696C121.451 246.589 121.645 246.563 121.848 246.618C121.982 246.654 122.096 246.721 122.19 246.82C122.285 246.916 122.352 247.03 122.39 247.161C122.427 247.288 122.426 247.42 122.389 247.558Z" fill="#282828"/>
<path d="M384.512 648.929C418.239 631.74 469.203 618.955 489.149 580.836C493.29 572.922 498.458 566.816 506.752 559.498M528.061 553.142C518.742 554.12 514.518 552.645 506.752 559.498M528.061 553.142C549.867 522.268 556.75 509.516 621.979 441.484L632.621 430.55M528.061 553.142L510.69 614.612M506.752 559.498L455.634 530.336M725.438 335.186L632.621 430.55M725.438 335.186L738.864 335.186M725.438 335.186C707.123 336.468 696.345 337.058 680.985 325.279M614.267 264.867C641.331 293.01 654.753 304.583 677.715 322.643C678.83 323.584 679.918 324.461 680.985 325.279M502.157 659.954C497.401 650.821 494.065 646.42 510.69 614.612M510.69 614.612C542.441 600.49 562.088 598.191 598.596 598.724M632.621 430.55L694.569 470.096M694.569 470.096C692.233 494.544 689.354 508.177 661.457 531.442M694.569 470.096C675.766 490.489 665.349 502.012 661.457 531.442M661.457 531.442C655.53 545.053 653.679 553.094 651.787 567.936M651.787 567.936C627.783 579.423 613.957 585.799 598.596 598.724M651.787 567.936C658.966 579.453 662.631 585.906 675.461 597.498M598.596 598.724C577.982 628.09 563.923 644.818 558.781 672.554M675.461 597.498L677.767 612.969M675.461 597.498C726.755 606.898 776.179 568.71 752.937 514.49M677.767 612.969C659.014 642.17 647.884 659.321 625.653 691.548M677.767 612.969L708.205 655.552M708.205 655.552L734.032 683.277M708.205 655.552C674.807 680.999 663.962 693.642 643.455 716.432M734.032 683.277L739.259 684.349L774.463 712.533M734.032 683.277C721.58 686.034 708.621 684.79 700.98 687.566M734.032 683.277C748.717 675.763 755.543 670.608 761.426 657.373C766.284 646.443 777.754 633.436 811.329 610.127L819.359 605.364M700.98 687.566C677.152 697.828 662.682 714.629 647.175 739.951L729.112 742.402M700.98 687.566C707.965 707.239 716.66 719.732 729.112 742.402M729.112 742.402L735.569 754.503M819.359 605.364L809.608 591.456L798.136 579.264L775.575 529.921M819.359 605.364C835.769 622.506 820.501 634.844 834.281 645.818M819.359 605.364L840.908 583.157M775.575 529.921L787.238 520.205M775.575 529.921L752.937 514.49M787.238 520.205L788.576 514.49L782.84 508.393M787.238 520.205L812.456 530.298M782.84 508.393L740.585 493.343M782.84 508.393C830.236 486.791 837.223 473.579 854.294 450.273M740.585 493.343C733.347 482.696 729.131 476.755 713.243 467.624C706.449 463.745 706.889 459.298 711.331 449.525L737.526 372.94M740.585 493.343C745.945 500.604 750.015 507.673 752.937 514.49M737.526 372.94L734.658 371.797M737.526 372.94L763.147 341.505M763.147 341.505L761.043 320.549M763.147 341.505C783.562 346.934 793.756 344.66 819.551 372.94C830.901 390.342 835.409 399.533 837.141 414.09M761.043 320.549L752.057 323.788M761.043 320.549L768.265 275.986M837.141 414.09C864.177 406.688 881.544 398.767 890.419 422.649M837.141 414.09L854.294 450.273M890.419 422.649L895.124 433.698M890.419 422.649L854.294 450.273M890.419 422.649C901.832 420.768 905.792 418.591 918.497 411.213M854.294 450.273L870.088 482.752M870.088 482.752L895.124 433.698M870.088 482.752L846.565 544.026L864.189 552.437M895.124 433.698C895.262 446.571 898.139 451.405 902.349 460.82C904.871 474.945 898.49 478.847 890.587 487.607C882.089 499.316 879.568 510.381 875.801 531.47C872.575 542.913 869.882 547.205 864.189 552.437M895.124 433.698L917.834 479.813M910.414 574.496L871.303 555.832M864.189 552.437L871.303 555.832M864.189 552.437C847.723 566.012 843.125 572.614 840.908 583.157M948.387 541.85L917.834 479.813M871.303 555.832C885.134 539.878 893.321 529.486 917.834 479.813M871.303 555.832C864.012 565.966 858.046 571.641 850.116 577.186M917.834 479.813L931.921 453.286M931.921 453.286L956.024 421.562M931.921 453.286C946.944 460.967 955.632 465.269 975.943 472.874M975.943 472.874L984.512 465.843M975.943 472.874L983 512.217M840.908 583.157C844.313 581.059 847.335 579.131 850.116 577.186M850.116 577.186C860.518 586.257 888.919 580.597 895.005 588.548M768.265 275.986C757.881 257.191 749.417 246.195 717.983 223.707M768.265 275.986L790.04 252.424C791.13 250.733 791.602 249.659 789.258 244.917C783.89 238.266 788.475 230.684 798.357 233.316C800.76 234.205 803.076 235.054 805.323 235.856M717.983 223.707L712.791 181.503M717.983 223.707L709.76 254.72C713.871 259.888 713.179 263.648 708.601 271.53L680.985 325.279M877.955 235.856C846.271 247.855 829.922 244.641 805.323 235.856M805.323 235.856L817.168 223.152" stroke="#5A741E"/>
<path fill-rule="evenodd" clip-rule="evenodd" d="M297.048 386.521L315.118 393.981L312.064 402.902L357.34 417.907L369.08 412.384L379.864 415.594L380.036 425.355L404.535 430.14C411.363 431.856 414.108 430.778 417.039 425.976L435.748 396.007L427.818 386.789L459.447 334.155L473.878 334.398C473.878 334.398 475.903 331.74 478.141 324.375C480.379 317.01 471.72 316.864 471.72 316.864L328.101 287.437L327.954 287.11L209.896 253.96C201.065 252.067 196.913 253.924 191.99 265.023L170.093 326.339C167.798 334.417 171.594 337.444 180.79 340.804L297.153 386.261L297.048 386.521ZM281.668 411.598L281.467 412.028L386.657 454.17C413.047 465.335 429.069 457.98 442.339 432.947L507.015 327.293C517.989 310.799 506.429 293.926 479.615 288.473L316.578 257.148L202.363 225.783C185.643 220.763 171.798 225.269 164.135 244.751L140.302 314.801C132.352 337.718 134.685 351.717 149.098 359.751L281.668 411.598Z" fill="#214788"/>
<path d="M268.904 317.134L268.614 318.107L264.243 316.804L261.832 324.891L260.735 324.564L263.436 315.503L268.904 317.134ZM269.367 327.292C268.754 327.109 268.259 326.802 267.883 326.372C267.51 325.943 267.272 325.427 267.169 324.825C267.069 324.223 267.123 323.572 267.333 322.87C267.544 322.162 267.856 321.582 268.27 321.131C268.687 320.68 269.169 320.378 269.716 320.223C270.266 320.069 270.848 320.083 271.462 320.266C272.075 320.449 272.568 320.755 272.941 321.184C273.317 321.614 273.555 322.132 273.654 322.736C273.756 323.341 273.702 323.998 273.491 324.706C273.282 325.408 272.969 325.983 272.553 326.43C272.14 326.879 271.658 327.18 271.108 327.334C270.561 327.489 269.981 327.475 269.367 327.292ZM269.647 326.354C270.113 326.493 270.532 326.488 270.904 326.338C271.276 326.189 271.592 325.941 271.853 325.595C272.113 325.249 272.311 324.849 272.447 324.395C272.582 323.94 272.636 323.496 272.609 323.06C272.581 322.625 272.453 322.241 272.224 321.91C271.995 321.578 271.648 321.343 271.182 321.204C270.716 321.065 270.297 321.072 269.924 321.224C269.551 321.376 269.234 321.627 268.972 321.976C268.711 322.325 268.512 322.727 268.377 323.181C268.241 323.635 268.188 324.079 268.216 324.511C268.245 324.943 268.374 325.324 268.603 325.652C268.833 325.981 269.181 326.215 269.647 326.354ZM276.676 329.471C276.039 329.281 275.535 328.967 275.165 328.529C274.794 328.091 274.564 327.571 274.474 326.969C274.383 326.367 274.439 325.727 274.642 325.049C274.847 324.359 275.156 323.787 275.567 323.335C275.982 322.881 276.462 322.573 277.008 322.411C277.558 322.247 278.139 322.257 278.753 322.44C279.231 322.582 279.635 322.799 279.966 323.091C280.296 323.382 280.537 323.723 280.686 324.115C280.836 324.506 280.877 324.923 280.81 325.365L279.766 325.054C279.778 324.721 279.683 324.394 279.48 324.073C279.281 323.75 278.951 323.52 278.491 323.383C278.084 323.262 277.695 323.262 277.325 323.383C276.959 323.501 276.633 323.727 276.348 324.059C276.066 324.39 275.849 324.812 275.696 325.325C275.54 325.85 275.486 326.331 275.535 326.77C275.587 327.209 275.733 327.582 275.973 327.888C276.215 328.195 276.543 328.41 276.956 328.533C277.227 328.614 277.487 328.64 277.737 328.611C277.986 328.583 278.214 328.503 278.42 328.372C278.626 328.241 278.799 328.061 278.937 327.833L279.981 328.144C279.803 328.527 279.549 328.845 279.22 329.097C278.895 329.347 278.514 329.51 278.078 329.585C277.645 329.658 277.177 329.62 276.676 329.471ZM281.993 324.562L282.283 323.589L287.804 325.235L287.514 326.208L285.284 325.543L283.548 331.365L282.504 331.054L284.24 325.232L281.993 324.562ZM288.68 331.219L293.52 326.939L294.724 327.298L292.698 334.093L291.654 333.782L293.221 328.526L288.397 332.811L287.176 332.447L289.202 325.652L290.246 325.963L288.68 331.219ZM300.189 332.107L299.899 333.08L296.147 331.961L296.437 330.988L300.189 332.107ZM297.555 328.142L295.529 334.937L294.485 334.626L296.511 327.831L297.555 328.142ZM301.856 329.424L299.83 336.219L298.786 335.908L300.811 329.113L301.856 329.424ZM303.807 332.684L305.753 333.265C306.55 333.502 307.099 333.886 307.4 334.415C307.701 334.945 307.76 335.52 307.575 336.139C307.454 336.546 307.249 336.888 306.961 337.165C306.673 337.439 306.317 337.621 305.893 337.709C305.469 337.795 304.992 337.758 304.461 337.6L301.612 336.751L303.638 329.955L304.682 330.267L302.946 336.089L304.751 336.627C305.164 336.75 305.536 336.742 305.866 336.603C306.197 336.464 306.413 336.223 306.515 335.881C306.622 335.521 306.577 335.188 306.379 334.882C306.182 334.576 305.876 334.361 305.463 334.238L303.517 333.658L303.807 332.684ZM308 338.655L310.026 331.86L311.07 332.171L309.044 338.967L308 338.655ZM312.334 338.271L317.175 333.991L318.378 334.35L316.352 341.145L315.308 340.834L316.875 335.578L312.052 339.863L310.831 339.499L312.857 332.704L313.901 333.015L312.334 338.271ZM317.16 331.52L318.133 331.81C317.991 332.288 317.709 332.63 317.288 332.835C316.867 333.04 316.374 333.059 315.807 332.89C315.25 332.724 314.851 332.439 314.611 332.037C314.375 331.636 314.328 331.196 314.47 330.718L315.443 331.009C315.375 331.239 315.378 331.46 315.453 331.671C315.531 331.884 315.724 332.037 316.034 332.129C316.344 332.221 316.591 332.2 316.776 332.066C316.963 331.932 317.091 331.75 317.16 331.52ZM320.213 344.416L321.084 341.496L321.65 341.665C321.832 341.562 321.998 341.441 322.148 341.303C322.298 341.165 322.445 340.991 322.587 340.783C322.733 340.573 322.883 340.309 323.035 339.992C323.188 339.672 323.356 339.28 323.539 338.818L324.571 336.196L328.889 337.484L327.153 343.306L328.198 343.617L327.327 346.537L326.283 346.226L326.863 344.279L321.838 342.781L321.257 344.727L320.213 344.416ZM322.836 342.018L326.109 342.994L327.555 338.146L325.254 337.46L324.566 339.124C324.28 339.812 324.004 340.406 323.736 340.904C323.469 341.403 323.169 341.774 322.836 342.018ZM329.169 344.966L331.195 338.171L333.973 338.999C334.704 339.217 335.236 339.556 335.568 340.014C335.9 340.473 335.985 340.974 335.824 341.517C335.701 341.929 335.483 342.213 335.17 342.367C334.859 342.518 334.499 342.577 334.092 342.542C334.332 342.652 334.549 342.813 334.743 343.025C334.94 343.238 335.079 343.491 335.162 343.786C335.245 344.077 335.233 344.401 335.127 344.758C335.023 345.106 334.842 345.391 334.583 345.612C334.325 345.834 334.006 345.975 333.628 346.036C333.251 346.097 332.832 346.058 332.372 345.921L329.169 344.966ZM330.444 344.306L332.656 344.966C333.016 345.073 333.323 345.071 333.578 344.961C333.832 344.851 334.004 344.648 334.092 344.353C334.196 344.002 334.177 343.696 334.033 343.435C333.89 343.171 333.639 342.985 333.279 342.878L331.067 342.218L330.444 344.306ZM331.336 341.316L333.123 341.848C333.404 341.932 333.655 341.965 333.879 341.948C334.103 341.929 334.29 341.862 334.439 341.749C334.592 341.634 334.699 341.477 334.758 341.276C334.844 340.99 334.791 340.73 334.601 340.497C334.411 340.26 334.107 340.08 333.688 339.955L331.901 339.422L331.336 341.316ZM338.758 347.979C338.144 347.797 337.65 347.49 337.274 347.06C336.901 346.631 336.663 346.115 336.56 345.513C336.46 344.911 336.514 344.26 336.723 343.558C336.934 342.85 337.247 342.27 337.661 341.819C338.078 341.368 338.56 341.065 339.107 340.911C339.657 340.757 340.239 340.771 340.852 340.954C341.466 341.137 341.959 341.443 342.332 341.872C342.708 342.302 342.946 342.819 343.045 343.424C343.147 344.029 343.093 344.686 342.882 345.394C342.672 346.096 342.36 346.67 341.944 347.118C341.531 347.566 341.049 347.868 340.499 348.022C339.952 348.176 339.371 348.162 338.758 347.979ZM339.038 347.042C339.504 347.18 339.923 347.175 340.295 347.026C340.667 346.877 340.983 346.629 341.244 346.283C341.504 345.937 341.702 345.536 341.838 345.082C341.973 344.628 342.027 344.183 341.999 343.748C341.972 343.313 341.844 342.929 341.615 342.598C341.386 342.266 341.039 342.031 340.573 341.892C340.107 341.753 339.687 341.76 339.314 341.912C338.941 342.064 338.624 342.315 338.363 342.664C338.101 343.013 337.903 343.415 337.767 343.869C337.632 344.323 337.579 344.766 337.607 345.199C337.635 345.631 337.765 346.012 337.994 346.34C338.224 346.669 338.572 346.903 339.038 347.042ZM342.589 351.742L345.374 342.399L346.383 342.699L346.061 343.779L346.185 343.816C346.297 343.721 346.448 343.602 346.638 343.459C346.832 343.315 347.079 343.209 347.379 343.141C347.682 343.071 348.055 343.101 348.498 343.233C349.07 343.404 349.531 343.697 349.883 344.114C350.234 344.53 350.454 345.037 350.542 345.635C350.63 346.233 350.568 346.889 350.355 347.602C350.141 348.322 349.832 348.909 349.43 349.364C349.029 349.816 348.568 350.122 348.048 350.282C347.53 350.439 346.987 350.433 346.421 350.264C345.984 350.134 345.656 349.957 345.437 349.735C345.218 349.509 345.066 349.282 344.98 349.054C344.895 348.823 344.832 348.634 344.792 348.487L344.704 348.461L343.633 352.053L342.589 351.742ZM345.388 346.102C345.235 346.615 345.175 347.091 345.209 347.528C345.243 347.962 345.372 348.333 345.595 348.64C345.819 348.944 346.14 349.159 346.559 349.284C346.995 349.414 347.394 349.408 347.754 349.265C348.119 349.12 348.433 348.873 348.698 348.525C348.966 348.174 349.172 347.757 349.316 347.273C349.459 346.796 349.513 346.343 349.48 345.916C349.451 345.486 349.322 345.115 349.094 344.803C348.87 344.489 348.537 344.266 348.094 344.134C347.669 344.008 347.28 344.009 346.927 344.138C346.575 344.264 346.268 344.497 346.006 344.836C345.745 345.173 345.539 345.595 345.388 346.102Z" fill="#282828"/>
<path d="M444.439 566.351L459.087 546.003L479.439 556.96L479.439 570.264L468.861 591.003L448.11 577.308L444.439 566.351Z" fill="#A9C0DE"/>
<path d="M540.439 512.244L514.88 493.003L491.439 521.993L517.259 542.003L540.439 512.244Z" fill="#A9C0DE"/>
<path d="M507.439 462.109L524.06 439.003L541.439 451.205L532.122 470.417L535.647 474.051L524.06 493.003L513.739 486.513L519.783 472.494L507.439 462.109Z" fill="#A9C0DE"/>
<path d="M521.439 418.795L529.456 399.003L583.439 431.555L570.613 449.003L521.439 418.795Z" fill="#A9C0DE"/>
<path d="M616.747 343.003L581.554 385.808L585.789 389.601L579.439 397.186L584.208 401.792L595.85 389.601L622.044 411.003L648.502 377.41L640.565 371.178L656.439 353.027L648.502 343.003L636.596 343.003L626.806 353.027L616.747 343.003Z" fill="#A9C0DE"/>
<path d="M576.694 359.763L564.742 378.003L544.439 365.861L584.781 313.003L598.439 321.207L589.228 334.707L596.097 339.959L591.049 345.952L583.079 339.959L571.123 357.418L576.694 359.763Z" fill="#A9C0DE"/>
<path d="M592.439 292.553L603.508 280.003L620.439 292.553L609.588 305.003L592.439 292.553Z" fill="#A9C0DE"/>
<path d="M593.384 533.003C592.011 542.253 589.3 560.93 589.445 561.632L606.995 565.847C618.138 569.197 621.931 565.487 625.439 551.796L608.786 534.584L593.384 533.003Z" fill="#A9C0DE"/>
<path d="M184.104 120.905L174.475 154.124L267.864 182.18L278.527 148.1L251.525 140.698L253.073 136.395L212.829 124.347L211.625 128.65L184.104 120.905Z" fill="#A9C0DE"/>
<path d="M210.131 120.905L190.66 113.051L246.181 -27.2441C248.701 -35.6271 252.615 -37.1716 259.87 -32.7813L289.201 -15.1549L286.967 -11.6907L364.684 37.7314C366.362 38.7005 368.227 43.9193 367.303 45.3526L356.058 62.9814L341.115 54.0515L343.811 51.0492C345.129 49.1633 344.585 48.4111 342.578 47.3541L285.427 11.4807L282.5 19.3328L271.717 14.7139L274.875 8.78636L262.628 4.16747L246.181 47.6595L218.166 115.612L213.041 113.051L210.131 120.905Z" fill="#A9C0DE"/>
<path d="M317.721 44.6L335.177 55.2983L286.681 140.559L272.761 132.382L270.767 136.065L236.328 122.048C231.478 120.015 229.969 116.771 229.969 113.473L231.478 100.776L235.358 100.776L237.461 88.1884L241.07 84.011L244.865 82.3722L275.589 91.4974L297.718 51.8596L309.482 59.2719L317.721 44.6Z" fill="#A9C0DE"/>
<path d="M275.689 45.7561L288.931 54.0803L275.689 78.1278L263.496 70.7286L275.689 45.7561Z" fill="#A9C0DE"/>
<path fill-rule="evenodd" clip-rule="evenodd" d="M332.906 142.979L400.01 70.4456L594.667 163.533L589.731 171.342L637.501 188.715L636.752 199.705L540.967 252.184L277.529 180.293L294.25 162.97L508.641 221.021L509.772 218.702L523.947 222.437L520.556 228.953L534.838 232.624L608.913 192.437L578.78 181.294L584.421 173.086L558.613 162.593L550.304 181.626L535.185 178.323L541.1 163.103L523.736 153.967L506.039 170.585L497.254 187.668L332.906 142.979ZM405.377 91.9537L492.694 133.952L478.047 160.194L370.721 130.524L405.377 91.9537Z" fill="#A9C0DE"/>
<path d="M537.653 190.731L513.016 184.657L505.799 206.559L530.859 212.264L537.653 190.731Z" fill="#A9C0DE"/>
<path d="M489.161 61.6271L443.385 32.0976L473.351 -12.7874L517.799 15.0548L489.161 61.6271Z" fill="#A9C0DE"/>
<path d="M541.476 58.1179L517.613 43.5873L502.014 68.5188L527.711 83.0495L541.476 58.1179Z" fill="#A9C0DE"/>
<path fill-rule="evenodd" clip-rule="evenodd" d="M538.174 43.8262L546.654 29.4724L599.996 57.3644L624.136 24.7421L687.75 74.8174L687.75 83.9516L639.795 120.325C622.512 129.799 618.087 127.469 611.246 123.868L611.245 123.868C610.569 123.512 609.868 123.143 609.13 122.772L540.786 88.1925L540.786 82.4836L554.814 53.9391L538.174 43.8262ZM594.123 68.1296L577.156 58.9954L568.027 77.1008L582.87 85.4195L594.123 68.1296ZM621.357 49.0456L595.259 91.2915L623.971 104.83L660.671 78.2426L621.357 49.0456Z" fill="#A9C0DE"/>
<path d="M585.447 45.6971L591.942 36.8223L604.615 45.6971L598.279 53.7346L585.447 45.6971Z" fill="#A9C0DE"/>
<path d="M614.35 10.89L597.85 31.0764L608.123 41.3323L623.782 19.518L614.35 10.89Z" fill="#A9C0DE"/>
<path d="M589.085 -1.51245L576.428 14.8544L593.465 28.9298L607.998 11.4173L589.085 -1.51245Z" fill="#A9C0DE"/>
<path d="M547.499 24.4198L535.838 17.1247L537.717 14.181L540.934 16.1008L545.893 5.73398L542.81 3.68621L559.027 -22.9348L571.626 -15.1277L567.069 -7.19257L574.173 -2.58508L568.141 4.83809L561.976 0.870515L547.499 24.4198Z" fill="#A9C0DE"/>
<path d="M541.476 -4.61305L527.933 16.5274L366.715 -86.8687L368.742 -101.603L379.878 -107.497L541.476 -4.61305Z" fill="#A9C0DE"/>
<path fill-rule="evenodd" clip-rule="evenodd" d="M2.60489 162.67L-3.66933 200.854L1.87108 201.383L-7.28788 267.086L-4.60949 270.896L12.9571 272.574L17.8004 270.289L22.5577 229.537L73.5225 241.191L59.246 279.58L59.8133 282.058L75.1761 288.534L80.9541 286.501L119.603 181.922C122.789 171.723 115.125 163.373 108.295 167.915L2.60489 162.67ZM23.5277 183.089L22.7363 191.578L89.0719 199.367L94.7425 186.496L23.5277 183.089Z" fill="#A9C0DE"/>
<path d="M54.9596 350.434L-154.198 343.005L-153.83 329.89L-99.4511 327.903L-91.9778 325.675L-100.79 277.166L-73.1331 271.156L-9.04331 275.027L-10.7288 317.862L-6.98757 277.732L41.6312 286.181L41.4153 288.496L60.3471 292.64L61.0441 291.582L77.2536 296.504L70.2804 312.621L63.8173 316.849L55.3561 315.002L56.2385 313.789L37.8311 309.522L37.0557 313.255L10.4524 310.714L10.7002 308.056L0.956899 307.126L0.0295916 317.073L61.7678 325.996L64.4437 332.134L54.9596 350.434Z" fill="#A9C0DE"/>
<path d="M-29.3484 42.8368L-9.17385 43.9871L-12.1634 103.107C-12.3517 107.668 -16.287 110.707 -19.6065 110.348L-53.9889 106.852L-136.306 96.5258L-265.917 85.8372L-266.266 11.7275L-270.481 -40.5857L-249.92 -42.2159L-245.799 12.9983L-245.803 69.9406L-135.221 78.8521L-52.6772 88.7928L-49.2421 42.0046L-39.0487 42.487L-40.6078 89.7018L-31.3056 90.0239L-29.3484 42.8368Z" fill="#A9C0DE"/>
<path d="M-9.20225 39.0814L-73.9434 32.4846L-72.3915 18.757L-23.5147 23.2969L-15.6981 -27.2589L-47.3861 -44.1178L-41.1785 -54.4603L0.515621 -30.4218L-3.18616 -12.9502L-9.20225 39.0814Z" fill="#A9C0DE"/>
<path d="M-440.194 703.357C-378.689 858.094 -406.158 790.179 -356.807 919.675C-326.627 931.032 -289.72 938.171 -262.59 939.118C-224.838 939.118 -229.653 929.665 -220.001 927.445C-212.799 925.789 -207.556 930.032 -206.541 931.757L-178.403 962.904C-158.03 985.561 -139.854 1003.1 -109.395 1008.54L-100.397 983.156L-104.217 976.475L-122.457 954.139L-154.962 965.741L-162.652 957.446L-166.382 960.904L-184.082 941.808L-181.677 939.579L-238.781 877.973L-240.941 879.975L-260.052 859.358L-257.99 857.447L-315.322 795.596L-317.138 797.28L-334.975 778.037L-332.079 775.353L-340.381 766.986L-326.47 736.112L-295.337 734.131L-162.49 728.689L-140.354 727.337L-124.958 726.708L-123.008 732.633L-97.9562 754.61L143.481 787.361L124.756 723.094L100.16 717.541L100.16 721.349L75.7234 719.445L73.8835 715.351L-43.0566 715.351L-141.276 714.095L-141.276 719.916L-162.49 720.789L-162.49 713.757L-314.165 706.642L-383.233 702.833L-386.298 706.642L-401.813 706.642L-407.48 703.357L-440.194 703.357Z" fill="#688623"/>
<path d="M-81.761 733.762L119.893 730.829C125.338 733.315 126.433 723.771 131.464 725.875C143.902 731.077 306.646 806.656 295.863 804.386L486.949 901.292L537.784 919.977L490.765 970.941L447.191 1015.5L408.59 1062.77L419.407 1069.88L571.239 923.442L566.912 908.436L339.705 778.885L448.942 715.348L466.575 722.818L471.817 728.146L622.755 967.988C536.913 1063.86 465.247 1094.11 419.407 1069.88C415.623 1067.88 412.015 1065.5 408.59 1062.77C389.315 1047.37 375.82 1020.41 369.271 983.013C362.826 946.203 328.559 919.036 307.233 930.183L277.519 952.878C222.213 999.672 190.271 1006.42 132.789 981.974C132.789 981.974 85.6343 946.98 39.7307 969.977C-0.882851 990.324 -57.1287 1007.89 -76.0633 1010.1C-91.5343 1011.36 -99.8686 1010.84 -114.184 1007.89L-122.511 954.376C-114.494 888.387 -97.4133 756.449 -97.3325 756.215C-97.3869 756.172 -101.811 751.39 -104.04 748.978C-101.913 744.34 -99.7132 742.152 -106.445 733.912L-81.761 733.762Z" fill="#688623"/>
<path d="M-122.932 728.345L-86.8342 728.098M128.152 980.442C137.556 890.385 143.974 771.081 135.852 746.632C131.192 732.603 126.678 727.106 117.376 726.699L-86.8342 728.098M-86.8342 728.098L-101.579 954.112L-90.246 969.551C-81.4955 990.554 -78.3079 1004.69 -83.847 1045.28" stroke="white" stroke-width="3"/>
<path d="M-551.566 699.537L-405.601 703.146L-402.581 706.265L-386.486 706.272L-383.373 701.584C-307.117 706.265 -162.105 711.927 -162.003 712.55C-161.902 713.173 -161.544 717.473 -161.378 719.546L-142.263 718.948L-142.503 712.739L75.2817 716.119L75.3401 719.963L100.405 721.472L100.419 716.861L134.189 726.243L280.905 794.95L295.259 803.482L304.647 789.701L288.856 780.602L283.928 789.415L134.48 718.728L115.798 714.645L116.041 699.024L100.225 698.556L100.361 696.468L95.7552 696.3L96.2261 680.39L80.4733 680.513L80.1647 695.938L75.7032 695.953L75.0264 709.778L-142.571 706.302L-143.364 699.243L-161.545 700.141L-161.997 707.546L-383.922 695.617L-384.314 683.425L-387.014 683.216L-387.16 660.093L-404.136 659.677L-403.825 684.778L-405.668 684.595L-406.132 696.334L-554.482 692.467" stroke="#8091A9"/>
<rect x="-252.967" y="589.414" width="292.866" height="42.5531" rx="4" transform="rotate(5.42559 -252.967 589.414)" fill="white"/>
<path d="M201.855 329.979L203.462 330.621L203.532 338.562L203.634 338.603L209.156 332.895L210.763 333.537L207.256 342.317L205.996 341.814L208.534 335.46L208.452 335.427L203.33 340.734L202.284 340.316L202.229 332.937L202.148 332.904L199.608 339.262L198.348 338.759L201.855 329.979ZM218.563 341.742C218.188 342.68 217.695 343.417 217.083 343.955C216.471 344.49 215.795 344.819 215.052 344.943C214.314 345.066 213.566 344.976 212.809 344.674C212.048 344.37 211.442 343.919 210.988 343.32C210.538 342.72 210.277 342.014 210.203 341.202C210.13 340.391 210.28 339.518 210.653 338.583C211.027 337.646 211.52 336.91 212.131 336.375C212.744 335.837 213.419 335.507 214.158 335.385C214.9 335.26 215.651 335.35 216.411 335.654C217.169 335.956 217.772 336.408 218.222 337.008C218.675 337.607 218.939 338.312 219.012 339.123C219.087 339.932 218.937 340.805 218.563 341.742ZM217.251 341.218C217.536 340.504 217.661 339.856 217.625 339.275C217.592 338.692 217.426 338.195 217.127 337.783C216.831 337.37 216.432 337.063 215.929 336.863C215.423 336.66 214.92 336.607 214.421 336.703C213.924 336.796 213.461 337.042 213.033 337.441C212.609 337.838 212.255 338.394 211.969 339.109C211.684 339.823 211.557 340.472 211.59 341.055C211.626 341.636 211.792 342.133 212.087 342.546C212.384 342.957 212.786 343.263 213.292 343.465C213.795 343.666 214.295 343.72 214.793 343.627C215.294 343.532 215.757 343.286 216.181 342.889C216.609 342.49 216.966 341.933 217.251 341.218ZM225.835 342.231C225.952 341.807 225.889 341.417 225.646 341.062C225.405 340.704 225.033 340.424 224.53 340.223C224.169 340.079 223.835 340.012 223.527 340.021C223.219 340.028 222.953 340.101 222.729 340.24C222.508 340.377 222.348 340.57 222.249 340.819C222.165 341.027 222.142 341.227 222.179 341.417C222.218 341.608 222.298 341.787 222.416 341.954C222.539 342.119 222.68 342.273 222.838 342.416C222.998 342.556 223.155 342.682 223.309 342.793L224.078 343.359C224.33 343.539 224.581 343.747 224.828 343.981C225.076 344.216 225.287 344.479 225.462 344.771C225.637 345.063 225.745 345.382 225.787 345.726C225.831 346.072 225.774 346.442 225.617 346.836C225.418 347.334 225.113 347.724 224.702 348.007C224.293 348.291 223.801 348.448 223.226 348.477C222.654 348.507 222.025 348.385 221.339 348.111C220.682 347.848 220.155 347.517 219.758 347.116C219.361 346.716 219.104 346.27 218.985 345.779C218.868 345.284 218.9 344.767 219.083 344.227L220.412 344.758C220.311 345.085 220.308 345.391 220.404 345.674C220.503 345.956 220.674 346.205 220.916 346.421C221.162 346.635 221.455 346.81 221.795 346.946C222.169 347.095 222.526 347.17 222.864 347.169C223.206 347.166 223.504 347.093 223.757 346.949C224.011 346.802 224.196 346.585 224.31 346.3C224.414 346.04 224.424 345.797 224.342 345.572C224.262 345.348 224.119 345.131 223.91 344.922C223.705 344.714 223.462 344.506 223.181 344.298L222.256 343.6C221.63 343.128 221.185 342.624 220.921 342.088C220.661 341.553 220.653 340.98 220.897 340.368C221.1 339.862 221.413 339.476 221.838 339.208C222.263 338.94 222.752 338.796 223.304 338.774C223.857 338.75 224.428 338.855 225.017 339.091C225.611 339.328 226.094 339.642 226.465 340.032C226.839 340.423 227.085 340.854 227.201 341.325C227.319 341.793 227.29 342.265 227.113 342.741L225.835 342.231ZM235.889 346.883L234.552 346.349C234.614 346.043 234.619 345.753 234.566 345.48C234.513 345.206 234.415 344.954 234.272 344.721C234.13 344.489 233.948 344.283 233.728 344.106C233.51 343.929 233.261 343.785 232.981 343.673C232.475 343.471 231.971 343.418 231.469 343.512C230.97 343.608 230.507 343.855 230.079 344.254C229.654 344.655 229.3 345.209 229.017 345.918C228.732 346.632 228.605 347.281 228.637 347.864C228.673 348.448 228.84 348.946 229.14 349.357C229.439 349.769 229.839 350.074 230.339 350.274C230.617 350.385 230.894 350.452 231.173 350.477C231.455 350.501 231.727 350.479 231.99 350.411C232.252 350.343 232.496 350.23 232.722 350.072C232.951 349.912 233.149 349.703 233.315 349.444L234.651 349.983C234.407 350.386 234.11 350.728 233.759 351.008C233.413 351.288 233.027 351.495 232.602 351.63C232.18 351.763 231.737 351.82 231.271 351.799C230.805 351.779 230.331 351.672 229.848 351.479C229.088 351.176 228.482 350.725 228.032 350.128C227.582 349.527 227.321 348.821 227.247 348.01C227.176 347.199 227.328 346.327 227.701 345.392C228.075 344.455 228.568 343.719 229.179 343.184C229.792 342.647 230.467 342.316 231.205 342.194C231.945 342.068 232.693 342.157 233.451 342.459C233.917 342.645 234.324 342.886 234.674 343.181C235.027 343.475 235.314 343.815 235.534 344.201C235.755 344.584 235.898 345.003 235.962 345.456C236.028 345.906 236.003 346.382 235.889 346.883ZM244.488 352.097C244.114 353.035 243.621 353.772 243.008 354.31C242.397 354.844 241.72 355.174 240.978 355.298C240.239 355.421 239.492 355.331 238.734 355.029C237.974 354.725 237.367 354.274 236.914 353.675C236.464 353.075 236.203 352.369 236.129 351.557C236.055 350.746 236.205 349.873 236.579 348.938C236.953 348.001 237.446 347.265 238.057 346.73C238.669 346.192 239.345 345.862 240.083 345.74C240.825 345.615 241.577 345.705 242.337 346.008C243.094 346.311 243.698 346.762 244.147 347.363C244.601 347.962 244.864 348.667 244.938 349.478C245.013 350.287 244.863 351.16 244.488 352.097ZM243.176 351.573C243.462 350.859 243.586 350.211 243.55 349.63C243.518 349.047 243.352 348.55 243.052 348.138C242.756 347.725 242.357 347.418 241.854 347.217C241.348 347.015 240.846 346.962 240.347 347.058C239.849 347.151 239.386 347.397 238.959 347.796C238.535 348.193 238.18 348.749 237.895 349.464C237.609 350.178 237.483 350.827 237.515 351.41C237.551 351.991 237.717 352.488 238.013 352.901C238.31 353.311 238.711 353.618 239.217 353.82C239.72 354.021 240.22 354.075 240.718 353.982C241.22 353.887 241.683 353.641 242.107 353.244C242.534 352.845 242.891 352.288 243.176 351.573Z" fill="#282828"/>
<path d="M208.718 400.118L211.834 391.966L212.937 392.387L214.162 399.781L214.237 399.81L216.547 393.767L217.666 394.195L214.549 402.347L213.451 401.927L212.223 394.578L212.147 394.549L209.853 400.551L208.718 400.118ZM216.517 400.302L216.841 399.455L220.328 400.788L220.004 401.635L216.517 400.302ZM218.842 399.435C218.447 399.284 218.136 399.072 217.908 398.8C217.684 398.528 217.548 398.219 217.501 397.873C217.454 397.526 217.502 397.165 217.646 396.788L217.829 396.31C217.973 395.933 218.178 395.632 218.444 395.405C218.71 395.178 219.018 395.039 219.366 394.986C219.714 394.934 220.084 394.982 220.474 395.132C220.869 395.283 221.178 395.493 221.4 395.764C221.625 396.035 221.759 396.344 221.804 396.689C221.851 397.036 221.802 397.397 221.658 397.774L221.475 398.252C221.332 398.626 221.129 398.927 220.866 399.155C220.605 399.383 220.3 399.525 219.95 399.58C219.604 399.633 219.235 399.585 218.842 399.435ZM219.171 398.575C219.463 398.687 219.72 398.675 219.941 398.541C220.164 398.404 220.336 398.178 220.456 397.862L220.639 397.384C220.759 397.071 220.78 396.792 220.704 396.547C220.627 396.302 220.439 396.122 220.139 396.007C219.842 395.894 219.583 395.903 219.362 396.034C219.142 396.166 218.972 396.388 218.852 396.701L218.669 397.179C218.549 397.495 218.525 397.778 218.6 398.028C218.678 398.277 218.869 398.46 219.171 398.575ZM220.856 404.757L221.196 403.866L225.047 402.062C225.461 401.865 225.807 401.685 226.088 401.525C226.372 401.363 226.602 401.194 226.779 401.018C226.955 400.842 227.089 400.635 227.181 400.396C227.284 400.125 227.31 399.868 227.257 399.623C227.206 399.375 227.091 399.156 226.911 398.965C226.732 398.772 226.505 398.623 226.229 398.518C225.937 398.406 225.66 398.368 225.396 398.405C225.133 398.441 224.901 398.545 224.701 398.718C224.502 398.891 224.346 399.124 224.234 399.416L223.06 398.967C223.25 398.471 223.53 398.08 223.9 397.796C224.27 397.512 224.693 397.344 225.169 397.291C225.647 397.237 226.139 397.306 226.645 397.5C227.158 397.696 227.57 397.97 227.882 398.324C228.197 398.676 228.398 399.069 228.485 399.503C228.572 399.935 228.532 400.37 228.365 400.808C228.249 401.11 228.079 401.384 227.854 401.63C227.632 401.876 227.314 402.124 226.899 402.373C226.486 402.62 225.934 402.9 225.245 403.215L222.977 404.291L222.954 404.351L226.624 405.754L226.221 406.809L220.856 404.757ZM230.516 408.606C229.888 408.362 229.414 407.991 229.094 407.492C228.774 406.992 228.616 406.383 228.62 405.664C228.625 404.945 228.796 404.142 229.135 403.255C229.473 402.372 229.88 401.662 230.355 401.126C230.833 400.591 231.358 400.244 231.93 400.086C232.504 399.928 233.103 399.968 233.727 400.207C234.35 400.445 234.822 400.815 235.141 401.318C235.461 401.817 235.619 402.425 235.616 403.142C235.616 403.857 235.448 404.656 235.11 405.539C234.77 406.428 234.362 407.142 233.885 407.681C233.41 408.217 232.885 408.565 232.313 408.727C231.741 408.885 231.142 408.845 230.516 408.606ZM230.922 407.543C231.474 407.754 232.008 407.649 232.525 407.229C233.044 406.81 233.498 406.091 233.888 405.072C234.146 404.396 234.293 403.796 234.329 403.275C234.368 402.751 234.3 402.318 234.127 401.975C233.958 401.63 233.692 401.389 233.328 401.25C232.779 401.04 232.244 401.146 231.724 401.567C231.204 401.989 230.748 402.707 230.357 403.723C230.097 404.402 229.948 405.003 229.909 405.527C229.874 406.049 229.942 406.48 230.112 406.822C230.283 407.162 230.553 407.402 230.922 407.543Z" fill="#282828"/>
<path d="M130.069 302.909L121.034 300.124L121.411 298.902L129.315 297.049L129.341 296.965L122.644 294.901L123.026 293.661L132.061 296.446L131.686 297.664L123.83 299.517L123.804 299.601L130.457 301.652L130.069 302.909ZM129.71 294.466L128.771 294.176L129.962 290.311L130.902 290.601L129.71 294.466ZM128.606 292.014C128.471 292.452 128.264 292.804 127.986 293.069C127.709 293.332 127.385 293.501 127.014 293.576C126.642 293.652 126.248 293.625 125.83 293.497L125.301 293.333C124.883 293.205 124.543 293.005 124.278 292.733C124.014 292.462 123.841 292.14 123.76 291.767C123.678 291.394 123.704 290.991 123.838 290.559C123.973 290.12 124.178 289.772 124.455 289.512C124.732 289.25 125.056 289.082 125.426 289.01C125.797 288.934 126.192 288.961 126.609 289.089L127.139 289.253C127.553 289.38 127.893 289.579 128.158 289.847C128.424 290.113 128.599 290.432 128.684 290.806C128.766 291.176 128.74 291.579 128.606 292.014ZM127.653 291.72C127.753 291.397 127.722 291.12 127.561 290.89C127.397 290.659 127.14 290.49 126.79 290.382L126.261 290.219C125.914 290.112 125.611 290.109 125.351 290.209C125.092 290.309 124.911 290.526 124.808 290.858C124.707 291.187 124.735 291.467 124.893 291.696C125.051 291.925 125.303 292.093 125.651 292.2L126.18 292.363C126.53 292.471 126.838 292.475 127.103 292.377C127.367 292.274 127.55 292.056 127.653 291.72ZM132.392 289.103L131.29 288.763L126.325 282.957L126.593 282.088L128.217 282.589L128.047 283.14L131.607 287.295L131.677 287.317L133.327 281.966L134.483 282.322L132.392 289.103ZM135.477 285.363L133.378 284.716L132.877 284.552L126.445 282.569L126.844 281.277L135.879 284.062L135.477 285.363ZM135.916 279.554L136.376 279.768C136.715 279.921 137.06 280.109 137.41 280.333C137.763 280.555 138.087 280.772 138.382 280.986C138.678 281.196 138.912 281.366 139.085 281.497L138.796 282.432C138.626 282.338 138.395 282.208 138.104 282.045C137.816 281.882 137.491 281.709 137.129 281.527C136.766 281.344 136.391 281.175 136.004 281.021L135.524 280.824L135.916 279.554ZM138.717 275.291C138.547 275.844 138.288 276.308 137.94 276.684C137.59 277.056 137.188 277.315 136.734 277.462C136.28 277.609 135.81 277.617 135.326 277.487L135.734 276.163C136.132 276.25 136.504 276.177 136.85 275.942C137.196 275.707 137.436 275.372 137.57 274.937C137.677 274.59 137.693 274.258 137.616 273.942C137.538 273.621 137.381 273.341 137.146 273.101C136.912 272.858 136.614 272.681 136.252 272.569C135.884 272.456 135.532 272.434 135.195 272.504C134.858 272.574 134.564 272.724 134.313 272.952C134.063 273.178 133.881 273.47 133.768 273.828C133.683 274.101 133.646 274.391 133.654 274.696C133.663 275.002 133.718 275.263 133.818 275.481L133.248 276.672L128.852 274.762L130.383 269.794L131.552 270.155L130.37 273.988L132.81 275.054L132.826 275.001C132.71 274.772 132.639 274.494 132.614 274.168C132.59 273.838 132.63 273.506 132.733 273.171C132.903 272.621 133.185 272.171 133.579 271.823C133.974 271.471 134.436 271.242 134.965 271.134C135.492 271.023 136.048 271.059 136.632 271.242C137.218 271.42 137.7 271.713 138.076 272.122C138.453 272.528 138.702 273.007 138.821 273.559C138.939 274.108 138.904 274.685 138.717 275.291Z" fill="#282828"/>
<path d="M226.475 358.142L196.222 346.177L183.447 373.958L214.166 385.463L226.475 358.142Z" fill="white"/>
<path d="M185.93 388.566L201.816 395.167" stroke="white" stroke-width="3" stroke-linecap="round"/>
<path d="M140.723 244.833L135.566 261.245" stroke="white" stroke-width="3" stroke-linecap="round"/>
<path d="M198.283 381.588C198.186 381.33 197.897 381.199 197.639 381.296L193.426 382.877C193.167 382.974 193.036 383.262 193.133 383.521C193.23 383.78 193.519 383.91 193.777 383.813L197.522 382.408L198.927 386.153C199.024 386.411 199.313 386.542 199.571 386.445C199.83 386.348 199.961 386.06 199.864 385.802L198.283 381.588ZM195.18 388.773L195.566 387.923L194.656 387.509L194.269 388.36L195.18 388.773ZM196.339 386.222L197.111 384.522L196.201 384.108L195.428 385.809L196.339 386.222ZM197.883 382.821L198.27 381.971L197.359 381.557L196.973 382.408L197.883 382.821ZM198.283 381.588C198.186 381.33 197.897 381.199 197.639 381.296L193.426 382.877C193.167 382.974 193.036 383.262 193.133 383.521C193.23 383.78 193.519 383.91 193.777 383.813L197.522 382.408L198.927 386.153C199.024 386.411 199.313 386.542 199.571 386.445C199.83 386.348 199.961 386.06 199.864 385.802L198.283 381.588ZM195.18 388.773L195.566 387.923L194.656 387.509L194.269 388.36L195.18 388.773ZM196.339 386.222L197.111 384.522L196.201 384.108L195.428 385.809L196.339 386.222ZM197.883 382.821L198.27 381.971L197.359 381.557L196.973 382.408L197.883 382.821Z" fill="white"/>
<path d="M148.845 321.56L148.382 321.37L148.374 321.39L148.368 321.411L148.845 321.56ZM150.792 343.285L150.552 343.723L150.575 343.736L150.599 343.746L150.792 343.285ZM180.915 356.263C181.171 356.158 181.293 355.866 181.188 355.611L179.48 351.448C179.375 351.192 179.083 351.07 178.828 351.175C178.572 351.28 178.45 351.572 178.555 351.827L180.073 355.528L176.373 357.046C176.117 357.151 175.995 357.443 176.1 357.699C176.205 357.954 176.497 358.076 176.752 357.971L180.915 356.263ZM164.272 261.763L164.095 262.23L164.116 262.239L164.138 262.245L164.272 261.763ZM168.325 273.983L168.788 274.173L168.799 274.145L168.807 274.117L168.325 273.983ZM139.426 252.837L140.307 253.172L140.662 252.238L139.781 251.902L139.426 252.837ZM142.069 253.843L143.831 254.514L144.187 253.58L142.425 252.909L142.069 253.843ZM145.593 255.185L147.355 255.856L147.711 254.922L145.949 254.251L145.593 255.185ZM149.117 256.527L150.879 257.198L151.235 256.264L149.473 255.593L149.117 256.527ZM152.641 257.869L154.403 258.54L154.759 257.606L152.997 256.935L152.641 257.869ZM156.165 259.211L157.927 259.882L158.283 258.947L156.521 258.276L156.165 259.211ZM159.689 260.553L161.451 261.224L161.807 260.289L160.045 259.618L159.689 260.553ZM163.213 261.895L164.095 262.23L164.45 261.296L163.569 260.96L163.213 261.895ZM164.138 262.245C164.434 262.327 164.713 262.418 164.976 262.517L165.327 261.581C165.036 261.471 164.729 261.371 164.407 261.282L164.138 262.245ZM166.506 263.299C166.997 263.637 167.394 264.023 167.711 264.455L168.517 263.864C168.131 263.337 167.651 262.874 167.073 262.475L166.506 263.299ZM168.454 265.952C168.613 266.467 168.711 267.032 168.749 267.649L169.747 267.586C169.704 266.903 169.595 266.258 169.409 265.656L168.454 265.952ZM168.717 269.417C168.667 269.981 168.583 270.574 168.467 271.197L169.451 271.379C169.571 270.73 169.66 270.105 169.713 269.505L168.717 269.417ZM168.077 272.967C168.004 273.257 167.926 273.551 167.843 273.85L168.807 274.117C168.891 273.811 168.971 273.509 169.046 273.212L168.077 272.967ZM167.862 273.794L167.487 274.709L168.413 275.088L168.788 274.173L167.862 273.794ZM166.738 276.539L165.989 278.369L166.914 278.747L167.664 276.918L166.738 276.539ZM165.24 280.198L164.491 282.028L165.416 282.407L166.165 280.577L165.24 280.198ZM163.741 283.858L162.992 285.688L163.918 286.067L164.667 284.237L163.741 283.858ZM162.243 287.518L161.494 289.348L162.419 289.727L163.168 287.897L162.243 287.518ZM160.744 291.178L159.995 293.007L160.921 293.386L161.67 291.556L160.744 291.178ZM159.246 294.837L158.497 296.667L159.422 297.046L160.171 295.216L159.246 294.837ZM157.748 298.497L156.998 300.327L157.924 300.706L158.673 298.876L157.748 298.497ZM156.249 302.157L155.5 303.987L156.425 304.365L157.175 302.536L156.249 302.157ZM154.751 305.816L154.001 307.646L154.927 308.025L155.676 306.195L154.751 305.816ZM153.252 309.476L152.503 311.306L153.428 311.685L154.178 309.855L153.252 309.476ZM151.754 313.136L151.005 314.966L151.93 315.345L152.679 313.515L151.754 313.136ZM150.255 316.796L149.506 318.625L150.432 319.004L151.181 317.174L150.255 316.796ZM148.757 320.455L148.382 321.37L149.308 321.749L149.682 320.834L148.757 320.455ZM148.368 321.411C148.266 321.736 148.167 322.057 148.07 322.373L149.026 322.665C149.122 322.351 149.221 322.032 149.322 321.709L148.368 321.411ZM147.494 324.297C147.3 324.963 147.118 325.607 146.95 326.23L147.915 326.491C148.082 325.876 148.262 325.238 148.454 324.577L147.494 324.297ZM146.448 328.179C146.282 328.864 146.135 329.52 146.008 330.151L146.989 330.348C147.113 329.732 147.257 329.088 147.42 328.414L146.448 328.179ZM145.66 332.149C145.558 332.862 145.488 333.538 145.452 334.18L146.451 334.236C146.485 333.627 146.552 332.98 146.65 332.291L145.66 332.149ZM145.464 336.244C145.521 336.981 145.64 337.668 145.824 338.311L146.786 338.034C146.622 337.465 146.514 336.845 146.461 336.167L145.464 336.244ZM146.671 340.26C147.035 340.86 147.481 341.407 148.008 341.912L148.699 341.189C148.231 340.741 147.842 340.261 147.526 339.741L146.671 340.26ZM149.659 343.195C149.942 343.377 150.24 343.553 150.552 343.723L151.032 342.846C150.738 342.685 150.461 342.521 150.199 342.353L149.659 343.195ZM150.599 343.746L151.535 344.137L151.92 343.214L150.985 342.823L150.599 343.746ZM153.406 344.919L155.276 345.702L155.662 344.779L153.791 343.997L153.406 344.919ZM157.147 346.484L159.018 347.266L159.404 346.343L157.533 345.561L157.147 346.484ZM160.889 348.048L162.76 348.831L163.146 347.908L161.275 347.126L160.889 348.048ZM164.631 349.613L166.501 350.395L166.887 349.472L165.016 348.69L164.631 349.613ZM168.372 351.177L170.243 351.96L170.629 351.037L168.758 350.255L168.372 351.177ZM172.114 352.742L173.985 353.524L174.371 352.602L172.5 351.819L172.114 352.742ZM175.856 354.306L177.726 355.089L178.112 354.166L176.241 353.384L175.856 354.306ZM179.597 355.871L180.533 356.262L180.919 355.339L179.983 354.948L179.597 355.871ZM148.845 321.56L148.382 321.37L148.374 321.39L148.368 321.411L148.845 321.56ZM150.792 343.285L150.552 343.723L150.575 343.736L150.599 343.746L150.792 343.285ZM180.915 356.263C181.171 356.158 181.293 355.866 181.188 355.611L179.48 351.448C179.375 351.192 179.083 351.07 178.828 351.175C178.572 351.28 178.45 351.572 178.555 351.827L180.073 355.528L176.373 357.046C176.117 357.151 175.995 357.443 176.1 357.699C176.205 357.954 176.497 358.076 176.752 357.971L180.915 356.263ZM164.272 261.763L164.095 262.23L164.116 262.239L164.138 262.245L164.272 261.763ZM168.325 273.983L168.788 274.173L168.799 274.145L168.807 274.117L168.325 273.983ZM139.426 252.837L140.307 253.172L140.662 252.238L139.781 251.902L139.426 252.837ZM142.069 253.843L143.831 254.514L144.187 253.58L142.425 252.909L142.069 253.843ZM145.593 255.185L147.355 255.856L147.711 254.922L145.949 254.251L145.593 255.185ZM149.117 256.527L150.879 257.198L151.235 256.264L149.473 255.593L149.117 256.527ZM152.641 257.869L154.403 258.54L154.759 257.606L152.997 256.935L152.641 257.869ZM156.165 259.211L157.927 259.882L158.283 258.947L156.521 258.276L156.165 259.211ZM159.689 260.553L161.451 261.224L161.807 260.289L160.045 259.618L159.689 260.553ZM163.213 261.895L164.095 262.23L164.45 261.296L163.569 260.96L163.213 261.895ZM164.138 262.245C164.434 262.327 164.713 262.418 164.976 262.517L165.327 261.581C165.036 261.471 164.729 261.371 164.407 261.282L164.138 262.245ZM166.506 263.299C166.997 263.637 167.394 264.023 167.711 264.455L168.517 263.864C168.131 263.337 167.651 262.874 167.073 262.475L166.506 263.299ZM168.454 265.952C168.613 266.467 168.711 267.032 168.749 267.649L169.747 267.586C169.704 266.903 169.595 266.258 169.409 265.656L168.454 265.952ZM168.717 269.417C168.667 269.981 168.583 270.574 168.467 271.197L169.451 271.379C169.571 270.73 169.66 270.105 169.713 269.505L168.717 269.417ZM168.077 272.967C168.004 273.257 167.926 273.551 167.843 273.85L168.807 274.117C168.891 273.811 168.971 273.509 169.046 273.212L168.077 272.967ZM167.862 273.794L167.487 274.709L168.413 275.088L168.788 274.173L167.862 273.794ZM166.738 276.539L165.989 278.369L166.914 278.747L167.664 276.918L166.738 276.539ZM165.24 280.198L164.491 282.028L165.416 282.407L166.165 280.577L165.24 280.198ZM163.741 283.858L162.992 285.688L163.918 286.067L164.667 284.237L163.741 283.858ZM162.243 287.518L161.494 289.348L162.419 289.727L163.168 287.897L162.243 287.518ZM160.744 291.178L159.995 293.007L160.921 293.386L161.67 291.556L160.744 291.178ZM159.246 294.837L158.497 296.667L159.422 297.046L160.171 295.216L159.246 294.837ZM157.748 298.497L156.998 300.327L157.924 300.706L158.673 298.876L157.748 298.497ZM156.249 302.157L155.5 303.987L156.425 304.365L157.175 302.536L156.249 302.157ZM154.751 305.816L154.001 307.646L154.927 308.025L155.676 306.195L154.751 305.816ZM153.252 309.476L152.503 311.306L153.428 311.685L154.178 309.855L153.252 309.476ZM151.754 313.136L151.005 314.966L151.93 315.345L152.679 313.515L151.754 313.136ZM150.255 316.796L149.506 318.625L150.432 319.004L151.181 317.174L150.255 316.796ZM148.757 320.455L148.382 321.37L149.308 321.749L149.682 320.834L148.757 320.455ZM148.368 321.411C148.266 321.736 148.167 322.057 148.07 322.373L149.026 322.665C149.122 322.351 149.221 322.032 149.322 321.709L148.368 321.411ZM147.494 324.297C147.3 324.963 147.118 325.607 146.95 326.23L147.915 326.491C148.082 325.876 148.262 325.238 148.454 324.577L147.494 324.297ZM146.448 328.179C146.282 328.864 146.135 329.52 146.008 330.151L146.989 330.348C147.113 329.732 147.257 329.088 147.42 328.414L146.448 328.179ZM145.66 332.149C145.558 332.862 145.488 333.538 145.452 334.18L146.451 334.236C146.485 333.627 146.552 332.98 146.65 332.291L145.66 332.149ZM145.464 336.244C145.521 336.981 145.64 337.668 145.824 338.311L146.786 338.034C146.622 337.465 146.514 336.845 146.461 336.167L145.464 336.244ZM146.671 340.26C147.035 340.86 147.481 341.407 148.008 341.912L148.699 341.189C148.231 340.741 147.842 340.261 147.526 339.741L146.671 340.26ZM149.659 343.195C149.942 343.377 150.24 343.553 150.552 343.723L151.032 342.846C150.738 342.685 150.461 342.521 150.199 342.353L149.659 343.195ZM150.599 343.746L151.535 344.137L151.92 343.214L150.985 342.823L150.599 343.746ZM153.406 344.919L155.276 345.702L155.662 344.779L153.791 343.997L153.406 344.919ZM157.147 346.484L159.018 347.266L159.404 346.343L157.533 345.561L157.147 346.484ZM160.889 348.048L162.76 348.831L163.146 347.908L161.275 347.126L160.889 348.048ZM164.631 349.613L166.501 350.395L166.887 349.472L165.016 348.69L164.631 349.613ZM168.372 351.177L170.243 351.96L170.629 351.037L168.758 350.255L168.372 351.177ZM172.114 352.742L173.985 353.524L174.371 352.602L172.5 351.819L172.114 352.742ZM175.856 354.306L177.726 355.089L178.112 354.166L176.241 353.384L175.856 354.306ZM179.597 355.871L180.533 356.262L180.919 355.339L179.983 354.948L179.597 355.871Z" fill="white"/>
</g>
<defs>
<clipPath id="clip0_228_129144">
<rect width="643" height="623" fill="white" transform="translate(0.5 0.5)"/>
</clipPath>
</defs>
</svg>
