<svg width="136" height="177" viewBox="0 0 136 177" fill="none" xmlns="http://www.w3.org/2000/svg">
<path fill-rule="evenodd" clip-rule="evenodd" d="M40.0079 79.3401V82.3886H43.0564H46.105V79.3401V76.2915H43.0564H40.0079V79.3401ZM47.8981 76.6285C47.823 76.8244 47.7942 82.2224 47.8341 88.6244L47.9065 100.264L51.0274 100.343L54.148 100.421L54.0759 88.4256L54.0036 76.4301L51.0193 76.3514C48.7864 76.2923 48.0004 76.3622 47.8981 76.6285ZM55.805 79.3401V82.3886H58.8536H61.9022V79.3401V76.2915H58.8536H55.805V79.3401ZM64.8584 76.4764C64.7567 76.5778 64.6736 82.0029 64.6736 88.5321V100.403H67.8607H71.0479V95.9686V91.5344L72.5029 91.5405L73.9579 91.5463L76.8679 95.9686L79.7779 100.391L83.4664 100.397C86.3431 100.402 87.1097 100.327 86.9498 100.057C86.837 99.8661 85.0666 97.2158 83.0157 94.1672C80.9649 91.1186 79.2887 88.4996 79.2912 88.3472C79.2934 88.1948 80.849 85.7629 82.7483 82.9429C84.6473 80.123 86.4227 77.4727 86.6934 77.0536L87.1859 76.2915L83.4819 76.2987L79.7779 76.3059L76.8679 80.7227L73.9579 85.1396L72.5029 85.1498L71.0479 85.1601V80.7258V76.2915H68.0456C66.3941 76.2915 64.9599 76.3746 64.8584 76.4764ZM89.6164 88.3472V100.403H92.6248H95.6335L95.81 98.5322C95.9073 97.5032 95.9877 93.45 95.9888 89.5251L95.9907 82.3886H100.841H105.691V91.3958V100.403H108.739H111.788V88.3472V76.2915H100.702H89.6164V88.3472ZM32.0899 85.5262C32.0126 85.7277 31.9854 87.1306 32.0295 88.644L32.1093 91.3958H35.0193H37.9293L38.0077 88.2779L38.0862 85.1601H35.1582C32.9876 85.1601 32.1941 85.2549 32.0899 85.5262ZM40.1232 85.4142C40.0597 85.4777 40.0079 86.8049 40.0079 88.3638C40.0079 90.3923 40.1063 91.2267 40.3543 91.2993C40.545 91.3553 41.9207 91.36 43.412 91.3099L46.1233 91.2187L46.0449 88.2829L45.9664 85.3469L43.1025 85.3228C41.5275 85.3095 40.1869 85.3507 40.1232 85.4142ZM23.9336 97.3544V100.403H26.9822H30.0307V97.3544V94.3058H26.9822H23.9336V97.3544ZM31.9707 97.3544V100.403H35.0193H38.0679V97.3544V94.3058H35.0193H31.9707V97.3544ZM40.0079 97.3544V100.403H43.0564H46.105V97.3544V94.3058H43.0564H40.0079V97.3544Z" fill="#7D7D7D"/>
<path fill-rule="evenodd" clip-rule="evenodd" d="M40.0078 97.3544V100.403H43.0564H46.105V97.3544V94.3058H43.0564H40.0078V97.3544Z" fill="#7D7D7D"/>
<path fill-rule="evenodd" clip-rule="evenodd" d="M40.1231 85.4142C40.0597 85.4776 40.0078 86.8049 40.0078 88.3638C40.0078 90.3922 40.1062 91.2267 40.3543 91.2993C40.5449 91.3553 41.9207 91.36 43.412 91.3098L46.1233 91.2187L46.0448 88.2829L45.9664 85.3468L43.1024 85.3227C41.5274 85.3094 40.1869 85.3507 40.1231 85.4142ZM31.9707 97.3543V100.403H35.0193H38.0678V97.3543V94.3057H35.0193H31.9707V97.3543Z" fill="#7D7D7D"/>
<g opacity="0.4">
<mask id="path-4-inside-1_141_1340" fill="white">
<path d="M126 20.3473L136 20.3473L136 30.3473L126 30.3473L126 20.3473Z"/>
</mask>
<path d="M126 30.3473L125 30.3473L125 31.3473L126 31.3473L126 30.3473ZM136 29.3473L126 29.3473L126 31.3473L136 31.3473L136 29.3473ZM127 30.3473L127 20.3473L125 20.3473L125 30.3473L127 30.3473Z" fill="white" mask="url(#path-4-inside-1_141_1340)"/>
</g>
<g opacity="0.4">
<mask id="path-6-inside-2_141_1340" fill="white">
<path d="M10.5 155.347L0.5 155.347L0.499999 145.347L10.5 145.347L10.5 155.347Z"/>
</mask>
<path d="M10.5 145.347L11.5 145.347L11.5 144.347L10.5 144.347L10.5 145.347ZM0.499999 146.347L10.5 146.347L10.5 144.347L0.499999 144.347L0.499999 146.347ZM9.5 145.347L9.5 155.347L11.5 155.347L11.5 145.347L9.5 145.347Z" fill="white" mask="url(#path-6-inside-2_141_1340)"/>
</g>
</svg>
