<svg width="136" height="137" viewBox="0 0 136 137" fill="none" xmlns="http://www.w3.org/2000/svg">
<g clip-path="url(#clip0_119_574)">
<path d="M67.5278 47.981C91.8319 47.981 111.655 57.2594 111.655 68.636C111.655 80.0123 91.8319 89.2907 67.5278 89.2907C43.2233 89.2907 23.4004 80.0123 23.4004 68.636C23.4004 57.2594 43.2233 47.981 67.5278 47.981Z" stroke="#7D7D7D" stroke-width="2"/>
<path fill-rule="evenodd" clip-rule="evenodd" d="M99.4486 68.4528C99.4282 66.6064 99.2443 65.0462 98.8936 63.7734C98.4791 62.2748 97.9115 61.5258 97.1924 61.5258C96.4739 61.5258 95.906 62.2748 95.4919 63.7734C95.1411 65.0462 94.9566 66.6064 94.9363 68.4528H90.2793C90.3329 66.1986 90.9169 64.272 92.0299 62.6737C93.3168 60.83 95.0378 59.9083 97.1924 59.9083C99.3473 59.9083 101.068 60.83 102.355 62.6737C103.468 64.272 104.051 66.1986 104.105 68.4528H99.4486Z" fill="#7D7D7D"/>
<path fill-rule="evenodd" clip-rule="evenodd" d="M99.2344 72.5641C99.3613 71.5518 99.432 70.4277 99.4458 69.1895H104.101C104.073 70.392 103.929 71.5171 103.67 72.5641H99.2344Z" fill="#7D7D7D"/>
<path fill-rule="evenodd" clip-rule="evenodd" d="M95.2689 72.8728C95.3333 73.2044 95.407 73.521 95.4897 73.8208C95.9039 75.3195 96.4717 76.0685 97.1902 76.0685C97.9093 76.0685 98.4769 75.3195 98.8914 73.8208C98.9741 73.521 99.0469 73.2044 99.1106 72.8728H103.431C103.156 73.6213 102.796 74.3209 102.353 74.97C101.053 76.8628 99.332 77.8094 97.1902 77.8094C95.0356 77.8094 93.3146 76.8711 92.0277 74.9947C91.5802 74.3395 91.2178 73.6319 90.9414 72.8728H95.2689Z" fill="#7D7D7D"/>
<path fill-rule="evenodd" clip-rule="evenodd" d="M94.9357 69.1895C94.9495 70.4277 95.0189 71.5518 95.1462 72.5641H90.7061C90.45 71.5181 90.3075 70.3934 90.2793 69.1895H94.9357Z" fill="#7D7D7D"/>
<path fill-rule="evenodd" clip-rule="evenodd" d="M76.9842 72.8728C76.5233 75.634 74.4187 77.6498 71.7346 77.9764C68.1415 78.4135 65.4004 75.498 65.4004 75.498L66.495 72.8728H66.7349C67.2663 73.6166 69.1379 75.9739 71.1419 75.3886C72.3587 75.0332 72.7645 73.9381 72.5618 72.8728H76.9842Z" fill="#7D7D7D"/>
<path fill-rule="evenodd" clip-rule="evenodd" d="M76.6606 69.1895C76.7265 69.4255 76.7888 69.6763 76.8463 69.9443C77.0413 70.8542 77.1086 71.7333 77.0667 72.5641H72.3202C71.9791 71.74 71.3528 71.0387 70.5121 70.7791C69.4854 70.4621 68.4803 69.9931 67.6836 69.1895H76.6606Z" fill="#7D7D7D"/>
<path fill-rule="evenodd" clip-rule="evenodd" d="M76.2529 61.4657L75.2157 63.9804C75.2157 63.9804 74.3636 61.7936 72.3264 62.231C70.2892 62.6684 70.6225 64.6729 71.9559 65.3655C73.1201 65.9702 75.1875 65.7142 76.3837 68.4528H67.0105C66.4055 67.6182 66.0293 66.4865 66.0293 64.9281C66.0293 61.1742 69.4371 59.6432 70.9187 59.6067C73.9559 59.3516 76.29 61.5022 76.2529 61.4657Z" fill="#7D7D7D"/>
<path fill-rule="evenodd" clip-rule="evenodd" d="M78.1289 68.4528C78.1825 66.1986 78.7665 64.272 79.8795 62.6737C81.1664 60.83 82.8874 59.9083 85.0421 59.9083C86.8133 59.9083 88.2925 60.5318 89.4774 61.7777L87.7471 63.458C87.2038 62.4552 86.5081 61.9528 85.6626 61.9528C84.6613 61.9528 83.8698 62.6578 83.2926 64.0685C82.8053 65.2621 82.5484 66.7237 82.5184 68.4528H78.1289Z" fill="#7D7D7D"/>
<path fill-rule="evenodd" clip-rule="evenodd" d="M78.5557 72.5641C78.2996 71.5181 78.1571 70.3934 78.1289 69.1895H82.5181C82.5397 70.4368 82.6511 71.5615 82.8548 72.5641H78.5557Z" fill="#7D7D7D"/>
<path fill-rule="evenodd" clip-rule="evenodd" d="M90.0995 75.1193C88.8123 76.9122 87.1263 77.8094 85.0418 77.8094C82.8872 77.8094 81.1662 76.8711 79.8793 74.9947C79.4318 74.3395 79.0694 73.6319 78.793 72.8728H83.0567C83.1283 73.0986 83.207 73.3167 83.2924 73.5257C83.8695 74.9365 84.6611 75.6414 85.6624 75.6414C86.6651 75.6414 87.4564 74.9365 88.0338 73.5257C88.0683 73.4414 88.1018 73.3552 88.1339 73.2685L90.0995 75.1193Z" fill="#7D7D7D"/>
<path fill-rule="evenodd" clip-rule="evenodd" d="M45.3105 72.8728V77.4996H48.647V72.8728H45.3105Z" fill="#7D7D7D"/>
<path fill-rule="evenodd" clip-rule="evenodd" d="M45.3105 68.9408V72.7042H48.647V68.9408H45.3105Z" fill="#7D7D7D"/>
<path fill-rule="evenodd" clip-rule="evenodd" d="M39.7383 69.191L41.5116 73.7798L41.3496 73.7041C41.818 72.3988 42.6284 70.4905 43.0898 69.1879L39.7383 69.191Z" fill="#7D7D7D"/>
<path fill-rule="evenodd" clip-rule="evenodd" d="M34.6719 72.8728V77.4996H37.5678V72.8728H34.6719Z" fill="#7D7D7D"/>
<path fill-rule="evenodd" clip-rule="evenodd" d="M34.6719 69.1895V72.5641H37.5678V69.1895H34.6719Z" fill="#7D7D7D"/>
<path fill-rule="evenodd" clip-rule="evenodd" d="M48.6473 60.2181C47.1174 60.2181 45.5846 60.2181 44.0518 60.2181L41.6416 65.6041L39.2675 60.2181H34.6719V68.4528H37.5678V64.5521L39.502 68.51L43.4395 68.4528C44.0556 67.1455 44.6738 65.8359 45.3108 64.5177V68.4528H48.6473V60.2181Z" fill="#7D7D7D"/>
<path fill-rule="evenodd" clip-rule="evenodd" d="M59.7231 68.4528C59.7027 66.6064 59.5188 65.0462 59.1681 63.7734C58.7536 62.2748 58.186 61.5258 57.4669 61.5258C56.7484 61.5258 56.1805 62.2748 55.7663 63.7734C55.4156 65.0462 55.2311 66.6064 55.2108 68.4528H50.5547C50.6083 66.1986 51.1914 64.272 52.3044 62.6737C53.5913 60.83 55.3123 59.9083 57.4669 59.9083C59.6218 59.9083 61.3428 60.83 62.6297 62.6737C63.7427 64.272 64.3255 66.1986 64.3791 68.4528H59.7231Z" fill="#7D7D7D"/>
<path fill-rule="evenodd" clip-rule="evenodd" d="M59.5117 72.5641C59.6387 71.5518 59.7094 70.4277 59.7232 69.1895H64.3786C64.3502 70.392 64.2068 71.5171 63.9476 72.5641H59.5117Z" fill="#7D7D7D"/>
<path fill-rule="evenodd" clip-rule="evenodd" d="M55.547 72.8728C55.6114 73.2044 55.6851 73.521 55.7678 73.8208C56.182 75.3195 56.7498 76.0685 57.4684 76.0685C58.1874 76.0685 58.755 75.3195 59.1695 73.8208C59.2522 73.521 59.325 73.2044 59.3887 72.8728H63.7087C63.4338 73.6213 63.0744 74.3209 62.6312 74.97C61.331 76.8628 59.6101 77.8094 57.4684 77.8094C55.3137 77.8094 53.5927 76.8711 52.3058 74.9947C51.8583 74.3395 51.4968 73.6319 51.2207 72.8728H55.547Z" fill="#7D7D7D"/>
<path fill-rule="evenodd" clip-rule="evenodd" d="M55.2121 69.1895C55.2259 70.4277 55.2954 71.5518 55.4227 72.5641H50.9828C50.727 71.5181 50.5848 70.3934 50.5566 69.1895H55.2121Z" fill="#7D7D7D"/>
<path fill-rule="evenodd" clip-rule="evenodd" d="M33.6836 75.7028H107.807V76.0509H33.6836V75.7028Z" fill="#282828"/>
<path fill-rule="evenodd" clip-rule="evenodd" d="M34.2461 72.4197H109.797V72.8673H34.2461V72.4197Z" fill="#282828"/>
<path fill-rule="evenodd" clip-rule="evenodd" d="M34.6816 68.4462H107.809V69.1921H34.6816V68.4462Z" fill="#282828"/>
<path fill-rule="evenodd" clip-rule="evenodd" d="M41.1406 73.5457V73.8525H41.6927V73.5457H41.1406Z" fill="#282828" stroke="#282828" stroke-width="0.288"/>
<rect width="40" height="14" transform="translate(46.0293 81.0995)" fill="#282828"/>
<path d="M54.2452 88.4631C54.2452 89.2467 54.0984 89.9179 53.8049 90.4766C53.5137 91.033 53.1159 91.4591 52.6117 91.755C52.1098 92.051 51.5404 92.1989 50.9036 92.1989C50.2667 92.1989 49.6962 92.051 49.1919 91.755C48.69 91.4567 48.2923 91.0294 47.9988 90.4731C47.7076 89.9144 47.562 89.2444 47.562 88.4631C47.562 87.6795 47.7076 87.0095 47.9988 86.4532C48.2923 85.8945 48.69 85.4671 49.1919 85.1712C49.6962 84.8753 50.2667 84.7273 50.9036 84.7273C51.5404 84.7273 52.1098 84.8753 52.6117 85.1712C53.1159 85.4671 53.5137 85.8945 53.8049 86.4532C54.0984 87.0095 54.2452 87.6795 54.2452 88.4631ZM52.9206 88.4631C52.9206 87.9115 52.8342 87.4463 52.6614 87.0675C52.4909 86.6864 52.2542 86.3987 51.9512 86.2046C51.6481 86.0081 51.2989 85.9099 50.9036 85.9099C50.5082 85.9099 50.159 86.0081 49.856 86.2046C49.553 86.3987 49.315 86.6864 49.1422 87.0675C48.9718 87.4463 48.8865 87.9115 48.8865 88.4631C48.8865 89.0147 48.9718 89.4811 49.1422 89.8623C49.315 90.2411 49.553 90.5287 49.856 90.7252C50.159 90.9193 50.5082 91.0164 50.9036 91.0164C51.2989 91.0164 51.6481 90.9193 51.9512 90.7252C52.2542 90.5287 52.4909 90.2411 52.6614 89.8623C52.8342 89.4811 52.9206 89.0147 52.9206 88.4631ZM61.4673 84.8268V92.0995H60.2955L56.8686 87.1457H56.8082V92.0995H55.4908V84.8268H56.6697L60.093 89.7841H60.157V84.8268H61.4673ZM62.9029 92.0995V84.8268H64.2203V90.9951H67.4235V92.0995H62.9029ZM69.8844 84.8268V92.0995H68.5669V84.8268H69.8844ZM77.2876 84.8268V92.0995H76.1158L72.6889 87.1457H72.6286V92.0995H71.3111V84.8268H72.4901L75.9134 89.7841H75.9773V84.8268H77.2876ZM78.7232 92.0995V84.8268H83.4533V85.9312H80.0407V87.9056H83.2083V89.01H80.0407V90.9951H83.4817V92.0995H78.7232Z" fill="#7D7D7D"/>
</g>
<g opacity="0.4">
<mask id="path-27-inside-1_119_574" fill="white">
<path d="M126 0.34729L136 0.347292L136 10.3473L126 10.3473L126 0.34729Z"/>
</mask>
<path d="M126 10.3473L125 10.3473L125 11.3473L126 11.3473L126 10.3473ZM136 9.34729L126 9.34729L126 11.3473L136 11.3473L136 9.34729ZM127 10.3473L127 0.34729L125 0.34729L125 10.3473L127 10.3473Z" fill="white" mask="url(#path-27-inside-1_119_574)"/>
</g>
<g opacity="0.4">
<mask id="path-29-inside-2_119_574" fill="white">
<path d="M10.5 135.347L0.5 135.347L0.499999 125.347L10.5 125.347L10.5 135.347Z"/>
</mask>
<path d="M10.5 125.347L11.5 125.347L11.5 124.347L10.5 124.347L10.5 125.347ZM0.499999 126.347L10.5 126.347L10.5 124.347L0.499999 124.347L0.499999 126.347ZM9.5 125.347L9.5 135.347L11.5 135.347L11.5 125.347L9.5 125.347Z" fill="white" mask="url(#path-29-inside-2_119_574)"/>
</g>
<defs>
<clipPath id="clip0_119_574">
<rect width="97" height="51.5044" fill="white" transform="translate(19.5 42.5951)"/>
</clipPath>
</defs>
</svg>
