<svg width="136" height="177" viewBox="0 0 136 177" fill="none" xmlns="http://www.w3.org/2000/svg">
<g clip-path="url(#clip0_119_620)">
<g clip-path="url(#clip1_119_620)">
<path d="M73.0944 85.9864C72.9042 85.816 72.6983 85.7171 72.4782 85.6859C72.258 85.656 72.047 85.6807 71.8477 85.7614C71.7474 85.8017 71.6536 85.8498 71.5689 85.9032C71.4842 85.9591 71.4021 86.028 71.3214 86.1074C70.8902 86.4872 70.4355 86.7591 69.9535 86.923C69.4728 87.0895 68.9478 87.1727 68.3759 87.1727C67.7363 87.1727 67.1371 87.057 66.5808 86.8267C66.0258 86.5978 65.5386 86.2817 65.1231 85.8823C64.7075 85.4817 64.3792 85.0095 64.1395 84.4645C63.8985 83.9181 63.7787 83.3354 63.7787 82.7162V78.2154H69.6695C69.8493 78.2154 70.0187 78.1803 70.1789 78.1087C70.3391 78.0398 70.4798 77.9474 70.5997 77.833C70.7195 77.7172 70.812 77.5819 70.8784 77.4284C70.9423 77.271 70.9748 77.1045 70.9748 76.9237C70.9748 76.7442 70.9397 76.5777 70.8706 76.4216C70.8003 76.2668 70.7078 76.1289 70.5918 76.0092C70.4772 75.8895 70.3391 75.7959 70.1789 75.7243C70.0187 75.6554 69.8493 75.6203 69.6695 75.6203H63.7787V72.4385C63.7787 72.2499 63.7461 72.0743 63.681 71.9143C63.6158 71.7543 63.5246 71.6138 63.41 71.4941C63.2954 71.3731 63.1599 71.2795 63.0048 71.2092C62.8485 71.139 62.6805 71.1039 62.502 71.1039C62.1411 71.1039 61.8324 71.2353 61.5771 71.4941C61.3217 71.7543 61.1941 72.0691 61.1941 72.4385V75.6203H57.7393C56.7167 75.6203 55.7526 75.818 54.846 76.2121C53.9393 76.6063 53.1472 77.1448 52.4724 77.8251C51.7963 78.5055 51.2622 79.299 50.8727 80.203C50.4819 81.1084 50.2852 82.0762 50.2852 83.1064V88.2823C50.2852 88.6518 50.4154 88.9587 50.676 89.2046C50.9352 89.4505 51.2518 89.5727 51.623 89.5727C51.9735 89.5727 52.2692 89.4505 52.5102 89.2046C52.7499 88.9587 52.8697 88.6518 52.8697 88.2823V83.1064C52.8697 82.4261 53.0013 81.7874 53.2619 81.1929C53.5211 80.5985 53.8715 80.0807 54.3118 79.6411C54.7535 79.2001 55.2693 78.8528 55.8595 78.5965C56.4509 78.3429 57.0775 78.2154 57.7393 78.2154H61.1941V82.6863C61.1941 83.6762 61.383 84.601 61.7568 85.4609C62.1333 86.322 62.644 87.0687 63.2901 87.7048C63.9363 88.3396 64.6984 88.8404 65.5725 89.2046C66.4505 89.5701 67.3833 89.7522 68.3759 89.7522C69.2787 89.7522 70.1216 89.6039 70.9084 89.3087C71.6939 89.0147 72.3922 88.5763 73.0032 87.9961C73.1439 87.8674 73.2546 87.7126 73.3341 87.5318C73.4148 87.3523 73.4591 87.1688 73.4695 86.9841C73.48 86.7994 73.4552 86.6186 73.394 86.4443C73.3341 86.2687 73.2351 86.1178 73.0944 85.9864Z" fill="#7D7D7D"/>
<path d="M116.123 83.9155C115.873 83.4563 115.538 83.0609 115.116 82.7305C114.695 82.4001 114.205 82.1191 113.643 81.8836C113.082 81.6469 112.496 81.4362 111.887 81.2463C111.506 81.1253 111.151 81.0134 110.818 80.908C110.489 80.804 110.203 80.6856 109.962 80.5555C109.723 80.4254 109.533 80.2732 109.392 80.0963C109.251 79.922 109.182 79.7048 109.182 79.4459C109.182 79.1741 109.245 78.9451 109.37 78.7552C109.495 78.5653 109.665 78.4079 109.879 78.2817C110.095 78.1568 110.352 78.0684 110.646 78.0137C110.941 77.9578 111.265 77.9292 111.616 77.9292C112.197 77.9292 112.688 78.0203 113.089 78.1998C113.489 78.3806 113.899 78.655 114.32 79.0258C114.549 79.135 114.781 79.1546 115.012 79.0856C115.241 79.0154 115.436 78.8957 115.597 78.7253C115.748 78.5653 115.84 78.3598 115.875 78.1087C115.909 77.8603 115.866 77.6053 115.748 77.3451C115.568 77.0043 115.323 76.7142 115.012 76.4749C114.7 76.2342 114.35 76.0365 113.959 75.883C113.568 75.7269 113.155 75.6151 112.72 75.5435C112.285 75.4759 111.85 75.4395 111.42 75.4395C110.749 75.4395 110.12 75.5292 109.534 75.71C108.949 75.8895 108.438 76.151 108.002 76.4892C107.567 76.83 107.22 77.245 106.965 77.7354C106.71 78.2258 106.582 78.7851 106.582 79.416C106.582 80.0066 106.699 80.5126 106.935 80.938C107.169 81.3633 107.476 81.7275 107.851 82.0332C108.229 82.3389 108.645 82.5952 109.107 82.8046C109.566 83.0166 110.017 83.2053 110.459 83.3757C110.808 83.4862 111.187 83.6111 111.593 83.7516C111.997 83.8908 112.371 84.0482 112.712 84.2225C113.053 84.3981 113.335 84.5997 113.561 84.8248C113.787 85.0485 113.899 85.297 113.899 85.5662C113.899 85.8264 113.834 86.0592 113.704 86.2635C113.574 86.4703 113.396 86.6459 113.17 86.7968C112.944 86.9477 112.688 87.0622 112.396 87.1415C112.105 87.2222 111.806 87.2612 111.494 87.2612C110.834 87.2612 110.241 87.1324 109.715 86.8709C109.189 86.6108 108.791 86.2817 108.52 85.881C108.189 85.5818 107.855 85.4088 107.513 85.3646C107.172 85.3204 106.885 85.3711 106.65 85.522C106.414 85.6729 106.256 85.8992 106.177 86.2049C106.097 86.5106 106.156 86.8514 106.357 87.2313C106.587 87.6813 106.896 88.0677 107.28 88.3877C107.666 88.7077 108.089 88.9691 108.549 89.1747C109.011 89.3802 109.497 89.5272 110.007 89.6182C110.519 89.7067 111.02 89.7522 111.51 89.7522C112.211 89.7522 112.868 89.6456 113.478 89.4296C114.089 89.215 114.617 88.9197 115.063 88.5451C115.509 88.1691 115.86 87.7243 116.115 87.2091C116.371 86.694 116.499 86.1412 116.499 85.5519C116.499 84.9223 116.373 84.376 116.123 83.9155Z" fill="#7D7D7D"/>
<path d="M22.4311 80.8859C22.6604 80.3461 22.973 79.8661 23.3691 79.4459C23.7638 79.0258 24.2275 78.6876 24.7577 78.4326C25.2893 78.1776 25.8611 78.045 26.4708 78.0346C27.0427 78.015 27.5833 78.0905 28.0927 78.2596C28.606 78.43 29.0958 78.7149 29.5661 79.1155C29.6963 79.2248 29.837 79.3302 29.9881 79.4303C30.1367 79.5305 30.2995 79.6007 30.4767 79.6411C30.6512 79.6801 30.8349 79.6775 31.0238 79.6333C31.214 79.5877 31.4146 79.4759 31.6257 79.295C31.9149 79.0453 32.0555 78.7292 32.0451 78.3494C32.0347 77.9695 31.8758 77.6248 31.5644 77.3139C30.9639 76.6947 30.237 76.2264 29.385 75.9116C28.5343 75.5969 27.638 75.4395 26.6962 75.4395C25.7048 75.4395 24.7734 75.6242 23.9032 75.9936C23.029 76.3643 22.267 76.8716 21.6104 77.5181C20.9538 78.162 20.4406 78.9204 20.0628 79.7893C19.6889 80.6609 19.5 81.5897 19.5 82.5809L19.53 82.6121L19.5 82.6706C19.5 83.6605 19.6889 84.5867 20.0628 85.4479C20.4406 86.3064 20.9538 87.057 21.6104 87.6969C22.267 88.3369 23.029 88.8391 23.9032 89.2046C24.7734 89.5701 25.7048 89.7522 26.6962 89.7522C27.6276 89.7522 28.5239 89.5857 29.3785 89.2579C30.2357 88.9275 30.9639 88.4527 31.5644 87.8322C31.8758 87.5213 32.0334 87.1792 32.0386 86.8033C32.0438 86.43 31.9057 86.1178 31.6257 85.8667C31.4146 85.6859 31.214 85.574 31.0238 85.5298C30.8349 85.4843 30.6512 85.4817 30.4767 85.522C30.2995 85.561 30.1367 85.6326 29.9881 85.7314C29.837 85.8316 29.6963 85.9318 29.5661 86.0306C29.0867 86.4417 28.5929 86.7344 28.0862 86.91C27.5807 87.0843 27.0427 87.1675 26.4708 87.1571C25.8507 87.1467 25.2749 87.0101 24.7434 86.7513C24.2132 86.4924 23.7494 86.149 23.3547 85.7223C22.9574 85.2996 22.6474 84.8196 22.422 84.2836C22.1966 83.749 22.0846 83.1962 22.0846 82.6251C22.0742 82.6251 22.0689 82.6199 22.0689 82.6121C22.0585 82.6004 22.0533 82.59 22.0533 82.5809L22.0846 82.551C22.0846 81.9812 22.1992 81.4258 22.4311 80.8859Z" fill="#7D7D7D"/>
<path d="M45.9955 77.5325C45.3493 76.8873 44.5925 76.3774 43.7275 76.0027C42.8599 75.6268 41.931 75.4408 40.941 75.4408C39.9587 75.4408 39.0325 75.6268 38.1597 76.0027C37.2882 76.3774 36.5274 76.8873 35.8773 77.5325C35.2247 78.1777 34.7114 78.9348 34.3375 79.8063C33.961 80.6752 33.7734 81.6053 33.7734 82.5952C33.7734 83.5864 33.961 84.5139 34.3375 85.379C34.7114 86.244 35.2247 87.0024 35.8773 87.6515C36.5274 88.3019 37.2882 88.8144 38.1597 89.1903C39.0325 89.5649 39.9587 89.7523 40.941 89.7523C41.931 89.7523 42.8599 89.5649 43.7275 89.1903C44.5925 88.8144 45.3493 88.3019 45.9955 87.6515C46.6416 87.0024 47.1536 86.244 47.5288 85.379C47.904 84.5139 48.0903 83.5864 48.0903 82.5952C48.0903 81.6053 47.904 80.6752 47.5288 79.8063C47.1536 78.9348 46.6416 78.1777 45.9955 77.5325ZM45.1383 84.3591C44.9038 84.9133 44.5807 85.3998 44.1704 85.8134C43.7587 86.2297 43.278 86.5601 42.7283 86.8033C42.1772 87.0492 41.5806 87.1728 40.941 87.1728C40.3078 87.1728 39.7125 87.0492 39.151 86.8033C38.5909 86.5601 38.105 86.2297 37.6946 85.8134C37.2829 85.3998 36.9573 84.9133 36.7176 84.3591C36.4779 83.8037 36.3567 83.217 36.3567 82.5952C36.3567 81.9656 36.4779 81.3738 36.7176 80.817C36.9573 80.2642 37.2869 79.7816 37.7011 79.3705C38.1167 78.9608 38.6026 78.6343 39.1589 78.3949C39.7151 78.1543 40.3078 78.0346 40.941 78.0346C41.5806 78.0346 42.1772 78.1543 42.7283 78.3949C43.278 78.6343 43.7587 78.9608 44.1704 79.3705C44.5807 79.7816 44.9038 80.2642 45.1383 80.817C45.3754 81.3738 45.4926 81.9656 45.4926 82.5952C45.4926 83.217 45.3754 83.8037 45.1383 84.3591Z" fill="#7D7D7D"/>
<path d="M86.8405 77.5104C86.1892 76.8704 85.431 76.3644 84.5634 75.9936C83.6984 75.6242 82.7735 75.4408 81.7925 75.4408C80.8012 75.4408 79.8697 75.6268 78.9982 76.0027C78.1254 76.3774 77.3633 76.8873 76.7133 77.5325C76.0632 78.1777 75.5486 78.9348 75.1734 79.8063C74.797 80.6752 74.6094 81.6053 74.6094 82.5952C74.6094 83.5864 74.797 84.5178 75.1734 85.3868C75.5486 86.257 76.0632 87.0141 76.7133 87.6593C77.3633 88.3045 78.1254 88.8144 78.9982 89.1903C79.8697 89.5649 80.8012 89.7523 81.7925 89.7523C82.3631 89.7523 82.8829 89.7054 83.3545 89.6105C83.8261 89.5155 84.256 89.3867 84.6468 89.2267C85.0363 89.068 85.3867 88.8768 85.6981 88.6557C86.0081 88.4371 86.283 88.2069 86.524 87.9676C86.8353 87.7074 86.9982 87.4173 87.0125 87.096C87.0268 86.7773 86.9539 86.4924 86.795 86.2414C86.7155 86.1217 86.6256 86.0137 86.524 85.9188C86.425 85.8238 86.309 85.751 86.1788 85.7016C85.9795 85.6326 85.771 85.6144 85.5561 85.6495C85.3411 85.6833 85.1131 85.7861 84.8721 85.9565C84.5204 86.3468 84.0775 86.6472 83.5421 86.8567C83.0067 87.0661 82.423 87.1728 81.7925 87.1728C81.261 87.1728 80.7582 87.0869 80.2827 86.9165C79.8046 86.7461 79.3812 86.512 79.0034 86.2102C78.6295 85.9123 78.3078 85.5533 78.042 85.1396C77.7776 84.7246 77.5939 84.2668 77.4949 83.766H87.7121C88.0925 83.766 88.4012 83.6515 88.6357 83.4212C88.8715 83.191 88.9887 82.8957 88.9887 82.5354C88.9783 81.5559 88.7803 80.6323 88.3947 79.7686C88.0091 78.9035 87.4906 78.1491 86.8405 77.5104ZM77.4193 81.6053C77.5092 81.0863 77.6812 80.6076 77.9378 80.1731C78.1931 79.7374 78.5149 79.3627 78.9083 79.0479C79.2978 78.7318 79.7408 78.486 80.2371 78.3052C80.7308 78.1257 81.2662 78.0346 81.8381 78.0346C82.4074 78.0346 82.9441 78.1231 83.4444 78.2974C83.9446 78.473 84.3927 78.7188 84.7888 79.0323C85.1848 79.3471 85.5157 79.723 85.7814 80.1575C86.0472 80.5933 86.2244 81.0759 86.3156 81.6053H77.4193Z" fill="#7D7D7D"/>
<path d="M102.609 77.5325C101.964 76.8873 101.207 76.3774 100.341 76.0027C99.4757 75.6268 98.5469 75.4408 97.5542 75.4408C96.572 75.4408 95.6458 75.6268 94.7756 76.0027C93.9027 76.3774 93.142 76.8873 92.4906 77.5325C91.8392 78.1777 91.326 78.9348 90.9508 79.8063C90.5756 80.6752 90.3867 81.6053 90.3867 82.5952C90.3867 83.5864 90.5756 84.5139 90.9508 85.379C91.326 86.244 91.8392 87.0024 92.4906 87.6515C93.142 88.3019 93.9027 88.8144 94.7756 89.1903C95.6458 89.5649 96.572 89.7523 97.5542 89.7523C98.5469 89.7523 99.4757 89.5649 100.341 89.1903C101.207 88.8144 101.964 88.3019 102.609 87.6515C103.256 87.0024 103.767 86.244 104.143 85.379C104.519 84.5139 104.706 83.5864 104.706 82.5952C104.706 81.6053 104.519 80.6752 104.143 79.8063C103.767 78.9348 103.256 78.1777 102.609 77.5325ZM101.753 84.3591C101.518 84.9133 101.194 85.3998 100.785 85.8134C100.375 86.2297 99.8926 86.5601 99.3429 86.8033C98.7905 87.0492 98.1965 87.1728 97.5542 87.1728C96.9224 87.1728 96.3271 87.0492 95.7656 86.8033C95.2055 86.5601 94.7195 86.2297 94.3092 85.8134C93.8975 85.3998 93.5718 84.9133 93.3322 84.3591C93.0925 83.8037 92.9726 83.217 92.9726 82.5952C92.9726 81.9656 93.0925 81.3738 93.3322 80.817C93.5718 80.2642 93.9014 79.7816 94.3157 79.3705C94.7313 78.9608 95.2172 78.6343 95.7734 78.3949C96.3297 78.1543 96.9224 78.0346 97.5542 78.0346C98.1965 78.0346 98.7905 78.1543 99.3429 78.3949C99.8926 78.6343 100.375 78.9608 100.785 79.3705C101.194 79.7816 101.518 80.2642 101.753 80.817C101.989 81.3738 102.107 81.9656 102.107 82.5952C102.107 83.217 101.989 83.8037 101.753 84.3591Z" fill="#7D7D7D"/>
<path d="M57.7621 78.2192H57.7464C57.0847 78.2192 56.4581 78.348 55.8653 78.603C55.2726 78.8592 54.7567 79.2079 54.3151 79.6488C53.8735 80.0898 53.5217 80.6088 53.2599 81.2046C52.9994 81.8017 52.8691 82.4404 52.8691 83.1207V88.307C52.8691 88.6777 52.7479 88.9873 52.5082 89.2319C52.2672 89.4777 51.9715 89.6013 51.6198 89.6013C51.2485 89.6013 50.932 89.4777 50.6701 89.2319C50.4096 88.9873 50.2793 88.6777 50.2793 88.307V83.1207C50.2793 82.0891 50.4747 81.1187 50.8668 80.2121C51.2576 79.3054 51.793 78.5119 52.4705 77.829C53.1479 77.1487 53.9412 76.6089 54.8492 76.2134C55.7572 75.818 56.7225 75.6202 57.7464 75.6202H57.822C58.2545 75.6202 58.588 75.7425 58.8238 75.9884C59.0596 76.2329 59.1768 76.5425 59.1768 76.9119C59.1768 77.284 59.0466 77.5936 58.786 77.8446C58.5255 78.0957 58.2037 78.2192 57.822 78.2192H57.7621Z" fill="#7D7D7D"/>
<path d="M22.5907 96.6179C21.8025 96.6179 21.1668 96.8976 20.7213 97.3672V96.7077H19.502V105.591H20.7213V102.165C21.1668 102.634 21.8025 102.914 22.5907 102.914C24.3689 102.914 25.4371 101.492 25.4371 99.7659C25.4371 98.0397 24.3689 96.6179 22.5907 96.6179ZM22.45 101.708C21.3323 101.708 20.7721 100.82 20.7721 99.7659C20.7721 98.7122 21.344 97.8238 22.45 97.8238C23.543 97.8238 24.1149 98.7122 24.1149 99.7659C24.1149 100.82 23.556 101.708 22.45 101.708Z" fill="#7D7D7D"/>
<path d="M28.6912 101.556C28.475 101.746 28.1949 101.77 27.9786 101.682C27.7116 101.567 27.61 101.302 27.61 100.844V93.306H26.3906V100.857C26.3906 101.975 26.7072 102.634 27.4836 102.85C28.118 103.027 28.8436 102.863 29.3139 102.405L28.6912 101.556Z" fill="#7D7D7D"/>
<path d="M32.4415 96.6062C30.8522 96.6062 30.1149 97.6468 29.9624 98.4208L31.0554 98.6485C31.2339 98.002 31.7419 97.7093 32.3516 97.6846C32.8727 97.6468 33.5592 97.9135 33.4706 98.5093C33.4068 98.9411 32.7333 98.9919 31.9452 99.1948C30.6867 99.5252 29.8478 99.8803 29.7084 101.086C29.5938 102.088 30.3689 103.04 31.8058 102.914C32.7594 102.824 33.2804 102.367 33.5084 102.101V102.824H34.703V98.8527C34.703 97.228 33.7247 96.6062 32.4415 96.6062ZM33.5084 100.209C33.5084 101.175 32.5939 101.77 31.9712 101.821C31.2977 101.873 31.0684 101.618 31.0307 101.34C30.9916 101.098 31.0554 100.578 32.1484 100.299C32.9626 100.096 33.5084 99.9441 33.5084 99.9441V100.209Z" fill="#7D7D7D"/>
<path d="M38.5921 101.466C38.3888 101.669 38.0071 101.783 37.7531 101.682C37.4861 101.58 37.3714 101.353 37.3714 100.806V97.799H38.6298V96.7076H37.3714V95.0959L36.1638 95.4251V96.7076H35.3379V97.799H36.1638V100.857C36.1638 101.975 36.5077 102.596 37.2698 102.837C37.8925 103.027 38.7823 102.85 39.2525 102.393L38.5921 101.466Z" fill="#7D7D7D"/>
<path d="M41.2997 93.9408C40.5363 94.1815 40.1559 94.8033 40.1559 95.9206V96.7076H39.4434V97.812H40.1559V102.824H41.3753V97.812H42.4813V96.7076H41.3753V95.9337C41.3753 95.4758 41.4769 95.2104 41.744 95.0959C41.9732 95.0062 42.4057 95.0959 42.6467 95.3119L43.3333 94.4234C42.863 93.9655 41.9354 93.7509 41.2997 93.9408Z" fill="#7D7D7D"/>
<path d="M46.0639 96.6179C44.2844 96.6179 43.0781 98.0397 43.0781 99.7659C43.0781 101.492 44.2975 102.914 46.0639 102.914C47.8434 102.914 49.0511 101.492 49.0511 99.7659C49.0511 98.0397 47.8434 96.6179 46.0639 96.6179ZM46.0639 101.708C44.9592 101.708 44.3613 100.82 44.3613 99.7659C44.3613 98.7122 44.9592 97.8238 46.0639 97.8238C47.183 97.8238 47.7679 98.7122 47.7679 99.7659C47.7679 100.82 47.1699 101.708 46.0639 101.708Z" fill="#7D7D7D"/>
<path d="M52.7885 96.6062C52.154 96.6062 51.6199 96.8599 51.2135 97.2787V96.7077H50.0059V102.824H51.2135V99.4107C51.2135 98.2686 51.8231 97.8238 52.5605 97.8238C52.7376 97.8238 52.8914 97.8498 53.0438 97.9135L53.2718 96.6569C53.1193 96.6309 52.9539 96.6062 52.7885 96.6062Z" fill="#7D7D7D"/>
<path d="M60.4406 96.6179C59.6264 96.6179 58.992 96.986 58.5725 97.6208C58.1778 96.9613 57.5303 96.6179 56.6784 96.6179C56.0804 96.6179 55.6101 96.8339 55.2415 97.189V96.7077H54.0352V102.824H55.2415V99.4108C55.2415 98.2686 55.7378 97.8238 56.4869 97.8238C57.1994 97.8238 57.7713 98.2934 57.7713 99.4862V102.824H58.9789V99.4108C58.9789 98.2686 59.5118 97.8238 60.2621 97.8238C60.9617 97.8238 61.4958 98.2934 61.4958 99.4862V102.824H62.7151V99.373C62.7151 97.6078 61.8892 96.6179 60.4406 96.6179Z" fill="#7D7D7D"/>
</g>
</g>
<g opacity="0.4">
<mask id="path-16-inside-1_119_620" fill="white">
<path d="M126 20.3473L136 20.3473L136 30.3473L126 30.3473L126 20.3473Z"/>
</mask>
<path d="M126 30.3473L125 30.3473L125 31.3473L126 31.3473L126 30.3473ZM136 29.3473L126 29.3473L126 31.3473L136 31.3473L136 29.3473ZM127 30.3473L127 20.3473L125 20.3473L125 30.3473L127 30.3473Z" fill="white" mask="url(#path-16-inside-1_119_620)"/>
</g>
<g opacity="0.4">
<mask id="path-18-inside-2_119_620" fill="white">
<path d="M10.5 155.347L0.5 155.347L0.499999 145.347L10.5 145.347L10.5 155.347Z"/>
</mask>
<path d="M10.5 145.347L11.5 145.347L11.5 144.347L10.5 144.347L10.5 145.347ZM0.499999 146.347L10.5 146.347L10.5 144.347L0.499999 144.347L0.499999 146.347ZM9.5 145.347L9.5 155.347L11.5 155.347L11.5 145.347L9.5 145.347Z" fill="white" mask="url(#path-18-inside-2_119_620)"/>
</g>
<defs>
<clipPath id="clip0_119_620">
<rect width="97" height="97" fill="white" transform="translate(19.5 39.8473)"/>
</clipPath>
<clipPath id="clip1_119_620">
<rect width="97" height="34.4889" fill="white" transform="translate(19.5 71.1029)"/>
</clipPath>
</defs>
</svg>
