<svg width="136" height="177" viewBox="0 0 136 177" fill="none" xmlns="http://www.w3.org/2000/svg">
<path fill-rule="evenodd" clip-rule="evenodd" d="M64.9818 60.6521C63.2289 61.0763 60.6039 62.3546 60.0055 63.0758C59.6188 63.5419 59.8184 63.8518 60.9557 64.5511L62.3952 65.4362L63.0418 64.464C63.3975 63.9294 64.3416 62.7628 65.1396 61.8717C65.938 60.9806 66.52 60.271 66.4329 60.2952C66.3463 60.3197 65.6932 60.4801 64.9818 60.6521ZM70.898 61.9144C71.6753 62.7822 72.6017 63.9294 72.9574 64.464L73.604 65.4362L75.0435 64.5511C76.1808 63.8518 76.3804 63.5419 75.9937 63.0758C75.3673 62.3209 72.7345 61.0694 70.9049 60.6569L69.4856 60.337L70.898 61.9144ZM66.2053 62.0834C65.7285 62.6167 64.9154 63.6699 64.3985 64.423C63.363 65.9324 63.2712 65.8259 66.1674 66.4704L67.3529 66.7342V63.9238C67.3529 62.3783 67.2896 61.1134 67.2124 61.1134C67.1352 61.1134 66.6821 61.5501 66.2053 62.0834ZM68.6463 63.863C68.6463 65.4331 68.792 66.7166 68.9696 66.7153C69.1472 66.714 70.0228 66.5105 70.9152 66.2626L72.5375 65.8121L71.2752 63.9768C70.5807 62.9676 69.7051 61.8864 69.3291 61.5747C68.7178 61.0673 68.6463 61.3065 68.6463 63.863ZM57.5396 65.296C56.1177 67.3171 55.2715 69.2213 54.8921 71.2505L54.5308 73.1845H57.4551H60.3793L60.688 71.3579C60.8578 70.3534 61.2424 68.835 61.5424 67.9845C62.0455 66.5588 62.0158 66.3919 61.1639 65.8651C60.6556 65.5504 59.8231 65.0219 59.3136 64.6912C58.4682 64.142 58.3143 64.1946 57.5396 65.296ZM75.6553 65.3508C74.3473 66.2165 73.9705 66.6954 74.246 67.1412C74.4529 67.4757 74.865 68.9726 75.1621 70.4672L75.7023 73.1845H78.5851H81.4684L81.0985 71.2057C80.7329 69.2489 78.8731 65.3573 77.9289 64.5735C77.6073 64.3071 76.8318 64.5722 75.6553 65.3508ZM62.5426 67.9707C62.3081 68.5859 62.0063 70.0107 61.8722 71.1367L61.6282 73.1845H64.4908H67.3529V70.4672V67.7504L65.1612 67.3016C63.0224 66.8631 62.959 66.8795 62.5426 67.9707ZM70.694 67.308L68.6463 67.7245V70.4547V73.1845H71.4485C74.1666 73.1845 74.2507 73.1513 74.2507 72.0822C74.2507 70.7302 73.3833 67.1796 73.0121 67.0127C72.8634 66.9459 71.8201 67.0787 70.694 67.308ZM54.8507 75.2633C54.8507 77.1115 56.038 80.2043 57.3456 81.7615L58.5152 83.1548L60.3474 82.1577C61.6386 81.4545 62.0968 80.9691 61.9007 80.5134C61.7476 80.1577 61.3269 78.5575 60.9652 76.9567L60.3086 74.0467H57.5796C54.8731 74.0467 54.8507 74.0567 54.8507 75.2633ZM61.7812 75.6634C61.7994 76.5528 62.0641 77.9591 62.3697 78.789C62.8444 80.0771 63.1073 80.2845 64.1692 80.2056C67.2637 79.9767 67.3529 79.8823 67.3529 76.8408V74.0467H64.5507H61.7485L61.7812 75.6634ZM68.6463 76.8408C68.6463 79.8823 68.7355 79.9767 71.83 80.2056C72.8918 80.2845 73.1548 80.0771 73.6295 78.789C73.9351 77.9591 74.1998 76.5528 74.2179 75.6634L74.2507 74.0467H71.4485H68.6463V76.8408ZM75.1957 76.5079C74.9172 77.881 74.5732 79.5089 74.4318 80.125C74.2119 81.0842 74.4128 81.386 75.8217 82.2176L77.4685 83.1889L78.6549 81.7684C79.8129 80.3806 80.9679 77.5008 81.2321 75.3401C81.3597 74.2972 81.2727 74.2584 78.5334 74.1368L75.7027 74.011L75.1957 76.5079ZM25.5352 78.7083C25.5352 78.901 26.0753 79.5766 26.7358 80.209L27.9369 81.3597L38.268 81.4752C51.6467 81.6252 52.0446 82.3702 38.9056 82.669L29.4251 82.8845L30.4563 84.1778L31.4875 85.4712L41.0858 85.6867C48.225 85.8471 50.7306 86.0402 50.8634 86.4412C51.0026 86.8602 49.1191 86.9801 42.3843 86.9801C37.6222 86.9801 33.7263 87.1404 33.7263 87.3362C33.7263 87.9264 35.5856 89.4788 36.8798 89.969C37.5705 90.2306 41.3319 90.429 45.6098 90.429C50.3335 90.429 53.1263 90.5893 53.1263 90.8601C53.1263 91.1312 50.324 91.2912 45.5818 91.2912C41.3302 91.2912 38.0374 91.4628 38.0374 91.6839C38.0374 92.4276 40.6521 94.2753 42.0847 94.5439C42.874 94.6918 46.8937 94.7474 51.0177 94.6672C59.3614 94.5051 60.6367 94.1563 62.1848 91.6098L63.0142 90.2462L60.5685 88.9365C57.08 87.0689 53.9303 83.8278 52.6969 80.8367L51.6743 78.3578H38.6047C31.4164 78.3578 25.5352 78.5156 25.5352 78.7083ZM83.2997 80.8367C82.0508 83.8571 78.8968 87.1124 75.4501 88.9395L72.985 90.2462L73.8144 91.6098C75.3625 94.1563 76.6378 94.5051 84.9815 94.6672C89.1055 94.7474 93.1252 94.6918 93.9146 94.5439C95.3471 94.2753 97.9618 92.4276 97.9618 91.6839C97.9618 91.4628 94.669 91.2912 90.4174 91.2912C85.6752 91.2912 82.8729 91.1312 82.8729 90.8601C82.8729 90.5893 85.6657 90.429 90.3894 90.429C94.6673 90.429 98.4287 90.2306 99.1194 89.969C100.414 89.4788 102.273 87.9264 102.273 87.3362C102.273 87.1404 98.377 86.9801 93.6149 86.9801C86.8801 86.9801 84.9966 86.8602 85.1358 86.4412C85.2686 86.0402 87.7742 85.8471 94.9134 85.6867L104.512 85.4712L105.543 84.1778L106.574 82.8845L97.0936 82.669C83.9322 82.3698 84.3585 81.6248 97.7769 81.4761L108.154 81.3605L109.609 79.8594L111.064 78.3578H97.6945H84.3249L83.2997 80.8367ZM64.4128 81.3118L63.4121 81.5933L64.6641 83.3169C65.3526 84.2645 66.2394 85.3065 66.6343 85.6316C67.2913 86.1726 67.3529 85.9967 67.3529 83.5838C67.3529 80.7259 67.124 80.5492 64.4128 81.3118ZM68.6463 83.6118V86.2791L69.978 85.0129C70.7104 84.3167 71.5765 83.2363 71.9029 82.6121C72.475 81.517 72.4491 81.4679 71.164 81.2109C68.6769 80.7134 68.6463 80.7428 68.6463 83.6118ZM60.7763 82.997C60.1232 83.4023 59.6473 83.9097 59.7192 84.1253C59.8917 84.6434 63.3565 86.4205 64.9426 86.8042L66.1967 87.1081L64.6193 85.0422C63.7519 83.9058 63.0418 82.8099 63.0418 82.6069C63.0418 82.0266 62.0723 82.1939 60.7763 82.997ZM71.655 84.671L69.818 87.1042L71.0644 86.8025C72.7496 86.3946 76.1127 84.6279 76.3054 84.0494C76.4326 83.6683 74.3568 82.2378 73.6773 82.2378C73.5756 82.2378 72.6655 83.3329 71.655 84.671ZM39.1923 106.488C38.3016 111.052 37.5804 114.932 37.5895 115.11C37.5989 115.288 38.8267 115.433 40.3184 115.433H43.0305L44.6355 107.35C45.5184 102.904 46.238 99.0245 46.2345 98.7278C46.2302 98.3545 45.396 98.189 43.5198 98.189H40.8116L39.1923 106.488ZM50.8828 106.811L46.7299 115.433H49.5075C51.992 115.433 52.3244 115.331 52.6533 114.463C52.9913 113.572 53.2487 113.505 55.8349 113.636C58.178 113.755 58.6846 113.917 58.8648 114.606C59.0476 115.305 59.48 115.433 61.6442 115.433H64.2071L62.484 106.811L60.7608 98.189H57.8982H55.0361L50.8828 106.811ZM67.1395 99.5901C66.9843 100.36 66.7619 101.33 66.6451 101.746C66.4601 102.403 66.7602 102.5 68.9765 102.5H71.5205L70.7346 107.997C70.3026 111.02 69.846 113.93 69.7206 114.463C69.5016 115.392 69.6094 115.433 72.2521 115.433C75.4962 115.433 75.1535 116.066 76.2463 108.057L77.0042 102.5H79.2667C80.5109 102.5 81.615 102.354 81.7201 102.177C81.8253 101.999 82.0478 101.029 82.2146 100.021L82.5177 98.189H74.9694H67.4215L67.1395 99.5901ZM85.0393 106.811L80.7506 115.433H83.5209C85.8088 115.433 86.3684 115.29 86.7331 114.608C87.0849 113.951 87.7501 113.753 90.0014 113.638C92.6307 113.503 92.845 113.561 93.0704 114.463C93.2877 115.332 93.5783 115.433 95.8528 115.433C97.2501 115.433 98.3929 115.367 98.3929 115.286C98.3929 115.205 97.8278 112.44 97.1371 109.143C96.4465 105.845 95.6571 102.031 95.3821 100.668L94.8828 98.189H92.1052H89.3275L85.0393 106.811ZM56.6847 104.656C56.4329 105.248 55.8272 106.655 55.3387 107.781L54.4502 109.829H56.3096H58.169L57.7969 107.35C57.2235 103.529 57.1938 103.456 56.6847 104.656ZM90.0746 106.429C89.4319 107.943 88.9068 109.328 88.9072 109.506C88.9081 109.683 89.6806 109.829 90.6247 109.829H92.341L92.0638 107.781C91.4831 103.489 91.3585 103.405 90.0746 106.429Z" fill="#7D7D7D"/>
<g opacity="0.4">
<mask id="path-2-inside-1_119_613" fill="white">
<path d="M126 20.3473L136 20.3473L136 30.3473L126 30.3473L126 20.3473Z"/>
</mask>
<path d="M126 30.3473L125 30.3473L125 31.3473L126 31.3473L126 30.3473ZM136 29.3473L126 29.3473L126 31.3473L136 31.3473L136 29.3473ZM127 30.3473L127 20.3473L125 20.3473L125 30.3473L127 30.3473Z" fill="white" mask="url(#path-2-inside-1_119_613)"/>
</g>
<g opacity="0.4">
<mask id="path-4-inside-2_119_613" fill="white">
<path d="M10.5 155.347L0.5 155.347L0.499999 145.347L10.5 145.347L10.5 155.347Z"/>
</mask>
<path d="M10.5 145.347L11.5 145.347L11.5 144.347L10.5 144.347L10.5 145.347ZM0.499999 146.347L10.5 146.347L10.5 144.347L0.499999 144.347L0.499999 146.347ZM9.5 145.347L9.5 155.347L11.5 155.347L11.5 145.347L9.5 145.347Z" fill="white" mask="url(#path-4-inside-2_119_613)"/>
</g>
</svg>
