<svg width="136" height="177" viewBox="0 0 136 177" fill="none" xmlns="http://www.w3.org/2000/svg">
<g clip-path="url(#clip0_119_606)">
<path fill-rule="evenodd" clip-rule="evenodd" d="M71.3121 41.1999C71.8319 41.5802 72.2907 41.6141 72.8517 41.3137C73.9513 40.7252 73.8762 40.6587 72.1113 40.6587C70.7675 40.6587 70.6657 40.7274 71.3121 41.1999ZM69.6172 43.573C69.061 48.0255 69.079 48.6419 69.767 48.6402C70.1327 48.6393 70.9739 47.7217 71.6366 46.6014L72.8414 44.5644L72.6654 46.8178C72.5328 48.5127 72.6332 49.0711 73.0701 49.0711C73.3895 49.0711 73.6646 49.0226 73.6813 48.9638C73.6981 48.905 73.8483 47.3598 74.0148 45.5302C74.2723 42.7013 74.2196 42.2043 73.6624 42.2055C73.3019 42.2064 72.4693 43.124 71.8122 44.2443L70.6168 46.2813L70.7391 44.173C70.8967 41.4467 69.9464 40.9381 69.6172 43.573ZM61.1344 44.6572L60.4589 47.1397L60.1322 44.8863C59.9202 43.4223 59.5996 42.633 59.2172 42.633C58.5051 42.633 58.488 43.2562 59.1021 46.7826C59.6726 50.06 60.4456 50.3089 61.2113 47.4616C61.9791 44.6078 62.3383 44.4112 62.5972 46.7049C62.8362 48.8273 63.0667 49.2968 63.6826 48.9161C63.9135 48.7732 63.8818 47.4036 63.6041 45.5525C62.989 41.4549 62.0941 41.1308 61.1344 44.6572ZM80.546 44.7511C79.4267 45.8705 78.7125 48.5324 79.258 49.5518C79.7756 50.5184 81.2448 51.3493 81.8147 50.9969C82.5173 50.5626 82.2847 49.9295 81.4224 49.9295C80.3409 49.9295 80.0516 49.0282 80.5512 47.2182C81.0636 45.3623 82.0581 44.4305 82.768 45.1404C83.4384 45.8109 83.9517 45.7671 83.9517 45.0396C83.9517 43.7588 81.7268 43.5704 80.546 44.7511ZM50.2545 45.4889C49.7322 46.0113 49.6167 46.6062 49.8172 47.7423C50.3717 50.8879 52.6246 52.4644 54.5509 51.0557C55.5814 50.3025 55.0509 49.5449 53.9672 50.2218C52.898 50.8896 51.9241 50.2201 51.3254 48.4062C50.7202 46.5723 51.0078 45.6375 52.1774 45.6375C52.6568 45.6375 53.0491 45.4443 53.0491 45.2082C53.0491 44.5138 51.0263 44.7168 50.2545 45.4889ZM88.0498 49.9527C87.2124 51.3815 86.527 52.7335 86.527 52.9571C86.527 53.8099 87.6996 53.3133 88.1811 52.2562C88.7472 51.0141 89.84 51.0755 89.5743 52.3347C89.2219 54.0035 89.334 54.8653 89.9031 54.8653C90.267 54.8653 90.543 54.264 90.6314 53.2786C90.7671 51.7669 92.0474 49.9295 92.965 49.9295C93.5354 49.9295 93.514 49.196 92.9333 48.8367C92.6796 48.6801 92.0397 48.9586 91.5109 49.4552C89.87 50.9969 88.9369 50.5398 90.1602 48.7938C90.7559 47.9431 90.6533 47.3543 89.9095 47.3543C89.7241 47.3543 88.8872 48.5234 88.0498 49.9527ZM42.2817 49.5376C41.6258 50.1934 41.461 50.7321 41.6666 51.5502C42.0864 53.2223 43.5341 55.0452 44.668 55.3302C45.8715 55.6319 47.4694 54.8688 47.4694 53.9919C47.4694 53.2751 46.7934 53.1498 46.3964 53.7923C45.8518 54.6739 44.5084 54.1782 43.6418 52.776C42.5194 50.9604 42.5091 50.063 43.6066 49.7149C44.0787 49.5651 44.465 49.2625 44.465 49.0423C44.465 48.3307 43.2023 48.617 42.2817 49.5376ZM60.3456 53.1717C55.0445 54.3095 50.3902 56.4534 45.9883 59.7853L43.1319 61.9472H39.721H36.3102V66.2534C36.3102 69.9214 36.1599 70.86 35.2968 72.5841C30.4477 82.2713 30.403 94.3542 35.1792 104.172C41.5773 117.325 53.8139 124.877 68.5004 124.738C76.2523 124.665 83.0375 122.455 89.3554 117.947C90.8353 116.891 92.4457 116.027 92.9345 116.027C93.5809 116.027 93.8234 115.752 93.8234 115.02C93.8234 114.467 94.2325 113.646 94.7329 113.196C97.7854 110.451 101.796 103.042 103.306 97.3565C104.575 92.5764 104.573 84.5958 103.301 79.7823C99.7181 66.2268 89.0061 56.0173 75.3527 53.1455C71.5928 52.3545 64.0921 52.3678 60.3456 53.1717ZM96.024 55.3993C93.4307 58.356 93.6839 59.1054 96.8274 57.7775C98.0082 57.2787 98.9739 56.9895 98.9739 57.135C98.9739 57.2805 98.3562 58.0371 97.6013 58.8157C96.6626 59.784 96.3678 60.3712 96.6691 60.6725C96.9704 60.9738 97.8116 60.3707 99.3293 58.7659C102.41 55.5091 102.29 54.5014 98.9983 55.9752C97.9704 56.4354 97.0669 56.7495 96.9905 56.6731C96.9141 56.5967 97.4189 55.8461 98.112 55.0052C99.255 53.6185 99.3859 52.9339 98.5086 52.9339C98.3314 52.9339 97.2133 54.0434 96.024 55.3993ZM62.3456 54.2142C59.6721 54.6988 54.8573 56.204 53.4783 56.9865L52.4053 57.5955L54.7659 58.6779C60.473 61.2957 68.2292 62.1725 74.4767 60.9068C78.2481 60.1424 83.5225 58.238 83.5225 57.6406C83.5225 57.235 79.7026 55.7469 76.2325 54.7997C73.4084 54.0292 65.2625 53.6854 62.3456 54.2142ZM34.4092 55.7542C33.0134 57.15 33.944 59.6505 36.3149 60.8768C38.063 61.7807 38.7592 61.6807 39.5953 60.4046C40.2829 59.3552 40.2816 59.2114 39.579 57.9067C38.8146 56.4869 36.9029 55.0799 35.738 55.0799C35.3784 55.0799 34.7805 55.3834 34.4092 55.7542ZM34.8238 56.771C34.4513 57.374 37.1325 60.2304 38.0716 60.2304C39.2442 60.2304 39.0854 58.984 37.7321 57.5715C36.5775 56.3667 35.2925 56.0126 34.8238 56.771ZM47.9081 60.1407L45.5569 61.7326L51.9855 61.9742C57.4257 62.1785 58.7601 62.3678 60.664 63.2056C63.6011 64.4984 65.6617 66.8079 66.3806 69.6132L66.9458 71.8189H69.8129C73.6251 71.8189 79.2863 70.7995 83.1629 69.4153C87.3802 67.9097 93.0367 64.9546 92.8427 64.3585C92.6466 63.7563 87.9858 59.9394 86.4695 59.1393C85.4535 58.6033 85.1243 58.6466 83.2178 59.5664C78.1833 61.9948 75.199 62.591 68.0712 62.591C60.916 62.591 57.6969 61.9416 52.9667 59.5449C51.8473 58.9775 50.7803 58.5213 50.5953 58.5312C50.4103 58.5406 49.2013 59.2651 47.9081 60.1407ZM103.348 62.8867C99.7087 65.2787 99.7919 66.0362 103.629 65.4293C104.846 65.237 105.841 65.122 105.841 65.1731C105.841 65.2246 105.074 65.7744 104.137 66.3946C103.041 67.1199 102.518 67.7449 102.672 68.1462C102.859 68.6316 103.521 68.3698 105.655 66.9684C109.27 64.5937 109.291 63.8936 105.734 64.2546L103.051 64.5267L104.875 63.4082C105.879 62.7927 106.7 62.127 106.7 61.9287C106.7 61.0162 105.806 61.2716 103.348 62.8867ZM107.558 61.9322C107.558 62.3957 107.944 62.982 108.416 63.2348C108.998 63.5464 109.275 63.5511 109.275 63.2498C109.275 63.0056 109.082 62.8056 108.846 62.8056C108.609 62.8056 108.416 62.4193 108.416 61.9472C108.416 61.4751 108.223 61.0888 107.987 61.0888C107.751 61.0888 107.558 61.4682 107.558 61.9322ZM28.3978 63.4829C26.6093 65.2714 26.726 65.6156 29.7468 67.4556C32.3692 69.0527 33.3057 69.3097 33.3057 68.4325C33.3057 68.25 32.8388 67.8513 32.2683 67.5457C31.3829 67.0719 31.267 66.7693 31.4765 65.4778C31.8413 63.2288 29.906 61.9747 28.3978 63.4829ZM28.7587 64.5876C28.3587 65.2349 29.9004 66.3826 30.4425 65.8405C30.9893 65.2937 30.4768 64.0932 29.6961 64.0932C29.3489 64.0932 28.927 64.3155 28.7587 64.5876ZM91.0336 67.5389C85.2346 70.8051 78.5403 72.6833 70.364 73.3378C67.2841 73.5842 66.8338 73.7271 66.6252 74.5237C66.4952 75.022 66.4364 75.4774 66.4948 75.5358C66.5531 75.5946 67.8493 75.4619 69.3747 75.2413C70.9005 75.0212 74.3217 74.8366 76.9772 74.8319L81.8057 74.8233V78.0423C81.8057 79.8128 81.9813 81.2613 82.1963 81.2613C84.6548 81.2613 99.4031 74.8624 99.4031 73.7958C99.4031 72.8129 94.9007 65.8688 94.2526 65.8521C94.1346 65.8491 92.686 66.6079 91.0336 67.5389ZM48.7571 72.8365V76.1109H50.6408C52.8856 76.1109 54.2285 75.1555 54.5852 73.3052C54.9633 71.3442 53.7766 70.1956 51.0104 69.8467L48.7571 69.5621V72.8365ZM108.094 73.8198C107.357 74.1177 107.42 75.4619 108.202 76.1109C108.994 76.7684 110.133 76.0053 110.133 74.8169C110.133 74.2297 109.141 73.3644 108.703 73.5696C108.664 73.588 108.39 73.7009 108.094 73.8198ZM25.8333 74.6632C25.5324 75.4465 26.2604 76.5401 27.0823 76.5401C27.9042 76.5401 28.6321 75.4465 28.3313 74.6632C27.984 73.758 26.1805 73.758 25.8333 74.6632ZM34.668 78.211C33.2216 82.7013 32.6963 88.0273 33.2632 92.4485C33.6564 95.5161 35.1328 101.228 35.6797 101.799C35.7591 101.882 38.0094 100.882 40.6807 99.5785C43.3525 98.275 47.4909 96.5968 49.8773 95.8491L54.2165 94.4898L54.0058 91.5446C53.8199 88.9437 54.1813 86.2886 55.0187 84.1065C55.2483 83.5074 54.9114 83.4074 52.6658 83.4074H50.0447V87.2702V91.133H43.1774H36.3102V83.1928C36.3102 78.8256 36.1552 75.2525 35.9655 75.2525C35.7758 75.2525 35.1921 76.5839 34.668 78.211ZM99.5962 75.6585C98.0567 77.1912 84.8338 82.549 82.5899 82.549C82.0049 82.549 81.8057 82.8756 81.8057 83.8366V85.1242L78.694 85.1431C72.9289 85.1774 70.2529 86.1749 68.9863 88.7608C68.1283 90.5115 68.973 93.0563 70.7769 94.1563C73.1684 95.6143 73.2955 95.4405 73.144 90.9176L73.0071 86.8393L87.0635 86.8401L101.12 86.841V92.1889V97.5363L97.6133 97.6612C95.6849 97.7295 94.047 97.9788 93.9732 98.2149C93.7972 98.7797 99.8765 101.996 100.291 101.558C101.266 100.525 102.509 94.8242 102.723 90.3987C102.959 85.5053 102.569 82.2133 101.259 78.0423C100.478 75.5542 100.159 75.098 99.5962 75.6585ZM37.5978 82.9782V89.4162H43.2087H48.8201L48.6811 85.7671L48.5425 82.1176L52.4053 82.1082C58.7541 82.0927 62.1504 80.833 63.92 77.8376L64.6861 76.5401H51.1421H37.5978V82.9782ZM20.882 81.8773C20.6009 82.2159 20.4421 83.1331 20.5288 83.916C20.6837 85.3177 20.8687 85.1787 21.4893 83.1928C21.628 82.7481 22.2761 82.549 23.5826 82.549C25.7363 82.549 26.6621 83.3147 26.2144 84.725C25.9994 85.4019 26.0775 85.6027 26.5007 85.4637C26.8205 85.3585 27.1415 84.6782 27.2136 83.952C27.3115 82.9713 27.0934 82.455 26.3672 81.9464C25.1285 81.0789 21.5816 81.0343 20.882 81.8773ZM110 81.5755C107.679 81.8167 108.058 82.9236 110.777 83.8512L112.923 84.5834L110.884 84.9027C109.538 85.1134 108.846 85.4328 108.846 85.8431C108.846 86.4667 109.67 86.4487 114.345 85.7246C116.331 85.4169 115.875 84.6439 113.104 83.622L110.777 82.7636L112.89 82.549C115.617 82.2721 116.136 81.2309 113.495 81.3335C112.472 81.3734 110.899 81.482 110 81.5755ZM21.8524 90.2776C19.7197 91.1369 19.6588 93.7143 21.7511 94.5808C23.2053 95.183 25.6899 94.8246 26.6393 93.8752C27.5922 92.9224 27.448 91.2875 26.3428 90.5137C25.3032 89.7853 23.3315 89.6819 21.8524 90.2776ZM55.3904 91.7961C56.6819 100.409 63.2757 104.833 74.0749 104.33C76.5561 104.215 78.9245 103.978 79.3378 103.804C79.9679 103.539 80.0889 102.912 80.0889 99.9158V96.3436L78.697 96.7427C77.9313 96.962 76.1415 97.1419 74.72 97.1419C70.4559 97.1419 67.8141 95.1697 67.3394 91.6322L67.0999 89.8454H61.0988H55.0977L55.3904 91.7961ZM22.2537 91.5755C21.0648 92.0532 20.994 93.128 22.1276 93.4876C23.1448 93.8104 25.9226 93.337 26.2655 92.7825C26.6848 92.1043 25.5346 91.1317 24.3474 91.1601C23.7268 91.1751 22.7847 91.3622 22.2537 91.5755ZM108.846 92.1442C108.846 92.5125 109.723 93.328 110.796 93.9568C111.869 94.5855 112.69 95.1525 112.62 95.2165C112.551 95.28 111.577 95.1907 110.455 95.0177C108.919 94.7804 108.416 94.8383 108.416 95.2534C108.416 96.0435 108.712 96.1393 112.172 96.4685C115.936 96.8268 116.263 96.2594 113.351 94.4199C112.289 93.749 111.421 93.1335 111.421 93.052C111.421 92.9704 112.088 93.0121 112.904 93.1447C114.59 93.4181 116.064 93.0177 115.463 92.4498C115.246 92.2455 113.669 91.9425 111.957 91.7764C109.296 91.5189 108.846 91.5721 108.846 92.1442ZM53.6929 96.1667C50.685 96.9135 44.5667 99.233 41.4606 100.805C35.7385 103.7 35.9531 103.26 38.4266 107.014C41.8104 112.148 41.6198 111.984 43.0448 110.978C46.7355 108.37 54.0672 105.479 59.6 104.45L62.5032 103.91L60.673 102.747C58.6373 101.453 56.4149 99.0857 55.4067 97.1363C55.0423 96.4311 54.7007 95.8766 54.6474 95.9041C54.5947 95.9315 54.165 96.0496 53.6929 96.1667ZM24.5071 100.239C21.4863 101.275 21.4262 101.315 21.9979 101.886C22.2958 102.184 22.8207 102.178 23.6383 101.867C25.3002 101.235 25.6075 101.756 24.1843 102.792C22.9177 103.715 22.5859 105.565 23.5199 106.499C24.3083 107.287 26.9209 107.109 28.4772 106.16C29.5193 105.525 29.8721 105.004 29.8721 104.101C29.8721 102.515 29.1596 101.863 27.4256 101.863C25.6457 101.863 25.5964 101.233 27.3291 100.629C28.0549 100.375 28.5265 99.9703 28.3768 99.7283C28.0124 99.1385 27.5295 99.2021 24.5071 100.239ZM93.8234 105.976C93.8234 110.104 93.95 111.336 94.3599 111.202C95.0037 110.992 99.4031 104.523 99.4031 103.786C99.4031 103.342 94.8209 100.576 94.0852 100.576C93.9415 100.576 93.8234 103.006 93.8234 105.976ZM106.434 102.564C106.075 103.421 105.94 104.265 106.134 104.439C106.741 104.986 111.944 106.577 112.335 106.335C113.075 105.878 112.683 105.359 111.385 105.074C110.283 104.832 110.101 104.624 110.3 103.831C110.628 102.528 109.472 101.005 108.155 101.005C107.33 101.005 106.936 101.362 106.434 102.564ZM81.8057 107.872V114.31H87.1708H92.5358V107.872V101.434H87.1708H81.8057V107.872ZM107.328 102.746C107 103.277 107.82 103.992 108.77 104.003C109.579 104.012 109.194 102.544 108.344 102.381C107.956 102.306 107.499 102.47 107.328 102.746ZM25.0436 103.825C23.8354 104.481 23.4371 105.687 24.3998 105.775C26.3187 105.952 29.0137 104.789 29.0137 103.783C29.0137 102.945 26.62 102.97 25.0436 103.825ZM78.3721 105.4C77.5459 105.595 74.9385 105.711 72.5779 105.658C62.85 105.441 60.5902 105.567 56.9119 106.534C53.3864 107.46 45.5797 110.911 43.8212 112.32C42.9817 112.992 43.0044 113.043 44.8616 114.625C45.9059 115.514 47.6162 116.824 48.6622 117.536L50.5636 118.831L53.5251 117.42C60.2121 114.235 69.7314 113.278 76.6553 115.094C78.4258 115.558 79.9284 115.888 79.9949 115.826C80.061 115.765 80.061 113.314 79.9949 110.38L79.8743 105.046L78.3721 105.4ZM102.872 110.046C101.859 111.849 101.923 112.672 103.006 111.773C103.501 111.361 104.09 111.521 105.948 112.57C108.546 114.036 108.846 114.115 108.846 113.337C108.846 113.038 107.773 112.152 106.463 111.369C104.67 110.296 104.191 109.811 104.528 109.405C104.951 108.895 104.739 108.301 104.132 108.301C103.978 108.301 103.412 109.087 102.872 110.046ZM31.8035 110.018C31.6576 110.254 31.722 110.447 31.9469 110.447C32.5606 110.447 32.9645 111.818 32.4902 112.293C32.2623 112.521 31.7709 112.59 31.3988 112.447C30.3125 112.031 30.0781 112.149 30.2215 113.045C30.4322 114.361 29.027 114.634 28.0776 113.462C27.093 112.246 26.5526 112.634 27.2128 114.082C28.051 115.922 31.1597 115.914 31.1597 114.071C31.1597 113.762 31.6911 113.447 32.34 113.373C33.2744 113.265 33.5491 112.986 33.6585 112.031C33.8551 110.317 32.5164 108.864 31.8035 110.018ZM99.079 115.401C97.6459 116.404 97.8253 118.153 99.531 119.806C100.37 120.619 101.391 121.177 102.04 121.177C103.15 121.177 104.554 120.02 104.554 119.105C104.554 118.33 103.96 118.508 103.365 119.46C102.647 120.612 102.271 120.55 100.491 118.987C98.8309 117.529 98.5979 116.709 99.673 116.108C100.058 115.892 100.298 115.493 100.207 115.221C100.092 114.876 99.7507 114.93 99.079 115.401ZM61.3147 116.271C58.051 116.986 52.8796 119.086 52.9298 119.675C52.9843 120.317 57.1553 121.874 60.8829 122.644C64.6938 123.431 70.6765 123.527 74.2929 122.858C77.2592 122.31 83.9517 119.959 83.9517 119.466C83.9517 118.902 78.77 117.002 75.2514 116.275C71.3224 115.464 65.0071 115.462 61.3147 116.271ZM83.0526 117.328L85.8012 118.628L87.4519 117.536C88.3597 116.935 89.1022 116.35 89.1022 116.235C89.1022 116.121 87.1223 116.027 84.7029 116.027L80.3035 116.028L83.0526 117.328ZM40.4627 120.172C40.3073 120.327 40.3953 120.713 40.658 121.03C41.0254 121.473 40.7769 122.043 39.5811 123.502C38.7266 124.546 38.027 125.597 38.027 125.838C38.027 126.985 38.8832 126.529 40.3584 124.594C41.7143 122.816 42.1452 122.513 43.0066 122.729C44.4783 123.098 44.277 122.322 42.5624 121.014C40.955 119.788 40.8782 119.757 40.4627 120.172ZM93.6166 120.736C93.4749 120.964 93.6569 121.728 94.0204 122.431C95.0681 124.457 94.8012 124.804 93.1586 123.551C92.2028 122.822 91.3645 122.493 90.9083 122.668C90.2731 122.912 90.3168 123.053 91.2512 123.777C91.8397 124.234 93.0406 124.946 93.9196 125.36C95.3879 126.052 96.1278 127.186 95.111 127.186C94.875 127.186 94.6818 127.379 94.6818 127.615C94.6818 128.269 95.7956 128.127 96.4017 127.397C96.8403 126.869 96.7137 126.161 95.7111 123.534C94.5102 120.389 94.138 119.892 93.6166 120.736ZM46.8716 125.386C46.4518 127.53 46.4261 129.115 46.8007 129.721C47.102 130.209 46.9141 130.273 45.8192 130.054C44.4036 129.77 44.1079 130.091 44.9801 130.963C45.9192 131.902 46.8312 131.502 49.1828 129.121C50.8829 127.4 51.3829 126.636 51.0366 126.29C50.6902 125.943 50.1374 126.26 48.9888 127.466C47.8574 128.654 47.4742 128.876 47.6248 128.259C48.336 125.347 48.3545 124.713 47.7351 124.475C47.2939 124.306 47.0278 124.587 46.8716 125.386ZM84.9175 126.149C84.1505 126.485 83.5225 126.848 83.5225 126.957C83.5225 127.066 83.9178 128.157 84.4011 129.383C84.8844 130.609 85.1793 131.874 85.0565 132.194C84.7552 132.979 85.6999 134.974 86.2789 134.776C86.5334 134.689 86.6871 134.235 86.6201 133.767C86.5386 133.196 86.8725 132.746 87.6356 132.398C88.5966 131.961 88.855 131.992 89.3018 132.603C89.5923 133.001 90.0533 133.188 90.3259 133.02C90.8941 132.669 90.3885 131.477 89.1421 130.23C88.7279 129.816 88.018 128.576 87.5652 127.475C87.1124 126.374 86.645 125.488 86.527 125.506C86.4089 125.524 85.6844 125.814 84.9175 126.149ZM85.3548 127.06C84.9475 127.208 84.972 127.601 85.4621 128.774C85.8115 129.611 86.0978 130.658 86.0978 131.101C86.0978 131.974 86.4265 132.094 87.3 131.54C87.7416 131.26 87.6523 130.736 86.8708 129.027C86.2931 127.763 85.6638 126.947 85.3548 127.06ZM55.4187 128.581C54.826 130.362 53.9075 133.866 53.9075 134.346C53.9075 135.474 55.0942 134.879 55.3453 133.624C55.5586 132.558 55.8114 132.337 56.8153 132.337C59.4489 132.337 59.9949 129.68 57.5695 128.666C55.7582 127.91 55.6436 127.905 55.4187 128.581ZM77.1643 130.298C77.2772 131.467 77.1429 131.715 76.3334 131.83C75.6372 131.929 75.366 131.749 75.3612 131.186C75.3522 130.12 74.6964 129.166 74.1882 129.48C73.5204 129.893 74.9196 136.199 75.6793 136.199C76.1673 136.199 76.239 135.829 76.0115 134.483C75.7385 132.866 75.7831 132.766 76.7785 132.766C77.6098 132.766 77.8905 133.041 78.0931 134.053C78.2348 134.762 78.6172 135.341 78.9425 135.341C79.4412 135.341 79.434 134.835 78.894 132.122C78.4562 129.921 78.0601 128.903 77.6416 128.903C77.2098 128.903 77.069 129.313 77.1643 130.298ZM56.2655 130.199C55.9153 131.303 56.2067 131.676 57.1398 131.318C57.9051 131.024 57.8459 129.715 57.0557 129.451C56.7806 129.36 56.4248 129.697 56.2655 130.199ZM64.2045 130.942C64.2028 131.591 64.0792 133.136 63.9303 134.375C63.7015 136.279 63.7676 136.629 64.356 136.629C64.7603 136.629 65.508 135.729 66.1398 134.483C66.7381 133.302 67.2922 132.337 67.3716 132.337C67.451 132.337 67.4231 133.302 67.3098 134.483C67.1386 136.263 67.2227 136.629 67.8021 136.629C68.3614 136.629 68.5146 136.117 68.5721 134.053C68.6112 132.637 68.6597 131.156 68.6794 130.763C68.7567 129.215 67.6291 129.815 66.5836 131.879C65.9776 133.075 65.3814 134.053 65.2595 134.053C65.1372 134.053 65.1655 133.088 65.3217 131.907C65.5625 130.094 65.4981 129.761 64.9076 129.761C64.432 129.761 64.2071 130.139 64.2045 130.942Z" fill="#7D7D7D"/>
</g>
<g opacity="0.4">
<mask id="path-2-inside-1_119_606" fill="white">
<path d="M126 20.3473L136 20.3473L136 30.3473L126 30.3473L126 20.3473Z"/>
</mask>
<path d="M126 30.3473L125 30.3473L125 31.3473L126 31.3473L126 30.3473ZM136 29.3473L126 29.3473L126 31.3473L136 31.3473L136 29.3473ZM127 30.3473L127 20.3473L125 20.3473L125 30.3473L127 30.3473Z" fill="white" mask="url(#path-2-inside-1_119_606)"/>
</g>
<g opacity="0.4">
<mask id="path-4-inside-2_119_606" fill="white">
<path d="M10.5 155.347L0.5 155.347L0.499999 145.347L10.5 145.347L10.5 155.347Z"/>
</mask>
<path d="M10.5 145.347L11.5 145.347L11.5 144.347L10.5 144.347L10.5 145.347ZM0.499999 146.347L10.5 146.347L10.5 144.347L0.499999 144.347L0.499999 146.347ZM9.5 145.347L9.5 155.347L11.5 155.347L11.5 145.347L9.5 145.347Z" fill="white" mask="url(#path-4-inside-2_119_606)"/>
</g>
<defs>
<clipPath id="clip0_119_606">
<rect width="95.7124" height="97" fill="white" transform="translate(20 40.0579)"/>
</clipPath>
</defs>
</svg>
