<svg width="126" height="66" viewBox="0 0 126 66" fill="none" xmlns="http://www.w3.org/2000/svg">
<path d="M62.3826 6.90172C93.9529 6.90172 119.702 18.7916 119.702 33.37C119.702 47.948 93.9529 59.8378 62.3826 59.8378C30.8118 59.8378 5.0625 47.948 5.0625 33.37C5.0625 18.7916 30.8118 6.90172 62.3826 6.90172Z" stroke="#282828" stroke-width="2"/>
<path fill-rule="evenodd" clip-rule="evenodd" d="M103.848 33.1351C103.822 30.769 103.583 28.7698 103.127 27.1387C102.589 25.2183 101.851 24.2585 100.917 24.2585C99.9841 24.2585 99.2465 25.2183 98.7084 27.1387C98.2528 28.7698 98.0132 30.769 97.9868 33.1351H91.9375C92.0071 30.2465 92.7658 27.7776 94.2115 25.7295C95.8831 23.3669 98.1187 22.1859 100.917 22.1859C103.717 22.1859 105.952 23.3669 107.624 25.7295C109.069 27.7776 109.827 30.2465 109.896 33.1351H103.848Z" fill="#282828"/>
<path fill-rule="evenodd" clip-rule="evenodd" d="M103.57 38.4035C103.735 37.1063 103.827 35.6659 103.845 34.0791H109.892C109.855 35.6201 109.669 37.0619 109.332 38.4035H103.57Z" fill="#282828"/>
<path fill-rule="evenodd" clip-rule="evenodd" d="M98.4221 38.7992C98.5057 39.2241 98.6014 39.6298 98.7088 40.014C99.2469 41.9345 99.9845 42.8943 100.918 42.8943C101.852 42.8943 102.589 41.9345 103.128 40.014C103.235 39.6298 103.33 39.2241 103.412 38.7992H109.024C108.667 39.7583 108.2 40.6548 107.624 41.4866C105.935 43.9122 103.7 45.1251 100.918 45.1251C98.1191 45.1251 95.8835 43.9227 94.2119 41.5182C93.6306 40.6786 93.1599 39.7719 92.8008 38.7992H98.4221Z" fill="#282828"/>
<path fill-rule="evenodd" clip-rule="evenodd" d="M97.986 34.0791C98.0039 35.6659 98.0941 37.1063 98.2595 38.4035H92.4919C92.1592 37.0631 91.9741 35.6219 91.9375 34.0791H97.986Z" fill="#282828"/>
<path fill-rule="evenodd" clip-rule="evenodd" d="M74.672 38.7992C74.0734 42.3375 71.3395 44.9206 67.8529 45.3391C63.1856 45.8993 59.625 42.1632 59.625 42.1632L61.0469 38.7992H61.3585C62.0487 39.7523 64.4799 42.773 67.083 42.023C68.6636 41.5675 69.1908 40.1643 68.9274 38.7992H74.672Z" fill="#282828"/>
<path fill-rule="evenodd" clip-rule="evenodd" d="M74.2468 34.0791C74.3324 34.3815 74.4133 34.7029 74.488 35.0463C74.7413 36.2124 74.8288 37.3388 74.7744 38.4035H68.6088C68.1656 37.3474 67.3522 36.4488 66.2601 36.1162C64.9265 35.7099 63.6208 35.1089 62.5859 34.0791H74.2468Z" fill="#282828"/>
<path fill-rule="evenodd" clip-rule="evenodd" d="M73.7215 24.1816L72.3742 27.4039C72.3742 27.4039 71.2674 24.6017 68.6211 25.1622C65.9748 25.7227 66.4078 28.2914 68.1399 29.179C69.6521 29.9539 72.3377 29.6258 73.8915 33.1351H61.716C60.9301 32.0656 60.4414 30.6154 60.4414 28.6184C60.4414 23.808 64.868 21.8461 66.7926 21.7994C70.7379 21.4724 73.7697 24.2284 73.7215 24.1816Z" fill="#282828"/>
<path fill-rule="evenodd" clip-rule="evenodd" d="M76.1562 33.1351C76.2259 30.2465 76.9845 27.7776 78.4302 25.7295C80.1019 23.3669 82.3374 22.1859 85.1362 22.1859C87.437 22.1859 89.3585 22.9848 90.8976 24.5814L88.65 26.7345C87.9443 25.4496 87.0406 24.8058 85.9423 24.8058C84.6417 24.8058 83.6135 25.7092 82.8637 27.5169C82.2308 29.0464 81.897 30.9194 81.8581 33.1351H76.1562Z" fill="#282828"/>
<path fill-rule="evenodd" clip-rule="evenodd" d="M76.7145 38.4035C76.3819 37.0631 76.1967 35.6219 76.1602 34.0791H81.8616C81.8897 35.6775 82.0344 37.1187 82.299 38.4035H76.7145Z" fill="#282828"/>
<path fill-rule="evenodd" clip-rule="evenodd" d="M91.7064 41.6779C90.0343 43.9754 87.8443 45.1251 85.1366 45.1251C82.3378 45.1251 80.1023 43.9227 78.4306 41.5182C77.8493 40.6786 77.3786 39.7719 77.0195 38.7992H82.558C82.651 39.0885 82.7533 39.368 82.8641 39.6359C83.6139 41.4436 84.6421 42.347 85.9427 42.347C87.2452 42.347 88.2731 41.4436 89.0231 39.6359C89.0679 39.5277 89.1115 39.4173 89.1531 39.3062L91.7064 41.6779Z" fill="#282828"/>
<path fill-rule="evenodd" clip-rule="evenodd" d="M33.5273 38.7992V44.7281H37.8613V38.7992H33.5273Z" fill="#282828"/>
<path fill-rule="evenodd" clip-rule="evenodd" d="M33.5273 33.7606V38.5832H37.8613V33.7606H33.5273Z" fill="#282828"/>
<path fill-rule="evenodd" clip-rule="evenodd" d="M26.2891 34.0811L28.5926 39.9614L28.3822 39.8644C28.9905 38.1917 30.0432 35.7463 30.6426 34.0771L26.2891 34.0811Z" fill="#282828"/>
<path fill-rule="evenodd" clip-rule="evenodd" d="M19.707 38.7992V44.7281H23.4687V38.7992H19.707Z" fill="#282828"/>
<path fill-rule="evenodd" clip-rule="evenodd" d="M19.707 34.0791V38.4035H23.4687V34.0791H19.707Z" fill="#282828"/>
<path fill-rule="evenodd" clip-rule="evenodd" d="M37.8606 22.5829C35.8734 22.5829 33.8823 22.5829 31.8912 22.5829L28.7605 29.4847L25.6765 22.5829H19.707V33.1351H23.4687V28.1366L25.9812 33.2084L31.096 33.1351C31.8962 31.4599 32.6992 29.7817 33.5267 28.0926V33.1351H37.8606V22.5829Z" fill="#282828"/>
<path fill-rule="evenodd" clip-rule="evenodd" d="M52.2493 33.1351C52.2228 30.769 51.984 28.7698 51.5283 27.1387C50.99 25.2183 50.2527 24.2585 49.3186 24.2585C48.3853 24.2585 47.6476 25.2183 47.1096 27.1387C46.654 28.7698 46.4144 30.769 46.3879 33.1351H40.3398C40.4095 30.2465 41.1669 27.7776 42.6126 25.7295C44.2843 23.3669 46.5198 22.1859 49.3186 22.1859C52.1177 22.1859 54.3533 23.3669 56.025 25.7295C57.4707 27.7776 58.2277 30.2465 58.2974 33.1351H52.2493Z" fill="#282828"/>
<path fill-rule="evenodd" clip-rule="evenodd" d="M51.9766 38.4035C52.1416 37.1063 52.2333 35.6659 52.2512 34.0791H58.2985C58.2616 35.6201 58.0753 37.0619 57.7387 38.4035H51.9766Z" fill="#282828"/>
<path fill-rule="evenodd" clip-rule="evenodd" d="M46.8229 38.7992C46.9065 39.2241 47.0022 39.6298 47.1096 40.014C47.6476 41.9345 48.3853 42.8943 49.3186 42.8943C50.2527 42.8943 50.99 41.9345 51.5283 40.014C51.6358 39.6298 51.7303 39.2241 51.8132 38.7992H57.4247C57.0676 39.7583 56.6007 40.6548 56.025 41.4866C54.3361 43.9122 52.1007 45.1251 49.3186 45.1251C46.5198 45.1251 44.2843 43.9227 42.6126 41.5182C42.0314 40.6786 41.5618 39.7719 41.2031 38.7992H46.8229Z" fill="#282828"/>
<path fill-rule="evenodd" clip-rule="evenodd" d="M46.3911 34.0791C46.409 35.6659 46.4992 37.1063 46.6646 38.4035H40.8973C40.5651 37.0631 40.3803 35.6219 40.3438 34.0791H46.3911Z" fill="#282828"/>
<path fill-rule="evenodd" clip-rule="evenodd" d="M18.4219 42.4256H114.706V42.8718H18.4219V42.4256Z" fill="#E8E8E8"/>
<path fill-rule="evenodd" clip-rule="evenodd" d="M19.1562 38.2186H117.295V38.7922H19.1562V38.2186Z" fill="#E8E8E8"/>
<path fill-rule="evenodd" clip-rule="evenodd" d="M19.7188 33.1267H114.709V34.0826H19.7188V33.1267Z" fill="#E8E8E8"/>
<path fill-rule="evenodd" clip-rule="evenodd" d="M28.1094 39.6613V40.0545H28.8265V39.6613H28.1094Z" fill="#E8E8E8" stroke="#282828" stroke-width="0.288"/>
</svg>
