<svg width="48" height="48" viewBox="0 0 48 48" fill="none" xmlns="http://www.w3.org/2000/svg">
<path opacity="0.4" d="M47.9136 19.6297C45.5947 1.89588 19.216 -4.58279 7.7476 8.38618C5.96817 10.3988 5.09339 12.7153 3.72478 14.9595C2.63089 16.7547 1.62747 18.4229 0.961845 20.4522C-0.697248 25.5124 -0.278119 31.4292 2.75207 35.9251C5.21373 39.5761 9.30711 43.2213 13.3723 44.8281C15.8099 45.7917 18.7902 46.3013 21.403 46.4316C24.048 46.5627 26.8608 45.3161 29.4046 45.7427C29.3631 45.6689 34.9969 42.8744 35.9314 42.2503C37.6677 41.09 39.3368 39.7504 40.7095 38.1934C41.4996 37.2979 46.4114 31.777 45.2112 31.118C45.6245 30.8508 46.1723 28.8564 46.5342 28.1036C47.3799 26.3474 48.2871 22.4897 47.9136 19.6297ZM27.7804 4.66547C27.885 4.45881 31.4546 5.01488 31.4364 5.21656C30.9741 5.41907 27.9696 4.96674 27.7804 4.66547ZM19.1853 4.96923C20.2584 4.7966 25.6142 3.38649 26.186 4.71692C25.5154 4.71692 19.1787 5.0821 19.1853 4.96923ZM23.8704 44.7061C19.3397 44.0579 15.3542 43.7898 11.2168 41.7407C8.39 40.3405 5.98394 38.2623 4.2626 35.9251C3.05584 34.286 1.82583 31.6791 1.43907 30.0822C0.78838 27.3956 0.487939 21.7046 3.20523 19.5085C3.84098 20.3982 3.56295 22.4316 3.76214 23.5131C4.0269 24.9489 4.43606 26.4171 5.02367 27.76C6.11341 30.2482 7.88705 32.7555 9.93124 34.5391C11.963 36.3127 13.9441 38.4914 16.1991 39.9737C18.679 41.6037 22.247 42.5325 24.4215 44.5011C24.2381 44.57 24.0539 44.6381 23.8704 44.7061ZM46.2727 25.0012C45.2494 31.0989 40.8241 36.8671 35.8708 40.4293C32.1991 43.0703 27.3139 45.4904 23.0728 42.9491C21.9582 42.281 20.2684 41.3274 18.8326 40.3961C17.8607 39.7662 15.9335 38.3918 14.8521 37.5087C12.1414 35.296 7.10937 31.2417 6.85457 27.7641C6.87283 27.7484 4.5423 24.5754 5.48099 24.9032C5.38969 24.2169 4.93654 24.3073 4.79959 23.7728C4.90251 23.6708 5.01289 23.7123 5.12991 23.8965C5.17805 23.557 5.03031 23.4209 4.68754 23.4882C5.47932 22.5146 4.65435 19.4363 4.90997 18.1772C5.42538 15.6359 7.38159 14.2416 9.40089 12.7759C12.5639 10.4793 16.5834 8.81445 20.4236 8.20775C24.7909 7.51722 29.4735 7.57946 33.6374 9.18875C35.1612 9.77719 36.7049 10.3233 38.0553 11.3741C38.7973 11.9517 39.5783 12.4082 39.9567 13.3386C40.4215 14.4814 39.8306 15.8558 40.4912 16.997C40.6722 16.5065 41.0747 16.4302 41.3602 16.1032C42.1097 15.2458 41.6939 13.6622 42.1935 12.663C44.9863 16.0841 47.062 20.2961 46.2727 25.0012Z" fill="#A7A7A7"/>
</svg>
