<svg width="250" height="53" viewBox="0 0 250 53" fill="none" xmlns="http://www.w3.org/2000/svg">
<path d="M249.579 22.9298C249.343 22.4914 248.393 22.1224 247.719 22.0757C242.773 21.7309 237.815 21.4901 232.865 21.1817C230.242 21.0189 227.624 20.7971 225.008 20.5736C223.658 20.4593 223.261 19.8408 223.818 18.8221C224.138 18.24 224.518 17.6787 224.791 17.0828C225.207 16.1785 224.904 15.7592 223.768 15.5808C223.413 15.5253 223.042 15.5305 222.676 15.5201C218.39 15.3902 214.104 15.2655 209.816 15.1303C208.405 15.0853 206.996 14.9865 205.582 14.9571C203.599 14.9155 201.613 14.9502 199.632 14.8913C198.079 14.8445 196.528 14.6245 194.977 14.6297C192.39 14.6366 189.803 14.8012 187.214 14.8202C185.567 14.8341 183.918 14.7145 182.269 14.64C181.262 14.595 180.25 14.4235 179.254 14.4789C175.995 14.6574 172.742 14.9207 169.486 15.1355C169.129 15.1598 168.761 15.0766 168.398 15.0593C166.986 14.9865 165.567 14.8081 164.166 14.8843C162.654 14.9657 161.168 15.3503 159.657 15.4837C158.302 15.6033 156.922 15.6119 155.556 15.5756C153.871 15.5305 152.187 15.2776 150.506 15.3105C147.339 15.3746 144.178 15.6327 141.011 15.7055C139.418 15.7419 137.783 15.6882 136.232 15.4196C135.028 15.21 133.967 15.2828 132.8 15.4924C131.27 15.7661 129.687 15.8354 128.13 16.0121C127.345 16.1005 126.537 16.1559 125.794 16.3604C124.126 16.8195 122.489 17.2837 120.737 16.6323C120.535 16.5579 120.253 16.5648 120.029 16.6081C117.067 17.1763 114.015 16.6757 111.015 17.2491C108.553 17.7186 105.958 17.7151 103.422 17.8918C101.971 17.994 100.511 18.0287 99.0583 18.1119C94.8202 18.3561 90.5759 18.5605 86.3462 18.8741C83.367 19.0959 80.4149 19.548 77.4357 19.7542C73.5338 20.0245 69.6235 20.0504 65.8718 21.2562C64.6526 21.6477 63.1557 21.5074 61.7883 21.4901C60.8154 21.478 60.4563 20.7192 61.0012 20.0297C61.1494 19.8408 61.329 19.6693 61.496 19.4909C61.4542 19.3783 61.4125 19.2639 61.3728 19.1513C60.1473 19.2362 58.9135 19.2795 57.6963 19.4198C56.8905 19.5134 56.1076 19.7507 55.3121 19.9153C54.8883 20.0037 54.4541 20.0539 54.0345 20.1561C52.3288 20.5702 50.6356 21.0223 48.9195 21.4104C47.2514 21.7863 45.55 22.067 43.886 22.4551C43.0405 22.6526 42.648 23.1515 42.5645 23.9519C42.5102 24.4664 42.0655 25.1681 41.552 25.3829C40.6375 25.7658 39.5415 25.8645 38.5122 26.0395C36.4997 26.3825 34.4829 26.7117 32.4599 27.0131C31.3764 27.1742 30.8795 27.7043 31.0152 28.5671C31.1843 29.6481 30.5726 30.1298 29.3805 30.2805C28.4661 30.3948 28.0027 30.8816 28.0569 31.611C28.107 32.2693 28.1843 32.964 28.4849 33.5617C29.3472 35.2838 29.4077 35.2145 31.5455 34.7398C33.9673 34.2027 36.4162 33.7384 38.8818 33.3573C40.2158 33.1511 40.6167 33.5409 40.6939 34.6843C40.7983 36.2175 41.1804 36.4757 43.0593 36.2505C45.5854 35.949 48.1116 35.6424 50.6356 35.3323C51.6816 35.2041 52.072 35.7169 51.8048 36.396C51.5083 37.1479 50.9029 37.8148 50.3601 38.6274C50.7066 38.7677 51.2536 38.9894 51.8027 39.2129C51.4916 39.6512 49.2056 40.3875 48.5584 40.1536C47.2034 39.6651 45.9174 39.9267 44.6856 40.3234C43.5896 40.6751 43.0572 40.1121 42.7357 39.9128C42.337 40.1207 41.9445 40.4274 41.504 40.4915C40.1657 40.6855 38.8129 40.8328 37.46 40.9107C36.3055 40.9783 35.055 40.7028 34.0028 40.9835C32.5602 41.3663 31.2553 42.0801 29.6436 41.6366C29.5121 41.6002 29.3033 41.6505 29.178 41.718C27.8294 42.4474 26.2197 42.4872 24.7333 42.7766C22.2322 43.2616 19.6559 43.4834 17.1131 43.8212C16.8333 43.8576 16.5557 43.9147 16.2843 43.9771C13.2988 44.6632 10.3176 45.3527 7.33211 46.037C5.53458 46.4493 3.72662 46.8252 1.94161 47.2687C0.962471 47.513 0.350778 48.1124 0.388357 48.9821C0.417585 49.6404 0.60129 50.3022 0.791273 50.9467C1.29233 52.6514 1.61384 52.8108 3.71617 52.3968C4.93958 52.1559 6.13167 51.8095 7.36134 51.6016C9.41984 51.2534 11.4971 50.971 13.5681 50.6713C15.3511 50.4131 17.1277 50.0372 18.9232 49.9506C21.2948 49.8362 23.5057 49.3685 25.7354 48.7084C28.0924 48.0102 30.5726 47.5945 33.0069 47.0817C34.4725 46.7733 35.9402 46.4597 37.4266 46.2414C40.0592 45.8551 42.6501 45.4237 45.3704 45.2972C49.4081 45.1084 53.3977 44.2041 57.4061 43.5943C57.9072 43.518 58.3874 43.3327 58.8905 43.2755C61.2058 43.0122 63.5232 42.7662 65.8426 42.5375C67.1662 42.4075 67.7299 41.9883 67.8886 40.928C66.2393 40.9973 64.5879 41.0684 62.8613 41.1411C62.6463 40.7028 61.5983 40.1051 62.64 39.6391C63.7716 39.1332 65.1244 38.9305 66.4084 38.707C68.707 38.3069 71.2102 39.1904 73.3876 37.9482C73.5025 37.8824 73.7029 37.898 73.8616 37.9067C75.9764 38.0297 77.9994 37.7785 79.9932 37.1357C80.5736 36.9486 81.3774 37.1513 82.0538 37.2709C82.6008 37.3679 83.0976 37.6485 83.6405 37.7733C85.2417 38.1388 85.8931 36.6472 87.3023 36.6125C87.2794 36.5017 87.2543 36.3908 87.2313 36.2799C86.5487 36.2314 85.866 36.1812 85.1833 36.1326C88.7429 34.5145 91.9475 34.4799 95.4382 34.842C95.2732 35.0637 95.1187 35.2664 94.91 35.5454C95.6282 35.5817 96.1918 35.6857 96.2336 34.9303C96.2419 34.7658 96.6115 34.5527 96.8662 34.473C97.4591 34.2876 98.0708 34.1248 98.6929 34.0381C99.5176 33.9221 100.392 33.7263 101.184 33.8458C103.66 34.2166 106.096 34.8021 108.57 33.8233C108.985 33.6587 109.526 33.709 110.01 33.6761C111.336 33.586 112.72 33.6709 113.969 33.3659C114.927 33.1321 115.775 32.8722 116.754 33.1494C118.522 33.6501 120.249 34.4366 122.207 33.7523C123.729 34.4418 124.787 33.7332 126.078 33.1026C128.817 31.7652 132.017 32.0112 135.057 31.7357C135.211 31.7219 135.374 31.7877 135.535 31.7964C136.808 31.8622 138.103 32.0718 139.353 31.9557C142.804 31.6335 146.212 31.8934 149.631 32.2104C150.615 32.3022 151.627 32.2693 152.617 32.2018C153.757 32.1238 154.884 31.8691 156.026 31.8258C158.554 31.734 161.089 31.6716 163.621 31.6976C166.318 31.7253 169.012 31.8847 171.709 31.9592C174.978 32.0476 178.254 32.051 181.519 32.1931C185.642 32.375 189.757 32.6643 193.876 32.8999C197.551 33.1095 201.229 33.2793 204.902 33.5253C206.714 33.6466 208.52 34.0745 210.321 34.0503C213.641 34.007 216.958 33.7661 220.267 33.5271C220.99 33.4751 222.079 33.2274 222.301 32.8116C222.958 31.585 224.069 31.7721 225.244 31.7548C225.894 31.7461 226.762 31.6941 227.142 31.3563C228.13 30.4814 229.023 29.4957 229.72 28.4458C230.201 27.7251 230.708 27.5207 231.635 27.5623C235.886 27.7529 240.138 27.8949 244.389 28.0578C246.568 28.1409 247.765 27.415 248.393 25.6843C248.529 25.3136 248.944 25.0173 249.105 24.6483C249.345 24.0818 249.813 23.3594 249.579 22.9298ZM41.0822 43.3552C43.0677 42.7835 43.0677 42.7835 43.9591 43.3552C42.9048 43.3552 41.9925 43.3552 41.0822 43.3552ZM52.5083 41.602C53.1534 41.5586 53.7756 41.5777 54.3622 41.4668C55.4374 41.2624 55.4291 41.2312 55.6733 41.9225C54.5439 41.6661 53.4353 42.5791 52.5083 41.602ZM59.8738 41.427C58.8926 41.5777 57.8988 41.699 56.903 41.7631C56.6566 41.7787 56.3852 41.5344 56.1264 41.4097C56.1994 41.3022 56.2725 41.1948 56.3456 41.0891C57.2997 41.6037 58.093 41.5309 58.8154 40.8085C58.9991 40.6249 59.4771 40.54 59.7903 40.5781C60.0805 40.6127 60.3331 40.8726 60.6003 41.032C60.3603 41.1671 60.1369 41.3854 59.8738 41.427Z" fill="#11366F"/>
<path d="M26.8191 19.3123C27.0863 20.2339 27.7439 20.5423 28.8922 20.3621C31.3202 19.9827 33.7628 19.6605 36.2076 19.3521C37.9884 19.1269 38.0239 19.1425 38.6857 20.5787C39.026 21.3167 39.5041 21.5333 40.4519 21.3392C42.6941 20.8836 44.9593 20.5077 47.2182 20.1127C49.1598 19.7731 51.0993 19.4197 53.0534 19.1373C54.6818 18.9017 56.3269 18.7042 57.9741 18.6002C59.1788 18.524 60.4001 18.6436 61.6131 18.647C65.254 18.6557 68.7531 17.6353 72.4275 17.7028C74.3816 17.7392 76.344 17.2368 78.3107 17.0324C81.7512 16.6738 85.1939 16.3152 88.6449 16.0328C92.6637 15.7036 96.5949 14.6919 100.691 14.9327C100.967 14.9483 101.251 14.8616 101.532 14.8374C105.069 14.5359 108.606 14.2293 112.144 13.94C113.151 13.8568 114.163 13.8031 115.176 13.7719C116.906 13.7165 118.602 13.616 120.343 14.0751C121.602 14.4078 123.076 14.3956 124.412 14.2622C128.17 13.888 131.898 13.2921 135.658 12.9369C138.061 12.71 140.502 12.7463 142.926 12.6874C147.546 12.5766 152.166 12.4795 156.786 12.3808C160.026 12.3115 163.264 12.2439 166.504 12.1868C167.801 12.1642 169.099 12.1539 170.398 12.1764C173.799 12.2353 177.2 12.3219 180.601 12.3843C185.586 12.4761 190.574 12.4969 195.555 12.6563C200.286 12.807 205.012 13.0894 209.739 13.3284C211.883 13.4359 214.023 13.5935 216.167 13.6974C218.219 13.7979 220.274 13.9105 222.33 13.9175C223.908 13.9244 225.318 13.5866 225.771 12.0551C225.852 11.7814 226.18 11.5614 226.387 11.3119C227.591 9.86877 227.556 9.67646 225.562 8.50533C226.675 8.41178 227.487 8.26453 228.288 8.29399C230.111 8.36155 231.929 8.5244 233.75 8.63181C234.733 8.69071 235.618 8.53826 236.101 7.70149C236.502 7.00851 236.898 6.31381 237.322 5.63123C238.019 4.50861 237.65 3.85894 236.138 3.78272C232.779 3.61467 229.418 3.49166 226.057 3.37559C222.457 3.24912 218.856 3.13825 215.255 3.0499C214.353 3.02738 213.879 2.90091 213.883 1.97579C213.887 0.825447 213.372 0.558648 211.96 0.563845C210.096 0.570775 208.232 0.534395 206.369 0.586368C200.217 0.756147 194.064 0.948456 187.912 1.14769C184.073 1.27069 180.233 1.40927 176.394 1.55653C169.072 1.83718 161.751 2.11784 154.429 2.42275C150.462 2.58906 146.494 2.76231 142.533 3.01524C139.873 3.18502 137.235 3.5627 134.575 3.73594C132.072 3.89879 129.55 3.87626 127.042 4.00793C125.353 4.09628 123.673 4.30072 121.992 4.47223C121.073 4.56578 120.167 4.75115 119.247 4.81005C117.347 4.93479 115.432 4.92266 113.543 5.10976C108.733 5.58618 103.931 6.1267 99.1315 6.66549C95.3193 7.09514 91.503 7.52304 87.7054 8.02718C85.2336 8.35461 82.7993 8.88474 80.3253 9.20524C75.9453 9.77001 71.5402 10.2049 67.158 10.7644C60.1496 11.6601 53.1578 12.6528 46.1451 13.5346C40.2953 14.2691 34.4246 14.9032 28.5623 15.5737C26.9256 15.7608 26.2408 16.4468 26.4287 17.8293C26.4955 18.3335 26.6771 18.822 26.8191 19.3123Z" fill="#11366F"/>
<path d="M221.054 36.5433C219.271 36.474 217.486 36.4514 215.703 36.3891C211.621 36.247 207.54 36.0772 203.456 35.9508C198.036 35.7844 192.615 35.6545 187.195 35.4899C186.349 35.4639 185.51 35.3167 184.663 35.2595C182.368 35.1053 180.074 34.8784 177.777 34.8524C175.324 34.8247 172.871 35.0326 170.416 35.0689C168.489 35.0984 166.558 34.9893 164.629 35.0031C162.867 35.017 161.105 35.1088 159.343 35.1781C158.516 35.211 157.691 35.2699 156.641 35.3305C156.56 36.0235 155.835 36.1309 154.938 36.1846C152.017 36.3631 149.107 36.0668 146.184 36.0928C143.288 36.1171 140.417 36.8187 137.495 36.3076C136.766 36.1794 135.946 36.4185 135.167 36.4809C134.889 36.5034 134.549 36.5866 134.336 36.4913C132.543 35.6805 130.845 36.5796 129.114 36.6801C126.403 36.8378 123.705 37.1565 120.993 37.3142C119.367 37.4077 117.722 37.264 116.091 37.3367C115.024 37.3835 113.976 37.678 112.908 37.7698C110.647 37.9656 108.377 38.1024 106.11 38.2618C106.087 38.3744 106.064 38.487 106.041 38.5997C106.607 38.7331 107.166 38.9461 107.74 38.9843C109.955 39.1315 112.262 38.6534 114.331 39.7465C114.561 39.8678 114.966 39.7812 115.288 39.7604C116.931 39.6547 118.572 39.5178 120.217 39.433C122.44 39.3169 124.67 39.2961 126.887 39.1315C131.428 38.7937 135.954 38.2636 140.501 38.0539C143.81 37.9015 147.144 38.1319 150.468 38.2133C150.904 38.2237 151.336 38.3623 151.77 38.4403C151.773 38.5494 151.775 38.6586 151.777 38.7677C150.23 38.9773 148.685 39.1869 146.975 39.4191C147.741 40.2299 148.996 40.5833 149.935 40.5383C151.846 40.4464 153.762 40.4187 155.674 40.3581C155.906 40.3511 156.14 40.3217 156.368 40.2836C157.211 40.1398 158.065 39.828 158.894 39.8695C161.752 40.0099 164.585 40.417 167.476 40.1311C168.71 40.0099 169.984 40.2056 171.241 40.2091C172.249 40.2126 173.349 40.3442 174.243 40.0618C175.474 39.672 176.502 39.4104 177.723 40.0774C178.291 40.3875 179.103 40.4845 179.811 40.5036C181.385 40.5469 182.974 40.3771 184.539 40.4759C188.93 40.7531 193.306 41.1793 197.698 41.4374C201.536 41.6626 205.383 41.7752 209.229 41.874C212.141 41.9485 215.058 41.9398 217.974 41.9294C219.051 41.9259 220.097 41.7267 220.73 40.8882C221.31 40.119 221.862 39.3359 222.392 38.5425C223.212 37.3263 222.736 36.6091 221.054 36.5433ZM152.526 38.9132C153.242 38.2064 157.733 38.0678 158.979 38.6291C158.984 38.7244 158.988 38.8197 158.992 38.9132C156.867 38.9132 154.741 38.9132 152.526 38.9132Z" fill="#11366F"/>
<path d="M74.0732 40.4931C72.8227 39.7759 69.2777 40.4169 68.4844 41.569C69.0439 41.614 69.5032 41.6643 69.9625 41.6868C71.1525 41.7474 72.3467 41.8444 73.5346 41.8167C73.8436 41.8098 74.2256 41.4373 74.4052 41.1566C74.497 41.0181 74.2862 40.6144 74.0732 40.4931Z" fill="#11366F"/>
<path d="M82.2865 39.8313C83.3471 39.8313 84.4911 39.62 85.4452 39.8833C86.7208 40.2367 87.1718 39.9006 87.4285 39.0344C85.6999 39.1245 83.9817 39.2146 82.2656 39.3029C82.2719 39.4779 82.2781 39.6546 82.2865 39.8313Z" fill="#11366F"/>
<path d="M132.975 40.3355C132.879 40.4048 132.927 40.7912 133.046 40.8553C133.284 40.9817 133.637 41.0649 133.908 41.0216C134.43 40.9401 134.931 40.76 135.438 40.6196C135.47 40.5486 135.499 40.4776 135.53 40.4066C134.944 40.2974 134.361 40.1519 133.766 40.0964C133.509 40.0722 133.177 40.19 132.975 40.3355Z" fill="#11366F"/>
</svg>
